<svg id="Capa_1" enable-background="new 0 0 76.693 76.693" viewBox="0 0 76.693 76.693" xmlns="http://www.w3.org/2000/svg"><g><g id="Exp-flat_15_"><g clip-rule="evenodd" fill-rule="evenodd"><path d="m72.191 11.214c0-2.538-2.057-4.596-4.596-4.596-13.01 0-49.989 0-62.999 0-2.539 0-4.596 2.058-4.596 4.596v48.38c0 2.538 2.057 4.596 4.596 4.596h62.999c2.539 0 4.596-2.058 4.596-4.596 0-10.782 0-37.599 0-48.38z" fill="#ee635b"/><path d="m75.86 42.603c1.226-1.341.918-2.874.23-4.349-.772-1.656-2.148-3.065-3.643-3.644-1.566-.606-3.046-.992-4.386.264-9.075 8.524-14.806 14.288-24.14 24.231-.392.417-.684.912-.849 1.438-.439 1.4-1.714 6.442-2.256 8.601-.053.208.008.428.161.58.152.151.373.21.58.156 2.161-.56 7.217-1.879 8.588-2.32.496-.16.964-.433 1.365-.796 9.875-8.965 15.724-14.746 24.35-24.161z" fill="#feb410"/><path d="m46.865 68.483c.312-1.427-3.372-4.874-4.751-4.337-.524 1.888-.997 3.633-1.298 4.946-.062.27.031.551.247.745.215.195.524.277.821.219z" fill="#464a56"/><path d="m49.622 33.628c.628.371 1.013 1.046 1.013 1.776 0 .729-.385 1.404-1.013 1.776-5.023 2.97-15.079 8.915-20.174 11.927-.638.377-1.429.383-2.072.016-.644-.367-1.041-1.051-1.041-1.792 0-5.982 0-17.872 0-23.855 0-.741.397-1.425 1.041-1.792.643-.367 1.434-.361 2.072.016 5.095 3.013 15.151 8.958 20.174 11.928z" fill="#ffd3bc"/><path d="m64.37 39.428 7.055 6.994c.49.486 1.282.482 1.768-.008s.482-1.282-.008-1.767l-7.055-6.994c-.49-.486-1.282-.482-1.767.007-.486.49-.483 1.283.007 1.768z" fill="#464a56"/></g></g></g><g/><g/><g/><g/><g/><g/><g/><g/><g/><g/><g/><g/><g/><g/><g/></svg>