<svg id="Layer_1" enable-background="new 0 0 51 51" height="512" viewBox="0 0 51 51" width="512" xmlns="http://www.w3.org/2000/svg"><g id="_x35_8"><g><g enable-background="new"><g><path d="m41.3146515 27.1477489c0 .4299927-.0699463.8699951-.1999512 1.2800293-.1300049.4199829-.3000488.7799683-.5 1.1399536-.1900024.3200073-.4299927.710022-.7300415 1.1600342-.3699951.5700073-.6599731 1.039978-.8399658 1.419981-.1799927.3400269-.2399902.6600342-.2399902 1.039978 0 .2300415-.0900269.5-.25.7400513-.1600342.25-.3400269.4400024-.5700073.5700073-.0599976.0299683-.1100464.0599976-.1700439.0699463.0100098 0 .0100098.0100098.0200195.0100098l.8500366.4899902c.2099609.1100464.3099976.3300171.3099976.6400146 0 .3300171-.1000366.6600342-.3000488 1.0200195-.1999512.3399658-.4400024.5999756-.7299805.7700195-.2700195.1499634-.5100098.1699829-.7199707.0599976l-.8500366-.4900513c-.1799927-.1399536-.2799683-.3599854-.2799683-.6799927 0-.3099976.0999756-.6499634.2699585-.9799805.210022-.3499756.4700317-.6199951.7300415-.7700195.0700073-.039978.1499634-.0799561.2199707-.0999756-.0100098 0-.0200195-.0100098-.0200195-.0100098l-.7999878-.460022c-.1199951-.0699463-.2000122-.2199707-.2000122-.4299927 0-.5100098.0900269-1.0100098.2400513-1.5.1599731-.4500103.3399658-.8699932.5599976-1.2399883.1799927-.3499756.4599609-.7999878.789978-1.3099976.3200073-.4799805.5800171-.8800049.7299805-1.1799927.1199951-.25.1799927-.5.1799927-.7299805 0-.1199951-.0099487-.2400513-.0299683-.3500366-.2200317.0599976-.5.1799927-.8499756.3800049-.2800293.1699829-.5900269.3900146-.8600464.6199951-.289978.25-.5499878.5300293-.7600098.7900391-.1299438.1900024-.289978.3299561-.4400024.4199829-.1899414.0999756-.3799438.1300049-.5299683.0499878-.0200195-.0100098-.0300293-.0100098-.039978-.0299683l-.8400269-.4800415c-.1400146-.0799561-.210022-.25-.210022-.4599609 0-.210022.0800171-.5900269.4400024-1.0599976.3900146-.4900513.8000488-.9400024 1.1799927-1.2800293.4000244-.3499756.8500366-.6699829 1.3200073-.9400024.9700317-.5599976 1.75-.7199707 2.3699951-.5100098.0599976.0300293.1200562.0599976.1800537.0900269l.8099976.4799805c.5.2500002.7599487.8400271.7599487 1.7500002z" fill="#ffd06c"/></g></g></g><g><g><g><g enable-background="new"><g fill="#df3260"><path d="m32.9881439 6.2771959c-.4013443-.2381034.6095924 9.8119173 0 10.1687098l-17.5067091 12.3090191c-1.9029188 1.1001377-3.321332 2.6723881-3.3064508 4.8726654l-3.7770061 5.7322044c.0148811 1.0854378-3.3298788 2.6276093-2.705493 2.9845848l-3.1517818-1.8139038c-.6095041-.3716736-.9960587-1.1299019-.9960587-2.2151566l-.0446444-14.2722167c0-2.2002754 1.5462186-4.861515 3.4491382-5.9765339l23.341095-13.4695244c.6095047-.356792 1.1595726-.3865547 1.5461273-.148633z"/><path d="m14.6572876 38.3599663c1.3174133.5035706 1.7809296 4.9112854-3.0180359 8.340332l-3.1517773-1.8286133c3.2707424-3.7613792 3.0328207-8.1172867 3.0179396-8.3405075z"/></g><g><path d="m31.4315014 6.4241405c1.205492-.695992 2.1863575-.1370263 2.1902866 1.2481036l.0487328 17.1896324c.0039558 1.3960762-.9705696 3.0730247-2.1760635 3.7690163l-11.0582104 6.3844624c-.4111214 5.89645-8.3799629 11.4003029-8.7993755 11.6899796 3.2599306-3.7613258 3.0307894-8.122963 3.0187292-8.3525238l-6.5020304 3.7539482c-1.9079032 1.1015282-3.4601078.2278481-3.4663229-1.9644203l-.0404453-14.266407c-.0062461-2.2032185 1.5359087-4.8743935 3.4438124-5.9759216z" fill="#f45170"/></g></g></g></g></g><g><g enable-background="new"><g fill="#fff"><path d="m21.9046783 24.0577831c0 1.3399658-.9400024 2.9799805-2.1099854 3.6499634-.5900269.3400269-1.1300049.3699951-1.5100098.1400146l-.1099854-.0700073-1.1199951-.6500244c-.3900146-.2199707-.6300049-.6799927-.6300049-1.3599854 0-1.3499756.9400024-2.9599609 2.0999756-3.6400146.5999756-.3399658 1.1300049-.3899536 1.5200195-.1399536l1.1300049.6599731.0999756.0599976c.3900148.210022.6199953.6799927.630005 1.3500366z"/><path d="m29.0346832 19.937727c.0100098 1.3400269-.9400024 2.9800415-2.1099854 3.6500244-.6500244.3699951-1.2399902.3699951-1.6199951.0700073.039978.039978.0799561.0599976.1199951.0900269l-1.25-.7300415c-.3699951-.2099609-.6100464-.7000122-.6100464-1.3699951 0-1.3300171.9400024-2.9699707 2.1000366-3.6499634.5800171-.3300171 1.1400146-.3600464 1.5200195-.1400146l1.1599731.6799927c.0200195.0100098.039978.0200195.0599976.039978.3900148.2100219.630005.6799926.630005 1.3599853z"/><path d="m14.7646637 28.1777782c0 1.3399658-.9400024 2.9699707-2.1099854 3.6499634-.7521362.4285259-1.4123535.3598003-1.7869873-.098938.078186.1010132.164978.1889648.2669678.2489624l-1.2299805-.7299805c-.3800049-.210022-.6199951-.7000122-.6199951-1.3500366 0-1.3499756.9400024-2.9899902 2.1199951-3.6699829.5800171-.3300171 1.1099854-.3599854 1.5-.1400146l1.25.7200317c-.0200195-.0100098-.0499878-.0300293-.0800171-.0300293.4299927.2000122.6900025.6900025.6900025 1.4000244z"/></g></g></g><g><g><g><path d="m12.6415539 26.9634438c1.169282-.6750851 2.1197033-.1334724 2.1235132 1.2101269.0038052 1.3423672-.9404411 2.9791012-2.1097231 3.6541862-1.1682196.6744709-2.1186457.131628-2.1224508-1.2107391-.003809-1.3436013.9404411-2.9791031 2.1086607-3.653574z" fill="#d3daea"/></g></g><g><g><path d="m19.7773552 22.843586c1.1692963-.6750946 2.1197186-.133482 2.1235275 1.2101192.0038071 1.3423672-.9404411 2.9790993-2.1097355 3.6541939-1.1682053.6744633-2.1186314.1316204-2.1224365-1.2107468-.0038109-1.3436012.9404392-2.9791031 2.1086445-3.6535663z" fill="#d3daea"/></g></g><g enable-background="new"><g fill="#fff"><path d="m12.9008303 26.0862465 1.2549067.7240124c-.3860912-.2172775-.9171324-.193119-1.5205011.1448021-1.1584206.6756973-2.0997114 2.3169899-2.0997114 3.6685295 0 .6515369.241436 1.1342621.6033688 1.3515396l-1.230895-.7241611c-.3860912-.2171307-.6273804-.6998539-.6273804-1.3515396 0-1.3515396.941143-2.9926853 2.1238699-3.6683807.5792101-.3379213 1.1101034-.3620797 1.4963425-.1448022z"/><path d="m20.0446205 21.9833088 1.230896.7240143c-.3860912-.2412891-.9171333-.193119-1.4963436.1448021-1.1584206.6758442-2.1238689 2.2928295-2.0997105 3.644371 0 .6756954.2172775 1.1342621.6033688 1.3515396l-1.230896-.7240143c-.3860912-.2172775-.6275272-.6758423-.6275272-1.3515396 0-1.3515396.9412918-2.9686737 2.0997124-3.6443691.6033687-.3379231 1.1344089-.3862381 1.5205001-.144804z"/><path d="m28.4194527 18.5802288c-.3862381-.2171307-.9171314-.1929722-1.4963417.1448021-1.182579.6758442-2.1238689 2.316988-2.1238689 3.6443691 0 .6758442.2412891 1.1344109.6275272 1.3756981l-1.2550545-.7240124c-.3620796-.2172775-.6033688-.6998539-.6033688-1.3756981 0-1.3273811.9412899-2.9685268 2.0997105-3.6443691.5792103-.3377762 1.134264-.3619328 1.5205021-.144804z"/></g><g><path d="m26.9131737 18.7237186c1.1692944-.6750927 2.1197033-.1334705 2.1235123 1.2101288.0038052 1.3423672-.9404259 2.9790916-2.1097221 3.6541862-1.1682053.6744633-2.1186314.1316204-2.1224365-1.2107487-.0038091-1.3435992.940441-2.9791011 2.1086463-3.6535663z" fill="#d3daea"/></g></g></g><g><g enable-background="new"><g><path d="m46.9807167 18.7499294c-2.1582031-1.2460728 1.5407829 10.2557774-2.2103767 12.4140587-6.46175 3.7383747-8.9740715 2.7479992-8.9612122 8.6573582.0127792 2.5050049-8.7918472 1.885437-7.2117538 2.7974854l-2.7234516-1.567234c-1.5672359-.9249115-2.5179424-2.6850319-2.5179424-5.1771774-.0256405-5.9095192 5.2028961-13.7328377 11.6775055-17.4713726 3.7382965-2.1581249 7.0784378-2.4792871 9.2237816-1.2203541z" fill="#ffd06c"/><path d="m40.5189667 39.5227814 2.7234535 1.5802536c-.4496727 0-1.1047478.0416489-1.4130516-.1382217l-2.4408989-1.724617c.3083038.1798705.6808243.2825851 1.130497.2825851z" fill="#ffde9b"/></g><g><path d="m37.7488899 19.9875526c6.4714203-3.7362747 11.7343178-1.9791603 11.7510681 3.9301243.0139771 4.9291954-3.6159821 11.178606-8.5664978 15.2828846.3231888.9840851.9830437 1.9058075 2.3057442 1.9068108-.210453.0974312-4.2090225 1.9486427-6.3893471.8096313-6.0215931 3.0234299-10.7672119 1.1565208-10.7831631-4.4701233-.0167522-5.9092846 5.2107792-13.7230529 11.6821957-17.4593277z" fill="#febc1f"/></g></g></g><g><g enable-background="new"><g><path d="m41.3146515 27.1477489c0 .4299927-.0699463.8699951-.1999512 1.2800293-.1300049.4199829-.3000488.7799683-.5 1.1399536-.1900024.3200073-.4299927.710022-.7300415 1.1600342-.3699951.5700073-.6599731 1.039978-.8399658 1.419981-.1799927.3400269-.2399902.6600342-.2399902 1.039978 0 .2300415-.0900269.5-.25.7400513-.1600342.25-.3400269.4400024-.5700073.5700073-.0599976.0299683-.1100464.0599976-.1700439.0699463.0100098 0 .0100098.0100098.0200195.0100098l.8500366.4899902c.2099609.1100464.3099976.3300171.3099976.6400146 0 .3300171-.1000366.6600342-.3000488 1.0200195-.1999512.3399658-.4400024.5999756-.7299805.7700195-.2700195.1499634-.5100098.1699829-.7199707.0599976l-.8500366-.4900513c-.1799927-.1399536-.2799683-.3599854-.2799683-.6799927 0-.3099976.0999756-.6499634.2699585-.9799805.210022-.3499756.4700317-.6199951.7300415-.7700195.0700073-.039978.1499634-.0799561.2199707-.0999756-.0100098 0-.0200195-.0100098-.0200195-.0100098l-.7999878-.460022c-.1199951-.0699463-.2000122-.2199707-.2000122-.4299927 0-.5100098.0900269-1.0100098.2400513-1.5.1599731-.4500103.3399658-.8699932.5599976-1.2399883.1799927-.3499756.4599609-.7999878.789978-1.3099976.3200073-.4799805.5800171-.8800049.7299805-1.1799927.1199951-.25.1799927-.5.1799927-.7299805 0-.1199951-.0099487-.2400513-.0299683-.3500366-.2200317.0599976-.5.1799927-.8499756.3800049-.2800293.1699829-.5900269.3900146-.8600464.6199951-.289978.25-.5499878.5300293-.7600098.7900391-.1299438.1900024-.289978.3299561-.4400024.4199829-.1899414.0999756-.3799438.1300049-.5299683.0499878-.0200195-.0100098-.0300293-.0100098-.039978-.0299683l-.8400269-.4800415c-.1400146-.0799561-.210022-.25-.210022-.4599609 0-.210022.0800171-.5900269.4400024-1.0599976.3900146-.4900513.8000488-.9400024 1.1799927-1.2800293.4000244-.3499756.8500366-.6699829 1.3200073-.9400024.9700317-.5599976 1.75-.7199707 2.3699951-.5100098.0599976.0300293.1200562.0599976.1800537.0900269l.8099976.4799805c.5.2500002.7599487.8400271.7599487 1.7500002z" fill="#f1f6fa"/></g></g></g><g><g enable-background="new"><g><path d="m37.9665794 35.1377411-.8522682-.495285c.2631531-.1519318.5232925-.1843414.7188187-.0684395l.8522568.4953003c-.1955147-.1159134-.4556504-.0835076-.7188073.0684242z" fill="#e9e7fc"/></g><g><path d="m37.8535156 34.5853081.8522568.4953003c-.0066643-.0038948-.0134583-.0076599-.0203743-.0113068l-.8522758-.4952812c.0069198.003643.0137138.0074081.0203933.0112877z" fill="#e9e7fc"/></g><g><path d="m37.2463608 37.5618439-.8522797-.4952698c-.1782684-.1370201-.2794189-.354084-.2803497-.6823387-.0008812-.3105087.0987091-.6434669.2756577-.9766769l.852272.4952888c-.1769485.3332062-.2765388.6661644-.2756615.9766731.0009308.3282547.1020813.5453186.2803612.6823235z" fill="#e9e7fc"/></g><g><path d="m37.2416611 35.9028473-.852272-.4952888c.2057915-.3520279.4667931-.6160431.7249222-.7651024l.8522682.495285c-.2581292.1490593-.5191308.4130745-.7249184.7651062z" fill="#e9e7fc"/></g><g><path d="m37.9665794 35.1377411c.2631569-.1519318.5232925-.1843376.7188187-.0684395.209095.1103249.3102455.3273888.3111267.6378937.0009308.3282585-.0986595.6612167-.3064232 1.0211029-.2001152.3376656-.4390945.6000519-.724762.7649841-.2702255.1560135-.5099068.1699829-.7189789.0685616-.1782799-.1370049-.2794304-.3540688-.2803612-.6823235-.0008774-.3105087.0987129-.6434669.2756615-.9766731.2057877-.3520317.4667893-.6160469.7249184-.7651062z" fill="#f8f9fe"/></g></g><g enable-background="new"><g><path d="m37.3684807 34.5619659-.8522835-.4952736c-.1263237-.0734291-.2008362-.2226868-.2014198-.4288177-.0014572-.5145531.0899086-1.0116196.2431793-1.4999886l.852272.4952888c-.1532745.4883652-.2446404.9854317-.2431793 1.4999847.0005837.2061349.0750923.3553888.2014313.4288064z" fill="#e9e7fc"/></g><g><path d="m37.4102287 32.6331749-.852272-.4952888c.1533775-.4528675.3377953-.8703575.5532799-1.2435608l.8522682.495285c-.2154846.3732052-.3999024.7906952-.5532761 1.2435646z" fill="#e9e7fc"/></g><g><path d="m37.9635048 31.3896103-.8522682-.495285c.1846161-.3465271.4617081-.7997437.7928352-1.3019352.3234291-.479969.5774765-.8843575.7312775-1.1864243l.852272.495285c-.1538048.3020668-.4078522.7064552-.7312813 1.1864262-.3311233.5021915-.6082153.9554081-.7928352 1.3019333z" fill="#e9e7fc"/></g><g><path d="m38.52108 26.865551.852253.4952946c.251606.1461983.2969246.4954395.2978249.812439.0006523.2306385-.0682487.4748001-.1835365.7279663l-.852272-.495285c.1152916-.2531662.1841927-.4973278.1835365-.7279663-.0008966-.3170014-.046219-.6662408-.2978059-.8124486z" fill="#e9e7fc"/></g><g><path d="m39.7454071 24.9196205.8522644.4953003c-.0580864-.0337753-.1195908-.0628014-.1844673-.0870724-.6115379-.2156582-1.3921471-.0582123-2.3649216.503418l-.8522682-.495285c.9727745-.5616302 1.7533836-.7190781 2.3649178-.5034199.0648765.0242729.1263847.0532989.1844749.087059z" fill="#e9e7fc"/></g><g><path d="m35.3135567 29.571104-.8522797-.4952736c-.1352234-.0786018-.2094421-.2431793-.2100487-.4579601-.0006065-.2128906.0833893-.5901794.445507-1.0569611.3852882-.4890175.7938423-.9470539 1.179554-1.2852707.4011612-.3471336.8487587-.6677437 1.319725-.9396572l.8522682.495285c-.4709663.2719135-.91856.5925236-1.3197212.9396572-.3857155.3382168-.7942696.7962532-1.179554 1.2852707-.3621178.4667816-.4461136.8440704-.4455109 1.0569611.0006105.2147809.0748254.3793584.2100603.4579487z" fill="#e9e7fc"/></g><g><path d="m38.0482826 25.8312664c.9727745-.5616302 1.7533836-.7190762 2.3649216-.503418.5883675.2201138.8994179.8313866.9022102 1.816124.0012321.4347172-.0671158.874052-.197422 1.2869663-.1380043.4173298-.3071022.781559-.5071678 1.1369724-.1846924.3199024-.4233208.7064991-.7236061 1.1553288-.3773346.5733166-.6621513 1.0398808-.8466682 1.4218712-.1768684.3420525-.2378502.6616096-.2367668 1.0430794.0006523.2306709-.0913658.4970665-.2530937.7414894-.1539536.2488213-.3390236.4356728-.5629082.56493-.2161903.1248169-.41716.1608505-.5720177.0903206-.1548347-.061657-.2480621-.2210999-.2487144-.4517708-.001461-.5145531.0899048-1.0116196.2431793-1.4999847.1533737-.4528694.3377914-.8703594.5532761-1.2435646.1846199-.3465252.4617119-.7997417.7928352-1.3019333.3234291-.4799709.5774765-.8843594.7312813-1.1864262.1152878-.2531662.1841888-.4973278.1835365-.7279663-.0017624-.6210155-.1740036-1.3657608-1.7335587-.4653511-.2856712.1649323-.5943565.3875961-.8643532.6234474-.2854424.2447701-.5475426.5293922-.7556572.7828178-.1366577.1893005-.2887611.3315067-.4399757.4188099-.1896439.1094894-.3779564.1326714-.5330467.0541096-.1548615-.0705299-.2404137-.2432938-.2410698-.4739628-.0006027-.2128906.0833931-.5901794.4455109-1.0569611.3852844-.4890175.7938385-.9470539 1.179554-1.2852707.4011611-.3471336.8487548-.6677437 1.3197211-.9396572z" fill="#f8f9fe"/></g></g></g></g></svg>