<svg xmlns="http://www.w3.org/2000/svg" xmlns:xlink="http://www.w3.org/1999/xlink" width="500" zoomAndPan="magnify" viewBox="0 0 375 374.999991" height="500" preserveAspectRatio="xMidYMid meet" version="1.0"><defs><clipPath id="6b4410261f"><path d="M 307 237 L 344 237 L 344 304.847656 L 307 304.847656 Z M 307 237 " clip-rule="nonzero"/></clipPath><clipPath id="5d7138dfee"><path d="M 38 24.347656 L 93 24.347656 L 93 78 L 38 78 Z M 38 24.347656 " clip-rule="nonzero"/></clipPath><clipPath id="496387388c"><path d="M 243 45 L 345.75 45 L 345.75 149 L 243 149 Z M 243 45 " clip-rule="nonzero"/></clipPath><clipPath id="9b827cc5df"><path d="M 253 305 L 275.347656 305 L 275.347656 333 L 253 333 Z M 253 305 " clip-rule="nonzero"/></clipPath><clipPath id="74bce042ef"><path d="M 124 41 L 127 41 L 127 50 L 124 50 Z M 124 41 " clip-rule="nonzero"/></clipPath><clipPath id="af9a4465df"><path d="M 99.847656 77 L 114 77 L 114 79 L 99.847656 79 Z M 99.847656 77 " clip-rule="nonzero"/></clipPath></defs><rect x="-37.5" width="450" fill="#ffffff" y="-37.499999" height="449.999989" fill-opacity="1"/><rect x="-37.5" width="450" fill="#ffffff" y="-37.499999" height="449.999989" fill-opacity="1"/><g clip-path="url(#6b4410261f)"><path fill="#dfeef7" d="M 342.429688 242.238281 C 345.714844 266.378906 334.976562 289.695312 315.9375 303.167969 C 313.585938 304.832031 310.300781 304.054688 308.839844 301.570312 L 308.457031 300.917969 C 307.144531 298.675781 307.792969 295.832031 309.90625 294.328125 C 325.652344 283.136719 334.542969 263.832031 331.871094 243.804688 C 331.527344 241.234375 333.175781 238.828125 335.703125 238.265625 L 336.429688 238.105469 C 339.246094 237.484375 342.042969 239.378906 342.429688 242.238281 " fill-opacity="1" fill-rule="nonzero"/></g><path fill="#dfeef7" d="M 321.527344 247.195312 C 322.785156 261.773438 316.453125 275.679688 305.398438 284.375 C 303 286.261719 299.5 285.679688 297.953125 283.050781 L 297.589844 282.433594 C 296.296875 280.238281 296.921875 277.488281 298.917969 275.902344 C 307.148438 269.351562 311.84375 258.972656 310.886719 248.066406 C 310.671875 245.617188 312.414062 243.417969 314.808594 242.890625 L 315.488281 242.738281 C 318.429688 242.089844 321.269531 244.1875 321.527344 247.195312 " fill-opacity="1" fill-rule="nonzero"/><g clip-path="url(#5d7138dfee)"><path fill="#dfeef7" d="M 38.222656 70.753906 C 44.617188 47.246094 63.597656 29.984375 86.378906 25.03125 C 89.195312 24.417969 91.917969 26.417969 92.289062 29.273438 L 92.386719 30.023438 C 92.726562 32.601562 91.015625 34.964844 88.484375 35.523438 C 69.625 39.667969 53.90625 53.960938 48.558594 73.445312 C 47.871094 75.941406 45.414062 77.511719 42.871094 77.042969 L 42.136719 76.90625 C 39.304688 76.375 37.464844 73.539062 38.222656 70.753906 " fill-opacity="1" fill-rule="nonzero"/></g><path fill="#dfeef7" d="M 59.398438 74.367188 C 63.933594 60.453125 75.183594 50.132812 88.75 46.453125 C 91.695312 45.652344 94.6875 47.554688 95.089844 50.582031 L 95.183594 51.292969 C 95.515625 53.820312 93.867188 56.105469 91.414062 56.785156 C 81.277344 59.597656 72.910156 67.316406 69.535156 77.730469 C 68.777344 80.066406 66.316406 81.410156 63.90625 80.957031 L 63.222656 80.832031 C 60.261719 80.28125 58.464844 77.238281 59.398438 74.367188 " fill-opacity="1" fill-rule="nonzero"/><path fill="#fec108" d="M 312.894531 132.433594 L 294.449219 248.070312 C 292.160156 262.425781 278.679688 272.214844 264.332031 269.917969 L 85.621094 241.335938 C 71.273438 239.042969 61.507812 225.53125 63.800781 211.179688 L 82.246094 95.539062 C 83.195312 89.589844 86.066406 84.429688 90.125 80.589844 C 95.859375 75.144531 103.960938 72.34375 112.363281 73.691406 L 291.074219 102.273438 C 299.472656 103.617188 306.304688 108.808594 310.058594 115.765625 C 312.722656 120.679688 313.84375 126.480469 312.894531 132.433594 " fill-opacity="1" fill-rule="nonzero"/><path fill="#feb60a" d="M 90.125 80.589844 L 187.21875 207.089844 L 310.058594 115.765625 Z M 90.125 80.589844 " fill-opacity="1" fill-rule="nonzero"/><path fill="#fdac01" d="M 66.636719 227.84375 L 191 155.183594 L 286.570312 263.019531 C 280.835938 268.464844 272.734375 271.265625 264.332031 269.917969 L 85.621094 241.335938 C 77.21875 239.992188 70.390625 234.800781 66.636719 227.84375 " fill-opacity="1" fill-rule="nonzero"/><path fill="#ffd54f" d="M 310.058594 115.765625 L 185.695312 188.425781 L 90.125 80.589844 C 95.859375 75.144531 103.960938 72.34375 112.363281 73.691406 L 291.074219 102.273438 C 299.472656 103.617188 306.304688 108.808594 310.058594 115.765625 " fill-opacity="1" fill-rule="nonzero"/><g clip-path="url(#496387388c)"><path fill="#f5554a" d="M 345.480469 96.761719 C 345.480469 68.433594 322.550781 45.46875 294.261719 45.46875 C 265.972656 45.46875 243.035156 68.433594 243.035156 96.761719 C 243.035156 125.089844 265.972656 148.054688 294.261719 148.054688 C 322.550781 148.054688 345.480469 125.089844 345.480469 96.761719 " fill-opacity="1" fill-rule="nonzero"/></g><path fill="#ffffff" d="M 291.417969 87.847656 C 290.601562 88.589844 289.714844 89.171875 288.753906 89.589844 C 287.789062 90.011719 286.65625 90.222656 285.34375 90.222656 C 284.605469 90.222656 283.921875 90.082031 283.289062 89.796875 C 282.660156 89.511719 282.125 89.128906 281.679688 88.648438 C 281.238281 88.164062 280.886719 87.617188 280.625 87 C 280.367188 86.378906 280.238281 85.722656 280.238281 85.035156 C 280.238281 84.339844 280.351562 83.742188 280.570312 83.234375 C 280.792969 82.726562 281.101562 82.289062 281.496094 81.917969 C 281.886719 81.546875 282.347656 81.214844 282.863281 80.917969 C 283.382812 80.621094 283.9375 80.3125 284.53125 79.992188 C 285.765625 79.175781 286.871094 78.347656 287.847656 77.507812 C 288.820312 76.667969 289.691406 75.878906 290.457031 75.152344 C 291.21875 74.421875 291.886719 73.800781 292.457031 73.28125 C 293.023438 72.761719 293.515625 72.402344 293.9375 72.203125 C 294.183594 72.082031 294.410156 71.976562 294.621094 71.890625 C 294.832031 71.804688 295.046875 71.742188 295.265625 71.707031 C 295.492188 71.667969 295.738281 71.644531 296.007812 71.628906 C 296.28125 71.617188 296.625 71.613281 297.042969 71.613281 C 298.328125 71.613281 299.347656 71.871094 300.101562 72.386719 C 300.851562 72.90625 301.417969 73.582031 301.800781 74.410156 C 302.1875 75.238281 302.425781 76.171875 302.523438 77.210938 C 302.625 78.25 302.671875 79.300781 302.671875 80.359375 L 302.671875 114.765625 C 302.671875 115.851562 302.625 116.921875 302.523438 117.972656 C 302.425781 119.023438 302.1875 119.957031 301.800781 120.773438 C 301.417969 121.589844 300.851562 122.25 300.101562 122.753906 C 299.347656 123.261719 298.328125 123.515625 297.042969 123.515625 C 295.738281 123.515625 294.714844 123.261719 293.972656 122.753906 C 293.234375 122.25 292.671875 121.589844 292.289062 120.773438 C 291.902344 119.957031 291.664062 119.023438 291.566406 117.972656 C 291.464844 116.921875 291.417969 115.851562 291.417969 114.765625 L 291.417969 87.847656 " fill-opacity="1" fill-rule="nonzero"/><path fill="#59a52c" d="M 193.210938 94.988281 C 188.269531 97.773438 184.203125 101.511719 181.011719 106.203125 C 178.28125 110.222656 176.394531 114.742188 174.15625 119.054688 C 172.039062 123.121094 169.640625 127.019531 166.96875 130.742188 C 165.191406 133.421875 163.066406 135.792969 160.59375 137.847656 C 159.351562 138.875 157.96875 139.660156 156.453125 140.203125 C 154.9375 140.746094 153.371094 141.019531 151.757812 141.015625 C 154.59375 144.484375 155.769531 147.835938 160.101562 148.988281 C 164.082031 150.046875 170.265625 149.207031 173.980469 147.417969 C 177.695312 145.632812 181.605469 141.984375 182.214844 137.90625 Z M 193.210938 94.988281 " fill-opacity="1" fill-rule="nonzero"/><path fill="#2a2852" d="M 210.566406 85.375 C 214.1875 82.6875 217.542969 79.453125 219.476562 75.378906 C 221.410156 71.300781 221.722656 66.265625 219.441406 62.375 C 218.152344 60.246094 216.386719 58.636719 214.148438 57.542969 C 210.757812 55.839844 206.773438 55.75 203.058594 56.53125 C 200.992188 56.941406 199.058594 57.699219 197.261719 58.796875 C 195.464844 59.898438 193.914062 61.273438 192.605469 62.925781 C 190.828125 65.179688 190.359375 66.792969 190.09375 69.648438 C 189.757812 73.273438 191.464844 76.722656 192.808594 79.257812 Z M 210.566406 85.375 " fill-opacity="1" fill-rule="nonzero"/><g clip-path="url(#9b827cc5df)"><path fill="#e05e55" d="M 259.554688 319.164062 C 258.855469 320.386719 257.972656 321.539062 257.234375 322.691406 C 256.074219 324.496094 251.425781 330.816406 254.589844 332.59375 C 256.300781 333.558594 259.433594 332.304688 261.132812 331.707031 C 263.515625 330.871094 265.671875 329.636719 267.59375 328 C 269.550781 326.300781 271.152344 324.320312 272.398438 322.050781 C 273.648438 319.785156 274.46875 317.371094 274.859375 314.8125 C 275.066406 313.769531 275.054688 312.730469 274.824219 311.691406 C 274.320312 309.863281 272.617188 309.113281 270.960938 308.566406 C 268.371094 307.710938 265.621094 307.074219 263.472656 305.394531 C 262.917969 306.121094 262.257812 306.726562 261.488281 307.21875 C 260.71875 307.710938 259.886719 308.054688 258.996094 308.25 C 259.890625 309.460938 260.476562 310.808594 260.753906 312.289062 C 261.035156 313.769531 260.980469 315.234375 260.59375 316.691406 C 260.363281 317.5625 260.015625 318.390625 259.554688 319.164062 Z M 259.554688 319.164062 " fill-opacity="1" fill-rule="nonzero"/></g><path fill="#e05e55" d="M 204.605469 329.847656 C 203.832031 327.453125 202.183594 324.945312 203.207031 322.480469 L 188.214844 322.863281 C 187.933594 322.871094 186.242188 326.285156 185.804688 326.796875 C 184.328125 328.519531 182.53125 329.234375 180.527344 330.207031 C 178.269531 331.296875 176.023438 332.40625 173.78125 333.53125 C 173.339844 333.726562 172.9375 333.984375 172.582031 334.3125 C 172.203125 334.664062 172.050781 335.097656 172.125 335.609375 C 172.519531 337.460938 176.753906 336.921875 178.042969 336.914062 C 184.488281 336.890625 190.9375 336.863281 197.378906 336.617188 C 199.4375 336.535156 201.644531 336.378906 203.25 335.085938 C 205.28125 333.449219 205.199219 331.679688 204.605469 329.847656 Z M 204.605469 329.847656 " fill-opacity="1" fill-rule="nonzero"/><path fill="#2a2852" d="M 184.019531 161.921875 C 175.832031 214.402344 156.183594 260.207031 186.691406 324.261719 C 194.582031 325.289062 195.390625 325.476562 203.386719 325.191406 C 203.121094 279.726562 204.148438 266.5625 205.125 222.257812 C 206.011719 232.644531 211.457031 256.367188 218.332031 272.105469 C 219.289062 274.300781 222.234375 281.945312 226.730469 286.953125 C 234.417969 295.507812 245.871094 307.320312 256.453125 312.613281 C 257.9375 313.441406 259.511719 314.003906 261.183594 314.308594 C 263.484375 314.511719 265.664062 314.089844 267.722656 313.039062 C 268.265625 312.789062 268.753906 312.457031 269.1875 312.042969 C 269.617188 311.628906 269.972656 311.15625 270.242188 310.621094 C 270.511719 310.085938 270.6875 309.523438 270.769531 308.929688 C 270.847656 308.335938 270.828125 307.746094 270.707031 307.160156 C 268.589844 296.632812 263.757812 286.753906 258.621094 277.273438 C 255.109375 270.792969 245.382812 250.792969 243.910156 247.375 C 241.113281 240.894531 237.867188 217.867188 236.574219 206.78125 C 233.902344 183.890625 233.3125 160.246094 227.335938 137.882812 C 226.246094 133.589844 224.769531 129.4375 222.902344 125.425781 Z M 184.019531 161.921875 " fill-opacity="1" fill-rule="nonzero"/><path fill="#ffcebe" d="M 217.84375 95.699219 C 212.90625 91.75 210.597656 90.003906 211.648438 81.132812 L 200.253906 82.230469 C 200.195312 85.546875 198.699219 89.683594 196.253906 92.003906 C 195.371094 92.835938 194.472656 93.628906 193.574219 94.417969 C 195.488281 100.996094 200.046875 107.023438 204.160156 112.503906 C 209.035156 107.402344 212.242188 100.613281 217.84375 95.699219 Z M 217.84375 95.699219 " fill-opacity="1" fill-rule="nonzero"/><path fill="#2a2852" d="M 209.925781 86.9375 C 209.320312 85.574219 208.933594 84.144531 208.769531 82.660156 L 200.253906 82.230469 C 200.195312 85.546875 198.699219 89.683594 196.253906 92.003906 C 195.371094 92.835938 194.472656 93.628906 193.574219 94.417969 C 193.589844 94.472656 193.609375 94.523438 193.625 94.578125 C 197.363281 91.839844 201.339844 92.285156 205.429688 90.335938 C 207.085938 89.476562 209.148438 88.132812 209.925781 86.9375 Z M 209.925781 86.9375 " fill-opacity="1" fill-rule="nonzero"/><path fill="#ff7130" d="M 232.46875 151.222656 C 231.957031 148.144531 231.242188 145.0625 230.617188 141.96875 C 229.980469 139.03125 229.550781 136.0625 229.332031 133.0625 C 228.960938 126.785156 229.859375 120.527344 230.066406 114.265625 C 230.242188 111.777344 230.027344 109.324219 229.421875 106.902344 C 227.34375 99.804688 220.140625 95.527344 214.007812 92.304688 C 213.585938 96.199219 207.296875 100.546875 202.949219 100.082031 C 198.785156 99.636719 196.253906 96.816406 194.363281 93.722656 C 192.652344 94.839844 191.015625 96.054688 189.453125 97.367188 C 188.3125 98.464844 188.566406 99.199219 187.390625 100.746094 C 184.597656 104.417969 180.371094 115.710938 181.039062 120.269531 C 178.183594 136.675781 178.203125 154.316406 176.898438 171.386719 C 196.53125 173.0625 207.878906 174.898438 233.027344 172.304688 C 232.410156 164.296875 233.792969 159.148438 232.46875 151.222656 Z M 232.46875 151.222656 " fill-opacity="1" fill-rule="nonzero"/><path fill="#59a52c" d="M 192.03125 95.335938 C 190.574219 96.414062 189.453125 97.367188 189.453125 97.367188 C 188.3125 98.464844 188.566406 99.199219 187.390625 100.746094 C 184.597656 104.417969 180.371094 115.710938 181.039062 120.269531 C 177.132812 142.707031 162.851562 206.148438 158.941406 228.585938 C 167.917969 232.53125 183.5 234 189.289062 233.808594 C 185.445312 202.628906 189.984375 126.25 192.03125 95.335938 Z M 192.03125 95.335938 " fill-opacity="1" fill-rule="nonzero"/><path fill="#59a52c" d="M 237.796875 152.933594 C 237.285156 149.855469 231.242188 145.894531 230.617188 142.804688 C 229.980469 139.863281 229.550781 136.894531 229.332031 133.894531 C 228.960938 127.621094 229.859375 121.363281 230.066406 115.097656 C 230.242188 112.609375 230.027344 110.15625 229.421875 107.738281 C 227.867188 102.421875 224.859375 98.3125 218.484375 94.808594 C 217.84375 127.117188 219.113281 202 224.121094 233.359375 C 230.746094 233.824219 250.8125 230.765625 260.238281 224.835938 C 252.566406 207.3125 239.925781 165.679688 237.796875 152.933594 Z M 237.796875 152.933594 " fill-opacity="1" fill-rule="nonzero"/><path fill="#ffcebe" d="M 199.773438 61.230469 L 205.574219 61.230469 C 206.128906 61.230469 206.675781 61.285156 207.21875 61.390625 C 207.761719 61.5 208.289062 61.660156 208.800781 61.871094 C 209.3125 62.082031 209.796875 62.34375 210.257812 62.652344 C 210.71875 62.957031 211.144531 63.308594 211.535156 63.699219 C 211.929688 64.089844 212.277344 64.515625 212.585938 64.976562 C 212.894531 65.4375 213.152344 65.921875 213.363281 66.433594 C 213.574219 66.945312 213.734375 67.472656 213.84375 68.015625 C 213.953125 68.558594 214.007812 69.109375 214.007812 69.660156 L 214.007812 78.054688 C 214.007812 78.804688 213.933594 79.546875 213.785156 80.28125 C 213.640625 81.019531 213.421875 81.734375 213.136719 82.425781 C 212.851562 83.117188 212.496094 83.777344 212.082031 84.398438 C 211.664062 85.023438 211.191406 85.601562 210.660156 86.132812 C 210.128906 86.660156 209.554688 87.132812 208.929688 87.550781 C 208.304688 87.96875 207.648438 88.320312 206.957031 88.605469 C 206.261719 88.894531 205.546875 89.109375 204.8125 89.257812 C 204.078125 89.402344 203.335938 89.476562 202.585938 89.476562 C 201.835938 89.476562 201.09375 89.402344 200.355469 89.257812 C 199.621094 89.109375 198.90625 88.894531 198.214844 88.605469 C 197.519531 88.320312 196.863281 87.96875 196.238281 87.550781 C 195.617188 87.132812 195.039062 86.660156 194.507812 86.132812 C 193.976562 85.601562 193.503906 85.023438 193.089844 84.398438 C 192.671875 83.777344 192.320312 83.117188 192.03125 82.425781 C 191.746094 81.734375 191.53125 81.019531 191.382812 80.28125 C 191.238281 79.546875 191.164062 78.804688 191.164062 78.054688 L 191.164062 69.839844 C 191.164062 69.277344 191.21875 68.714844 191.328125 68.160156 C 191.4375 67.605469 191.601562 67.066406 191.820312 66.546875 C 192.035156 66.023438 192.300781 65.527344 192.613281 65.058594 C 192.929688 64.585938 193.285156 64.152344 193.6875 63.753906 C 194.085938 63.351562 194.519531 62.996094 194.992188 62.679688 C 195.460938 62.367188 195.957031 62.101562 196.480469 61.886719 C 197 61.667969 197.539062 61.503906 198.09375 61.394531 C 198.648438 61.285156 199.210938 61.230469 199.773438 61.230469 Z M 199.773438 61.230469 " fill-opacity="1" fill-rule="nonzero"/><path fill="#2a2852" d="M 202.585938 89.582031 C 201.828125 89.582031 201.078125 89.503906 200.335938 89.359375 C 199.59375 89.210938 198.875 88.992188 198.175781 88.699219 C 197.476562 88.410156 196.8125 88.054688 196.183594 87.632812 C 195.554688 87.214844 194.972656 86.738281 194.4375 86.203125 C 193.902344 85.667969 193.425781 85.085938 193.003906 84.457031 C 192.585938 83.828125 192.230469 83.164062 191.9375 82.464844 C 191.648438 81.765625 191.429688 81.042969 191.28125 80.300781 C 191.132812 79.5625 191.058594 78.8125 191.058594 78.054688 L 191.058594 71.417969 C 191.058594 71.347656 191.09375 71.3125 191.164062 71.3125 C 191.234375 71.3125 191.269531 71.347656 191.269531 71.417969 L 191.269531 78.054688 C 191.269531 78.796875 191.34375 79.535156 191.488281 80.261719 C 191.632812 80.988281 191.847656 81.695312 192.132812 82.382812 C 192.417969 83.070312 192.765625 83.722656 193.179688 84.339844 C 193.59375 84.957031 194.0625 85.527344 194.585938 86.050781 C 195.113281 86.578125 195.683594 87.046875 196.300781 87.460938 C 196.917969 87.871094 197.570312 88.222656 198.257812 88.507812 C 198.941406 88.789062 199.648438 89.003906 200.378906 89.152344 C 201.105469 89.296875 201.84375 89.371094 202.585938 89.371094 C 203.121094 89.371094 203.652344 89.332031 204.183594 89.257812 C 204.253906 89.25 204.292969 89.277344 204.304688 89.347656 C 204.3125 89.417969 204.285156 89.457031 204.214844 89.46875 C 203.671875 89.542969 203.128906 89.582031 202.585938 89.582031 Z M 202.585938 89.582031 " fill-opacity="1" fill-rule="nonzero"/><path fill="#2a2852" d="M 210.597656 62.902344 C 209.109375 61.785156 207.433594 61.230469 205.574219 61.230469 L 199.773438 61.230469 C 199.210938 61.230469 198.648438 61.285156 198.09375 61.394531 C 197.539062 61.503906 197 61.667969 196.480469 61.886719 C 195.957031 62.101562 195.460938 62.367188 194.992188 62.679688 C 194.519531 62.996094 194.085938 63.351562 193.6875 63.753906 C 193.285156 64.152344 192.929688 64.585938 192.613281 65.058594 C 192.300781 65.527344 192.035156 66.023438 191.820312 66.546875 C 191.601562 67.066406 191.4375 67.605469 191.328125 68.160156 C 191.21875 68.714844 191.164062 69.277344 191.164062 69.839844 L 191.164062 75.65625 C 194.976562 74.570312 198.542969 72.941406 201.855469 70.765625 C 205.171875 68.589844 208.085938 65.96875 210.597656 62.902344 Z M 210.597656 62.902344 " fill-opacity="1" fill-rule="nonzero"/><path fill="#2a2852" d="M 205.1875 75.222656 C 204.941406 75.226562 204.722656 75.308594 204.535156 75.472656 C 204.347656 75.636719 204.234375 75.839844 204.199219 76.085938 L 206.179688 76.085938 C 206.144531 75.839844 206.03125 75.636719 205.84375 75.472656 C 205.65625 75.308594 205.4375 75.226562 205.1875 75.222656 Z M 205.1875 75.222656 " fill-opacity="1" fill-rule="nonzero"/><path fill="#2a2852" d="M 194.804688 75.222656 C 194.554688 75.226562 194.335938 75.308594 194.148438 75.472656 C 193.960938 75.636719 193.847656 75.839844 193.8125 76.085938 L 195.792969 76.085938 C 195.757812 75.839844 195.644531 75.636719 195.457031 75.472656 C 195.269531 75.308594 195.050781 75.226562 194.804688 75.222656 Z M 194.804688 75.222656 " fill-opacity="1" fill-rule="nonzero"/><path fill="#2a2852" d="M 207.308594 74.71875 C 207.273438 74.71875 207.246094 74.703125 207.222656 74.675781 C 207.023438 74.433594 206.785156 74.238281 206.507812 74.09375 C 206.230469 73.945312 205.9375 73.859375 205.625 73.832031 C 205.308594 73.804688 205.003906 73.839844 204.707031 73.9375 C 204.40625 74.035156 204.140625 74.183594 203.902344 74.390625 C 203.851562 74.441406 203.800781 74.4375 203.753906 74.386719 C 203.703125 74.335938 203.707031 74.285156 203.757812 74.238281 C 204.015625 74.011719 204.308594 73.847656 204.636719 73.738281 C 204.964844 73.632812 205.296875 73.59375 205.640625 73.621094 C 205.984375 73.652344 206.308594 73.746094 206.609375 73.910156 C 206.914062 74.070312 207.175781 74.285156 207.394531 74.550781 C 207.417969 74.585938 207.421875 74.621094 207.402344 74.660156 C 207.382812 74.699219 207.351562 74.71875 207.308594 74.71875 Z M 207.308594 74.71875 " fill-opacity="1" fill-rule="nonzero"/><path fill="#2a2852" d="M 198.566406 79.65625 C 198.554688 79.65625 198.539062 79.652344 198.523438 79.648438 C 198.171875 79.515625 197.851562 79.328125 197.558594 79.09375 C 197.230469 78.820312 197.082031 78.46875 197.117188 78.042969 C 197.195312 77.46875 197.753906 77.121094 198.292969 76.855469 C 198.355469 76.824219 198.402344 76.839844 198.433594 76.902344 C 198.464844 76.964844 198.449219 77.011719 198.386719 77.042969 C 197.871094 77.296875 197.390625 77.59375 197.324219 78.070312 C 197.300781 78.425781 197.425781 78.714844 197.703125 78.9375 C 197.976562 79.15625 198.277344 79.332031 198.609375 79.453125 C 198.660156 79.476562 198.683594 79.515625 198.671875 79.570312 C 198.660156 79.628906 198.625 79.65625 198.566406 79.65625 Z M 198.566406 79.65625 " fill-opacity="1" fill-rule="nonzero"/><path fill="#ff7130" d="M 197.492188 82.050781 C 197.691406 82.683594 198.046875 83.203125 198.566406 83.617188 C 199.082031 84.027344 199.671875 84.257812 200.332031 84.308594 C 200.988281 84.285156 201.585938 84.082031 202.113281 83.691406 C 202.644531 83.300781 203.019531 82.792969 203.238281 82.171875 C 202.335938 81.71875 201.382812 81.480469 200.378906 81.460938 C 199.371094 81.441406 198.410156 81.636719 197.492188 82.050781 Z M 197.492188 82.050781 " fill-opacity="1" fill-rule="nonzero"/><path fill="#2a2852" d="M 214.730469 64.886719 C 213.753906 61.667969 213.027344 58.394531 212.554688 55.0625 C 212.382812 54.03125 212.421875 53.007812 212.683594 51.996094 C 212.816406 51.488281 213.074219 51.046875 213.445312 50.675781 C 213.816406 50.300781 214.257812 50.046875 214.765625 49.910156 C 215.015625 49.855469 215.269531 49.855469 215.523438 49.90625 C 215.773438 49.960938 216.007812 50.058594 216.21875 50.207031 C 216.429688 50.351562 216.605469 50.535156 216.742188 50.753906 C 216.878906 50.972656 216.964844 51.207031 217.003906 51.464844 C 217.457031 49.453125 218.230469 47.574219 219.320312 45.828125 C 219.882812 44.953125 220.617188 44.261719 221.523438 43.757812 C 222.433594 43.253906 223.410156 42.996094 224.449219 42.984375 C 226.484375 43.101562 228.414062 45.015625 228.058594 47.027344 C 228.261719 46.730469 228.507812 46.476562 228.792969 46.257812 C 229.078125 46.042969 229.394531 45.875 229.734375 45.757812 C 230.074219 45.644531 230.421875 45.582031 230.78125 45.582031 C 231.140625 45.578125 231.492188 45.628906 231.835938 45.738281 C 232.175781 45.847656 232.492188 46.011719 232.785156 46.222656 C 233.074219 46.433594 233.324219 46.683594 233.535156 46.976562 C 233.742188 47.269531 233.902344 47.585938 234.007812 47.929688 C 234.117188 48.273438 234.167969 48.621094 234.160156 48.980469 C 234.148438 49.339844 234.078125 49.6875 233.957031 50.023438 C 233.835938 50.359375 233.667969 50.667969 233.449219 50.953125 C 233.230469 51.234375 232.976562 51.480469 232.683594 51.683594 C 232.390625 51.886719 232.070312 52.042969 231.730469 52.144531 C 232.574219 52.175781 233.371094 52.382812 234.125 52.769531 C 234.5 52.976562 234.773438 53.273438 234.953125 53.664062 C 235.128906 54.054688 235.167969 54.460938 235.074219 54.878906 C 234.582031 56.335938 232.164062 56.21875 231.523438 57.621094 C 231.832031 57.585938 232.136719 57.609375 232.433594 57.691406 C 232.734375 57.769531 233.011719 57.898438 233.261719 58.082031 C 233.511719 58.261719 233.722656 58.480469 233.894531 58.742188 C 234.0625 59 234.183594 59.28125 234.25 59.582031 C 234.296875 59.890625 234.300781 60.195312 234.253906 60.503906 C 234.207031 60.8125 234.117188 61.105469 233.980469 61.382812 C 233.84375 61.660156 233.667969 61.914062 233.453125 62.136719 C 233.238281 62.359375 232.996094 62.546875 232.722656 62.695312 C 232.160156 62.980469 231.566406 63.113281 230.933594 63.097656 C 230.304688 63.078125 229.71875 62.910156 229.171875 62.59375 C 229.839844 62.367188 230.535156 63.132812 230.421875 63.828125 C 230.332031 64.179688 230.152344 64.472656 229.882812 64.714844 C 229.613281 64.953125 229.296875 65.101562 228.941406 65.152344 C 228.234375 65.238281 227.535156 65.199219 226.84375 65.035156 C 226.144531 64.871094 225.445312 64.878906 224.75 65.0625 C 224.898438 65.199219 225.011719 65.359375 225.097656 65.539062 C 225.183594 65.71875 225.234375 65.910156 225.25 66.109375 C 225.261719 66.308594 225.238281 66.503906 225.179688 66.691406 C 225.121094 66.882812 225.027344 67.054688 224.902344 67.210938 C 224.636719 67.515625 224.3125 67.746094 223.9375 67.898438 C 223.5625 68.050781 223.171875 68.113281 222.769531 68.082031 C 221.96875 68.015625 221.195312 67.828125 220.457031 67.515625 L 220.769531 68.300781 C 218.316406 69.445312 216.816406 66.617188 214.730469 64.886719 Z M 214.730469 64.886719 " fill-opacity="1" fill-rule="nonzero"/><path fill="#2a2852" d="M 209.03125 62.097656 C 208.609375 67.503906 209.925781 73.332031 214.386719 76.613281 C 215.574219 73.601562 217.011719 69.84375 216.101562 66.738281 C 215.65625 65.160156 214.910156 63.742188 213.859375 62.480469 C 212.808594 61.21875 211.546875 60.230469 210.074219 59.507812 Z M 209.03125 62.097656 " fill-opacity="1" fill-rule="nonzero"/><path fill="#ffcebe" d="M 215.734375 76.085938 C 215.734375 76.316406 215.691406 76.535156 215.605469 76.746094 C 215.515625 76.960938 215.390625 77.148438 215.230469 77.308594 C 215.066406 77.472656 214.878906 77.597656 214.667969 77.683594 C 214.457031 77.769531 214.234375 77.816406 214.007812 77.816406 C 213.777344 77.816406 213.554688 77.769531 213.34375 77.683594 C 213.132812 77.597656 212.945312 77.472656 212.785156 77.308594 C 212.621094 77.148438 212.496094 76.960938 212.410156 76.746094 C 212.320312 76.535156 212.277344 76.316406 212.277344 76.085938 C 212.277344 75.855469 212.320312 75.636719 212.410156 75.425781 C 212.496094 75.214844 212.621094 75.027344 212.785156 74.863281 C 212.945312 74.703125 213.132812 74.578125 213.34375 74.488281 C 213.554688 74.402344 213.777344 74.359375 214.007812 74.359375 C 214.234375 74.359375 214.457031 74.402344 214.667969 74.488281 C 214.878906 74.578125 215.066406 74.703125 215.230469 74.863281 C 215.390625 75.027344 215.515625 75.214844 215.605469 75.425781 C 215.691406 75.636719 215.734375 75.855469 215.734375 76.085938 Z M 215.734375 76.085938 " fill-opacity="1" fill-rule="nonzero"/><path fill="#ff7130" d="M 215.164062 78.84375 C 215.164062 79.023438 215.128906 79.195312 215.0625 79.363281 C 214.992188 79.527344 214.894531 79.675781 214.769531 79.800781 C 214.640625 79.929688 214.496094 80.027344 214.328125 80.09375 C 214.164062 80.164062 213.992188 80.199219 213.8125 80.199219 C 213.632812 80.199219 213.457031 80.164062 213.292969 80.09375 C 213.128906 80.027344 212.980469 79.929688 212.855469 79.800781 C 212.726562 79.675781 212.628906 79.527344 212.5625 79.363281 C 212.492188 79.195312 212.457031 79.023438 212.457031 78.84375 C 212.457031 78.664062 212.492188 78.492188 212.5625 78.328125 C 212.628906 78.160156 212.726562 78.015625 212.855469 77.886719 C 212.980469 77.761719 213.128906 77.664062 213.292969 77.59375 C 213.457031 77.527344 213.632812 77.492188 213.8125 77.492188 C 213.992188 77.492188 214.164062 77.527344 214.328125 77.59375 C 214.496094 77.664062 214.640625 77.761719 214.769531 77.886719 C 214.894531 78.015625 214.992188 78.160156 215.0625 78.328125 C 215.128906 78.492188 215.164062 78.664062 215.164062 78.84375 Z M 215.164062 78.84375 " fill-opacity="1" fill-rule="nonzero"/><path fill="#ffcebe" d="M 212.710938 141.109375 C 212.34375 140.1875 211.894531 139.304688 211.367188 138.464844 C 210.609375 137.511719 209.757812 136.652344 208.804688 135.890625 C 207.027344 134.292969 205.027344 133.070312 202.796875 132.214844 C 200.566406 131.359375 198.257812 130.929688 195.871094 130.925781 C 195.675781 130.914062 195.496094 130.960938 195.335938 131.070312 C 195.175781 131.175781 195.0625 131.324219 195.003906 131.507812 C 194.941406 131.695312 194.945312 131.878906 195.007812 132.0625 C 195.074219 132.246094 195.191406 132.386719 195.355469 132.492188 L 202.242188 135.738281 C 198.972656 134.195312 196.125 133.328125 192.277344 134.527344 C 192.101562 134.578125 191.957031 134.679688 191.847656 134.824219 C 191.738281 134.96875 191.679688 135.132812 191.675781 135.3125 C 191.671875 135.496094 191.71875 135.664062 191.824219 135.8125 C 191.925781 135.964844 192.066406 136.070312 192.238281 136.128906 C 194.894531 136.921875 197.328125 138.15625 199.535156 139.835938 C 197.210938 138.40625 194.417969 137.3125 191.761719 137.890625 C 191.578125 137.933594 191.429688 138.027344 191.308594 138.167969 C 191.191406 138.3125 191.125 138.476562 191.113281 138.660156 C 191.101562 138.847656 191.148438 139.015625 191.25 139.171875 C 191.351562 139.328125 191.488281 139.4375 191.664062 139.503906 C 193.535156 140.3125 195.289062 141.324219 196.929688 142.535156 C 195.730469 142.117188 194.492188 141.925781 193.222656 141.960938 C 193.027344 141.980469 192.859375 142.058594 192.71875 142.195312 C 192.578125 142.332031 192.492188 142.496094 192.46875 142.691406 C 192.441406 142.886719 192.480469 143.070312 192.582031 143.238281 C 192.683594 143.40625 192.824219 143.527344 193.007812 143.59375 C 197.242188 145.488281 200.910156 148.15625 204.023438 151.597656 C 205.066406 152.890625 206.347656 153.875 207.871094 154.546875 C 209.550781 155.25 211.296875 155.683594 213.113281 155.84375 C 214.160156 155.9375 215.207031 155.933594 216.253906 155.835938 C 216.695312 155.832031 217.097656 155.703125 217.460938 155.457031 C 217.875 155.019531 218.089844 154.496094 218.105469 153.894531 C 218.449219 151.519531 218.792969 149.144531 219.136719 146.765625 C 214.300781 145.988281 213.230469 142.144531 212.710938 141.109375 Z M 212.710938 141.109375 " fill-opacity="1" fill-rule="nonzero"/><path fill="#2a2852" d="M 196.570312 145.476562 C 196.550781 145.476562 196.53125 145.472656 196.515625 145.460938 C 195.382812 144.773438 194.199219 144.183594 192.96875 143.695312 C 192.757812 143.613281 192.597656 143.476562 192.484375 143.28125 C 192.371094 143.085938 192.332031 142.875 192.367188 142.652344 C 192.394531 142.433594 192.488281 142.25 192.648438 142.101562 C 192.808594 141.949219 192.996094 141.871094 193.214844 141.855469 C 194.257812 141.816406 195.28125 141.945312 196.285156 142.238281 C 196.089844 142.109375 195.902344 141.984375 195.714844 141.863281 C 194.441406 140.945312 193.078125 140.191406 191.625 139.601562 C 191.425781 139.527344 191.265625 139.398438 191.152344 139.21875 C 191.039062 139.035156 190.992188 138.839844 191.011719 138.625 C 191.023438 138.421875 191.097656 138.238281 191.230469 138.082031 C 191.367188 137.929688 191.535156 137.828125 191.738281 137.789062 C 192.796875 137.609375 193.851562 137.609375 194.910156 137.785156 C 195.96875 137.960938 196.96875 138.308594 197.910156 138.820312 C 196.117188 137.714844 194.214844 136.851562 192.203125 136.230469 C 192.007812 136.160156 191.855469 136.042969 191.738281 135.871094 C 191.621094 135.703125 191.566406 135.515625 191.570312 135.3125 C 191.574219 135.105469 191.640625 134.921875 191.765625 134.757812 C 191.886719 134.597656 192.050781 134.484375 192.246094 134.425781 C 194.523438 133.660156 196.808594 133.644531 199.101562 134.371094 L 195.308594 132.585938 C 195.125 132.488281 194.996094 132.339844 194.914062 132.148438 C 194.832031 131.957031 194.820312 131.761719 194.875 131.558594 C 194.941406 131.339844 195.0625 131.160156 195.246094 131.023438 C 195.433594 130.886719 195.636719 130.820312 195.867188 130.820312 C 195.941406 130.820312 196.015625 130.820312 196.085938 130.820312 C 198.453125 130.84375 200.734375 131.289062 202.9375 132.148438 C 205.140625 133.007812 207.121094 134.230469 208.878906 135.8125 C 209.832031 136.582031 210.691406 137.445312 211.453125 138.402344 C 211.84375 138.972656 212.167969 139.578125 212.421875 140.222656 C 212.550781 140.515625 212.671875 140.792969 212.804688 141.0625 C 212.863281 141.179688 212.929688 141.335938 213.007812 141.515625 C 213.269531 142.160156 213.582031 142.773438 213.953125 143.359375 C 213.992188 143.421875 213.980469 143.46875 213.921875 143.507812 C 213.863281 143.542969 213.8125 143.535156 213.777344 143.476562 C 213.398438 142.878906 213.078125 142.253906 212.816406 141.601562 C 212.738281 141.421875 212.675781 141.269531 212.617188 141.15625 C 212.480469 140.882812 212.351562 140.589844 212.230469 140.308594 C 211.980469 139.679688 211.667969 139.085938 211.285156 138.527344 C 210.53125 137.582031 209.679688 136.730469 208.738281 135.972656 C 207 134.402344 205.042969 133.195312 202.863281 132.34375 C 200.683594 131.492188 198.425781 131.054688 196.085938 131.03125 C 196.015625 131.03125 195.941406 131.03125 195.871094 131.03125 C 195.6875 131.027344 195.523438 131.082031 195.375 131.191406 C 195.230469 131.296875 195.132812 131.441406 195.078125 131.613281 C 195.035156 131.769531 195.046875 131.917969 195.109375 132.066406 C 195.167969 132.214844 195.269531 132.324219 195.410156 132.402344 L 202.285156 135.640625 C 202.347656 135.671875 202.367188 135.71875 202.335938 135.78125 C 202.304688 135.84375 202.257812 135.859375 202.195312 135.832031 C 198.730469 134.199219 196 133.476562 192.308594 134.628906 C 192.15625 134.671875 192.03125 134.757812 191.933594 134.886719 C 191.835938 135.011719 191.785156 135.15625 191.78125 135.316406 C 191.777344 135.476562 191.820312 135.621094 191.910156 135.753906 C 192 135.886719 192.121094 135.976562 192.273438 136.03125 C 194.941406 136.824219 197.382812 138.0625 199.597656 139.75 C 199.652344 139.789062 199.660156 139.839844 199.621094 139.894531 C 199.582031 139.949219 199.535156 139.960938 199.480469 139.925781 C 196.605469 138.15625 194.015625 137.507812 191.785156 137.992188 C 191.625 138.023438 191.496094 138.101562 191.390625 138.222656 C 191.285156 138.34375 191.226562 138.480469 191.21875 138.640625 C 191.203125 138.808594 191.242188 138.964844 191.332031 139.105469 C 191.421875 139.246094 191.542969 139.347656 191.699219 139.40625 C 193.167969 140 194.546875 140.761719 195.832031 141.6875 C 196.195312 141.929688 196.574219 142.179688 196.988281 142.445312 C 197.039062 142.480469 197.050781 142.523438 197.023438 142.578125 C 197 142.632812 196.957031 142.652344 196.898438 142.632812 C 195.710938 142.226562 194.488281 142.035156 193.234375 142.066406 C 193.0625 142.074219 192.917969 142.140625 192.792969 142.257812 C 192.667969 142.371094 192.597656 142.515625 192.574219 142.683594 C 192.546875 142.859375 192.574219 143.023438 192.664062 143.175781 C 192.753906 143.328125 192.882812 143.4375 193.046875 143.496094 C 194.289062 143.992188 195.480469 144.589844 196.625 145.28125 C 196.667969 145.308594 196.683594 145.347656 196.671875 145.398438 C 196.65625 145.449219 196.621094 145.476562 196.570312 145.476562 Z M 196.570312 145.476562 " fill-opacity="1" fill-rule="nonzero"/><path fill="#59a52c" d="M 221.042969 96.707031 C 243.574219 111.980469 250.949219 129.582031 250.8125 149.09375 C 250.78125 153.628906 247.589844 166.511719 233.652344 165.078125 C 223.769531 164.058594 220.734375 164.941406 212.492188 159.402344 C 213.355469 158.40625 214.09375 157.328125 214.710938 156.164062 C 215.328125 155 215.804688 153.785156 216.140625 152.511719 C 216.480469 151.238281 216.671875 149.945312 216.710938 148.628906 C 216.753906 147.3125 216.648438 146.007812 216.390625 144.71875 C 223.503906 146.714844 222.4375 142.28125 226.828125 139.820312 C 230.878906 137.546875 227.933594 136.917969 228.5625 132.316406 C 229.191406 127.714844 228.394531 123.050781 227.597656 118.476562 Z M 221.042969 96.707031 " fill-opacity="1" fill-rule="nonzero"/><path fill="#2a2852" d="M 232.246094 165.933594 C 228.695312 165.875 225.230469 165.296875 221.851562 164.195312 C 218.476562 163.097656 215.332031 161.527344 212.425781 159.484375 C 212.363281 159.433594 212.359375 159.382812 212.417969 159.324219 C 217.925781 153.921875 216.304688 144.828125 216.289062 144.738281 C 216.28125 144.703125 216.289062 144.671875 216.3125 144.648438 C 216.335938 144.621094 216.367188 144.609375 216.402344 144.613281 C 219.585938 144.964844 222.871094 145.511719 226.050781 146.039062 C 229.226562 146.566406 232.511719 147.113281 235.6875 147.464844 C 237.199219 147.5625 238.671875 147.859375 240.101562 148.355469 C 240.828125 148.613281 241.480469 149 242.050781 149.519531 C 242.621094 150.039062 243.070312 150.648438 243.398438 151.347656 C 243.425781 151.414062 243.40625 151.457031 243.339844 151.484375 C 243.273438 151.511719 243.226562 151.492188 243.203125 151.425781 C 242.886719 150.753906 242.453125 150.167969 241.902344 149.667969 C 241.351562 149.171875 240.726562 148.796875 240.023438 148.550781 C 238.609375 148.0625 237.15625 147.769531 235.664062 147.671875 C 232.484375 147.324219 229.195312 146.777344 226.015625 146.246094 C 222.886719 145.726562 219.652344 145.1875 216.515625 144.839844 C 216.699219 146.011719 217.765625 154.269531 212.652344 159.390625 C 213.640625 160.117188 222.109375 166.101562 233.289062 165.703125 C 233.339844 165.691406 233.394531 165.75 233.398438 165.804688 C 233.398438 165.875 233.363281 165.914062 233.296875 165.914062 C 232.945312 165.925781 232.59375 165.933594 232.246094 165.933594 Z M 232.246094 165.933594 " fill-opacity="1" fill-rule="nonzero"/><path fill="#2a2852" d="M 233.292969 147.257812 C 233.222656 147.257812 233.1875 147.222656 233.1875 147.152344 C 233.167969 144.511719 232.78125 141.925781 232.023438 139.394531 C 231.261719 136.863281 230.164062 134.492188 228.722656 132.277344 C 228.683594 132.21875 228.695312 132.167969 228.753906 132.132812 C 228.8125 132.09375 228.859375 132.101562 228.898438 132.160156 C 230.351562 134.394531 231.457031 136.785156 232.222656 139.335938 C 232.988281 141.882812 233.378906 144.488281 233.398438 147.152344 C 233.398438 147.222656 233.363281 147.257812 233.292969 147.257812 Z M 233.292969 147.257812 " fill-opacity="1" fill-rule="nonzero"/><path fill="#ffcebe" d="M 158.652344 111.691406 C 158.574219 112.109375 158.449219 112.527344 158.328125 112.953125 C 157.757812 114.964844 156.890625 116.839844 155.726562 118.582031 C 157.960938 119.648438 160.296875 120.40625 162.730469 120.851562 C 162.753906 120.855469 164.039062 117.886719 164.179688 117.617188 C 164.730469 116.535156 165.347656 115.492188 166.035156 114.492188 C 166.257812 114.1875 166.539062 113.945312 166.871094 113.765625 C 167.359375 113.417969 167.8125 113.03125 168.238281 112.609375 C 169.019531 111.980469 169.699219 111.257812 170.28125 110.441406 C 171.117188 109.121094 169.46875 109.105469 169.273438 107.554688 C 169.242188 107.136719 169.113281 106.753906 168.894531 106.398438 C 168.542969 105.96875 168.117188 105.648438 167.609375 105.429688 C 166.21875 104.65625 164.777344 103.976562 163.296875 103.394531 C 162.21875 102.996094 159.667969 100.441406 158.9375 101.449219 C 157.640625 103.230469 158.074219 106.699219 158.191406 107.660156 C 158.296875 108.515625 158.515625 109.355469 158.679688 110.203125 C 158.769531 110.699219 158.757812 111.199219 158.652344 111.691406 Z M 158.652344 111.691406 " fill-opacity="1" fill-rule="nonzero"/><path fill="#ff7130" d="M 160.175781 103.578125 C 161.628906 101.890625 162.828125 100.039062 163.773438 98.023438 C 164.71875 96.007812 165.371094 93.898438 165.734375 91.703125 L 174.710938 93.902344 C 174.160156 96.808594 173.242188 99.589844 171.957031 102.253906 C 170.675781 104.917969 169.066406 107.367188 167.136719 109.609375 C 166.941406 109.835938 166.722656 110.042969 166.484375 110.230469 C 166.246094 110.414062 165.992188 110.574219 165.71875 110.710938 C 165.449219 110.847656 165.167969 110.953125 164.878906 111.035156 C 164.585938 111.113281 164.289062 111.164062 163.988281 111.1875 C 163.6875 111.207031 163.386719 111.199219 163.085938 111.164062 C 162.785156 111.125 162.492188 111.058594 162.203125 110.964844 C 161.917969 110.867188 161.644531 110.746094 161.378906 110.59375 C 161.117188 110.445312 160.871094 110.273438 160.644531 110.074219 C 160.414062 109.875 160.207031 109.65625 160.023438 109.417969 C 159.835938 109.179688 159.675781 108.925781 159.539062 108.65625 C 159.40625 108.386719 159.296875 108.105469 159.21875 107.8125 C 159.136719 107.519531 159.085938 107.226562 159.066406 106.921875 C 159.042969 106.621094 159.050781 106.320312 159.089844 106.019531 C 159.125 105.722656 159.191406 105.425781 159.289062 105.140625 C 159.382812 104.851562 159.507812 104.578125 159.65625 104.316406 C 159.804688 104.054688 159.980469 103.808594 160.175781 103.578125 Z M 160.175781 103.578125 " fill-opacity="1" fill-rule="nonzero"/><path fill="#ff7130" d="M 165.511719 87.734375 C 165.515625 87.386719 165.550781 87.042969 165.621094 86.703125 C 165.691406 86.363281 165.792969 86.035156 165.925781 85.714844 C 166.0625 85.398438 166.226562 85.09375 166.421875 84.808594 C 166.617188 84.519531 166.839844 84.253906 167.085938 84.011719 C 167.332031 83.769531 167.601562 83.554688 167.894531 83.363281 C 168.183594 83.175781 168.488281 83.015625 168.8125 82.886719 C 169.132812 82.757812 169.464844 82.660156 169.804688 82.597656 C 170.144531 82.535156 170.488281 82.503906 170.835938 82.507812 C 173.785156 82.507812 177.070312 84.703125 177.082031 87.59375 L 175.609375 94.910156 C 175.582031 95.046875 175.503906 95.148438 175.382812 95.21875 C 175.257812 95.289062 175.128906 95.296875 174.996094 95.25 L 165.15625 91.839844 Z M 165.511719 87.734375 " fill-opacity="1" fill-rule="nonzero"/><path fill="#59a52c" d="M 179.421875 77.398438 C 179.769531 77.457031 180.109375 77.550781 180.441406 77.675781 C 180.773438 77.800781 181.089844 77.957031 181.390625 78.140625 C 181.691406 78.328125 181.972656 78.539062 182.230469 78.78125 C 182.492188 79.019531 182.726562 79.28125 182.9375 79.566406 C 183.148438 79.851562 183.328125 80.152344 183.480469 80.472656 C 183.632812 80.792969 183.753906 81.121094 183.84375 81.464844 C 183.929688 81.808594 183.984375 82.15625 184.007812 82.507812 C 184.03125 82.863281 184.019531 83.214844 183.972656 83.566406 C 183.929688 83.914062 183.847656 84.257812 183.738281 84.59375 C 183.628906 84.929688 183.484375 85.253906 183.3125 85.5625 C 183.140625 85.871094 182.9375 86.160156 182.710938 86.429688 C 182.480469 86.699219 182.230469 86.945312 181.953125 87.167969 C 181.679688 87.390625 181.382812 87.582031 181.070312 87.75 C 180.757812 87.914062 180.433594 88.046875 180.09375 88.152344 C 179.757812 88.253906 179.410156 88.324219 179.058594 88.359375 C 178.707031 88.398438 178.355469 88.402344 178.003906 88.371094 C 177.945312 88.363281 177.890625 88.363281 177.832031 88.359375 L 179.253906 77.367188 C 179.3125 77.375 179.363281 77.386719 179.421875 77.398438 Z M 179.421875 77.398438 " fill-opacity="1" fill-rule="nonzero"/><path fill="#e05e55" d="M 175.054688 74.824219 L 173.125 89.75 C 142.765625 88.082031 126.191406 101.597656 126.191406 101.597656 L 132.683594 51.417969 C 132.683594 51.417969 145.273438 68.707031 175.054688 74.824219 Z M 175.054688 74.824219 " fill-opacity="1" fill-rule="nonzero"/><path fill="#59a52c" d="M 175.054688 74.824219 C 175.933594 75.003906 177.949219 75.320312 179.484375 75.5625 C 179.683594 75.59375 179.867188 75.660156 180.035156 75.765625 C 180.207031 75.867188 180.351562 76 180.46875 76.160156 C 180.589844 76.316406 180.675781 76.492188 180.726562 76.6875 C 180.777344 76.878906 180.789062 77.074219 180.761719 77.269531 L 179.265625 88.832031 C 179.242188 89.03125 179.179688 89.214844 179.082031 89.390625 C 178.984375 89.5625 178.855469 89.710938 178.699219 89.835938 C 178.546875 89.960938 178.371094 90.050781 178.179688 90.105469 C 177.988281 90.160156 177.796875 90.179688 177.597656 90.160156 C 176.050781 90.003906 174.019531 89.796875 173.125 89.75 Z M 175.054688 74.824219 " fill-opacity="1" fill-rule="nonzero"/><path fill="#2a2852" d="M 126.289062 102.152344 C 126.230469 102.152344 126.175781 102.148438 126.121094 102.140625 C 122.582031 101.683594 123.28125 86.1875 124.613281 75.886719 C 125.914062 65.828125 129.109375 50.867188 132.585938 50.867188 C 132.640625 50.867188 132.695312 50.871094 132.753906 50.878906 C 136.132812 51.3125 135.355469 65.183594 135.035156 69.421875 C 134.84375 71.976562 134.578125 74.570312 134.246094 77.128906 C 134.136719 77.988281 134.015625 78.835938 133.898438 79.671875 C 132.671875 88.019531 129.6875 102.152344 126.289062 102.152344 Z M 126.289062 102.152344 " fill-opacity="1" fill-rule="nonzero"/><path fill="#59a52c" d="M 132.585938 51.414062 C 132.617188 51.414062 132.648438 51.414062 132.683594 51.417969 C 134.589844 51.664062 135.257812 59.199219 134.488281 69.382812 C 134.308594 71.804688 134.050781 74.394531 133.707031 77.0625 C 133.59375 77.917969 133.476562 78.761719 133.355469 79.59375 C 131.527344 92.050781 128.5 101.605469 126.289062 101.605469 C 126.253906 101.605469 126.222656 101.601562 126.191406 101.597656 C 123.828125 101.292969 123.363281 89.816406 125.15625 75.953125 C 126.921875 62.28125 130.226562 51.414062 132.585938 51.414062 M 132.585938 50.320312 C 127.515625 50.320312 124.410156 73.203125 124.070312 75.816406 C 123.238281 81.816406 122.886719 87.847656 123.023438 93.902344 C 123.324219 101.375 124.796875 102.519531 126.050781 102.683594 C 126.128906 102.691406 126.207031 102.695312 126.289062 102.695312 C 127.429688 102.695312 128.996094 101.890625 131.007812 95.605469 C 132.558594 90.410156 133.703125 85.125 134.4375 79.753906 C 134.558594 78.910156 134.679688 78.0625 134.789062 77.203125 C 135.121094 74.628906 135.386719 72.027344 135.578125 69.464844 C 135.964844 65.167969 135.996094 60.871094 135.675781 56.570312 C 135.277344 52.460938 134.398438 50.539062 132.820312 50.335938 C 132.742188 50.324219 132.664062 50.320312 132.585938 50.320312 Z M 132.585938 50.320312 " fill-opacity="1" fill-rule="nonzero"/><path fill="#e05e55" d="M 129.984375 72.261719 L 128.898438 80.65625 L 129.074219 80.824219 L 132.847656 83.015625 C 132.984375 82.039062 133.183594 81.082031 133.316406 80.078125 C 133.71875 76.949219 134.070312 73.914062 134.304688 71.074219 Z M 129.984375 72.261719 " fill-opacity="1" fill-rule="nonzero"/><path fill="#ff7130" d="M 129.980469 72.257812 C 130.046875 72.265625 130.097656 72.382812 130.132812 72.601562 C 130.167969 72.824219 130.183594 73.136719 130.179688 73.535156 C 130.175781 73.933594 130.152344 74.394531 130.113281 74.910156 C 130.070312 75.429688 130.015625 75.964844 129.945312 76.523438 C 129.871094 77.078125 129.789062 77.613281 129.695312 78.125 C 129.605469 78.636719 129.507812 79.085938 129.410156 79.472656 C 129.3125 79.859375 129.21875 80.15625 129.128906 80.359375 C 129.039062 80.566406 128.960938 80.664062 128.894531 80.65625 C 128.824219 80.644531 128.773438 80.53125 128.742188 80.308594 C 128.707031 80.089844 128.691406 79.777344 128.695312 79.378906 C 128.699219 78.980469 128.71875 78.519531 128.761719 78.003906 C 128.800781 77.484375 128.859375 76.949219 128.929688 76.390625 C 129 75.835938 129.082031 75.300781 129.175781 74.789062 C 129.269531 74.277344 129.363281 73.828125 129.460938 73.441406 C 129.558594 73.054688 129.65625 72.757812 129.746094 72.554688 C 129.832031 72.347656 129.914062 72.25 129.980469 72.257812 Z M 129.980469 72.257812 " fill-opacity="1" fill-rule="nonzero"/><path fill="#2a2852" d="M 165.660156 91.90625 L 165.816406 91.5 L 175.078125 95.046875 L 174.917969 95.457031 Z M 165.660156 91.90625 " fill-opacity="1" fill-rule="nonzero"/><path fill="#2a2852" d="M 179.289062 86.929688 L 180.558594 78.421875 L 180.992188 78.488281 L 179.722656 86.992188 Z M 179.289062 86.929688 " fill-opacity="1" fill-rule="nonzero"/><path fill="#ffcebe" d="M 171.515625 108.464844 C 171.53125 108.421875 171.546875 108.378906 171.5625 108.332031 C 172.042969 106.917969 171.5 105.867188 170.730469 104.636719 C 170.296875 103.730469 169.730469 102.917969 169.023438 102.199219 C 167.96875 101.386719 167.460938 103.539062 167.484375 104.367188 C 167.511719 105.183594 167.835938 105.851562 168.457031 106.378906 C 167.652344 106.484375 166.9375 106.796875 166.3125 107.316406 C 165.84375 107.847656 165.488281 108.449219 165.242188 109.117188 C 165.0625 109.441406 164.976562 109.792969 164.984375 110.164062 C 164.988281 110.535156 165.085938 110.878906 165.277344 111.199219 C 165.664062 111.757812 165.972656 113.863281 166.640625 113.734375 C 169.339844 113.21875 170.855469 110.289062 171.515625 108.464844 Z M 171.515625 108.464844 " fill-opacity="1" fill-rule="nonzero"/><path fill="#2a2852" d="M 165.277344 111.304688 C 165.242188 111.304688 165.210938 111.289062 165.191406 111.261719 C 164.828125 110.367188 164.847656 109.484375 165.246094 108.605469 C 165.511719 107.992188 165.910156 107.480469 166.441406 107.074219 C 166.972656 106.667969 167.566406 106.414062 168.230469 106.316406 C 167.6875 105.78125 167.402344 105.132812 167.378906 104.371094 C 167.359375 103.710938 167.65625 102.304688 168.289062 101.984375 C 168.585938 101.847656 168.851562 101.890625 169.085938 102.117188 C 169.660156 102.636719 170.117188 103.25 170.449219 103.949219 C 170.574219 104.171875 170.695312 104.386719 170.820312 104.582031 C 171.601562 105.832031 172.160156 106.902344 171.664062 108.367188 C 171.648438 108.414062 171.632812 108.457031 171.617188 108.5 C 171.589844 108.566406 171.546875 108.589844 171.480469 108.566406 C 171.414062 108.542969 171.394531 108.496094 171.417969 108.429688 L 171.464844 108.300781 C 171.929688 106.921875 171.390625 105.894531 170.640625 104.695312 C 170.515625 104.496094 170.390625 104.277344 170.265625 104.054688 C 169.945312 103.378906 169.507812 102.789062 168.960938 102.285156 C 168.792969 102.117188 168.601562 102.078125 168.386719 102.171875 C 167.863281 102.4375 167.570312 103.742188 167.589844 104.367188 C 167.613281 105.148438 167.925781 105.792969 168.523438 106.296875 C 168.558594 106.328125 168.570312 106.363281 168.558594 106.40625 C 168.546875 106.449219 168.519531 106.476562 168.472656 106.484375 C 167.808594 106.550781 167.203125 106.78125 166.660156 107.175781 C 166.117188 107.570312 165.710938 108.074219 165.4375 108.6875 C 165.074219 109.496094 165.050781 110.3125 165.363281 111.140625 C 165.386719 111.175781 165.390625 111.210938 165.371094 111.25 C 165.351562 111.285156 165.320312 111.304688 165.277344 111.304688 Z M 165.277344 111.304688 " fill-opacity="1" fill-rule="nonzero"/><path fill="#ffcebe" d="M 158.605469 102.261719 C 159.175781 100.511719 160.171875 99.050781 161.585938 97.875 C 162.296875 97.300781 163.101562 96.9375 164.003906 96.792969 C 164.910156 96.648438 165.789062 96.734375 166.644531 97.058594 C 167.128906 97.273438 167.632812 97.832031 167.324219 98.265625 C 167.214844 98.398438 167.082031 98.492188 166.921875 98.550781 C 165.777344 99.078125 164.574219 99.34375 163.3125 99.34375 C 164.023438 99.503906 164.90625 99.855469 164.90625 100.585938 C 164.886719 100.816406 164.804688 101.015625 164.660156 101.195312 C 164.515625 101.371094 164.332031 101.492188 164.113281 101.558594 C 163.675781 101.679688 163.234375 101.707031 162.785156 101.644531 C 163.019531 101.652344 163.214844 101.742188 163.375 101.914062 C 163.535156 102.085938 163.609375 102.289062 163.597656 102.523438 C 163.546875 103.011719 163.308594 103.367188 162.875 103.597656 C 162.46875 103.804688 162.042969 103.941406 161.59375 104.003906 C 161.792969 104.148438 161.917969 104.335938 161.96875 104.578125 C 162.019531 104.816406 161.984375 105.039062 161.863281 105.25 C 161.601562 105.671875 161.226562 105.9375 160.746094 106.046875 C 160.507812 106.125 160.265625 106.164062 160.015625 106.160156 C 159.761719 106.15625 159.523438 106.109375 159.289062 106.023438 C 159.054688 105.933594 158.839844 105.8125 158.648438 105.648438 C 158.457031 105.488281 158.296875 105.300781 158.171875 105.085938 C 157.804688 104.269531 158.324219 103.027344 158.605469 102.261719 Z M 158.605469 102.261719 " fill-opacity="1" fill-rule="nonzero"/><path fill="#2a2852" d="M 160.0625 106.246094 C 159.621094 106.25 159.207031 106.144531 158.824219 105.933594 C 158.761719 105.898438 158.75 105.851562 158.785156 105.789062 C 158.816406 105.726562 158.867188 105.714844 158.925781 105.75 C 159.496094 106.058594 160.09375 106.125 160.714844 105.945312 C 161.167969 105.84375 161.519531 105.59375 161.773438 105.203125 C 161.878906 105.015625 161.914062 104.816406 161.867188 104.605469 C 161.824219 104.394531 161.714844 104.222656 161.542969 104.097656 C 161.5 104.074219 161.480469 104.035156 161.488281 103.988281 C 161.496094 103.941406 161.523438 103.910156 161.574219 103.902344 C 162.011719 103.839844 162.425781 103.707031 162.820312 103.507812 C 163.21875 103.296875 163.441406 102.96875 163.492188 102.519531 C 163.496094 102.289062 163.410156 102.089844 163.246094 101.929688 C 163.160156 101.84375 163.058594 101.789062 162.945312 101.761719 C 162.886719 101.757812 162.832031 101.753906 162.777344 101.75 C 162.710938 101.742188 162.679688 101.707031 162.679688 101.644531 C 162.679688 101.578125 162.710938 101.542969 162.777344 101.539062 C 162.84375 101.535156 162.910156 101.539062 162.972656 101.550781 C 163.347656 101.59375 163.714844 101.566406 164.078125 101.460938 C 164.277344 101.402344 164.441406 101.292969 164.574219 101.132812 C 164.703125 100.976562 164.78125 100.792969 164.800781 100.585938 C 164.800781 99.886719 163.851562 99.574219 163.289062 99.445312 C 163.226562 99.433594 163.199219 99.394531 163.207031 99.332031 C 163.210938 99.269531 163.246094 99.238281 163.308594 99.238281 C 164.558594 99.238281 165.746094 98.976562 166.878906 98.457031 C 167.019531 98.402344 167.140625 98.320312 167.238281 98.207031 C 167.316406 98.097656 167.335938 97.980469 167.296875 97.851562 C 167.160156 97.523438 166.929688 97.289062 166.601562 97.152344 C 165.761719 96.835938 164.902344 96.75 164.015625 96.894531 C 163.132812 97.039062 162.34375 97.394531 161.648438 97.957031 C 160.59375 98.800781 159.789062 99.835938 159.230469 101.066406 C 159.199219 101.128906 159.152344 101.144531 159.089844 101.113281 C 159.023438 101.085938 159.007812 101.039062 159.039062 100.972656 C 159.613281 99.714844 160.441406 98.652344 161.519531 97.789062 C 162.246094 97.203125 163.070312 96.835938 163.992188 96.6875 C 164.914062 96.539062 165.8125 96.628906 166.6875 96.960938 C 167.074219 97.125 167.347656 97.402344 167.5 97.796875 C 167.558594 97.988281 167.527344 98.164062 167.410156 98.328125 C 167.292969 98.472656 167.144531 98.578125 166.96875 98.644531 C 166.011719 99.085938 165.007812 99.34375 163.957031 99.425781 C 164.519531 99.640625 165.011719 99.996094 165.011719 100.585938 C 164.992188 100.835938 164.902344 101.058594 164.746094 101.253906 C 164.585938 101.449219 164.386719 101.585938 164.148438 101.65625 C 163.902344 101.738281 163.648438 101.777344 163.386719 101.777344 L 163.390625 101.777344 C 163.605469 101.980469 163.707031 102.230469 163.703125 102.527344 C 163.652344 103.054688 163.394531 103.441406 162.925781 103.6875 C 162.582031 103.875 162.21875 104 161.835938 104.0625 C 161.976562 104.238281 162.0625 104.4375 162.082031 104.664062 C 162.105469 104.890625 162.0625 105.101562 161.957031 105.300781 C 161.679688 105.746094 161.285156 106.027344 160.773438 106.148438 C 160.539062 106.214844 160.304688 106.246094 160.0625 106.246094 Z M 160.0625 106.246094 " fill-opacity="1" fill-rule="nonzero"/><path fill="#2a2852" d="M 163.839844 119.078125 L 163.824219 119.078125 C 163.753906 119.066406 163.722656 119.027344 163.734375 118.957031 C 163.929688 117.925781 164.289062 116.960938 164.816406 116.054688 C 165.34375 115.148438 166.007812 114.359375 166.808594 113.683594 C 167.941406 113.171875 168.914062 112.449219 169.726562 111.511719 C 170.539062 110.570312 171.117188 109.503906 171.460938 108.3125 C 171.472656 108.242188 171.515625 108.214844 171.585938 108.230469 C 171.652344 108.246094 171.679688 108.289062 171.664062 108.355469 C 171.316406 109.578125 170.730469 110.671875 169.898438 111.632812 C 169.070312 112.597656 168.074219 113.339844 166.917969 113.863281 C 166.140625 114.523438 165.5 115.292969 164.988281 116.171875 C 164.480469 117.050781 164.128906 117.992188 163.941406 118.988281 C 163.933594 119.050781 163.898438 119.078125 163.839844 119.078125 Z M 163.839844 119.078125 " fill-opacity="1" fill-rule="nonzero"/><path fill="#59a52c" d="M 148.539062 129.804688 C 147.578125 136.246094 148.136719 141.820312 151.757812 145.316406 C 156.234375 149.632812 164.386719 151.191406 172.027344 148.199219 C 177.816406 145.933594 178.761719 136.097656 180.648438 130.171875 C 182.535156 124.25 182.75 117.929688 182.660156 111.714844 C 180.503906 119.433594 176.625 125.507812 169.894531 129.867188 L 169.15625 117.210938 C 162 117.253906 159.667969 116.414062 153.289062 114.617188 C 152.566406 116.546875 149.054688 126.332031 148.539062 129.804688 Z M 148.539062 129.804688 " fill-opacity="1" fill-rule="nonzero"/><path fill="#2a2852" d="M 167.984375 141.851562 C 167.964844 141.851562 167.949219 141.847656 167.933594 141.839844 C 167.871094 141.800781 167.859375 141.753906 167.894531 141.695312 C 171.292969 135.90625 169.074219 117.40625 169.050781 117.222656 C 169.042969 117.152344 169.070312 117.113281 169.140625 117.105469 C 169.210938 117.09375 169.25 117.125 169.257812 117.195312 C 169.28125 117.382812 171.507812 135.953125 168.078125 141.800781 C 168.054688 141.835938 168.027344 141.851562 167.984375 141.851562 Z M 167.984375 141.851562 " fill-opacity="1" fill-rule="nonzero"/><g clip-path="url(#74bce042ef)"><path fill="#2a2852" d="M 126.664062 49.339844 C 126.558594 49.339844 126.492188 49.289062 126.460938 49.183594 L 124.230469 41.265625 C 124.191406 41.132812 124.242188 41.046875 124.375 41.007812 C 124.511719 40.972656 124.597656 41.019531 124.636719 41.152344 L 126.867188 49.070312 C 126.886719 49.136719 126.875 49.199219 126.832031 49.253906 C 126.789062 49.3125 126.734375 49.339844 126.664062 49.339844 Z M 126.664062 49.339844 " fill-opacity="1" fill-rule="nonzero"/></g><path fill="#2a2852" d="M 118.105469 63.34375 C 118.054688 63.34375 118.011719 63.328125 117.972656 63.296875 L 107.886719 55.339844 C 107.773438 55.253906 107.761719 55.15625 107.851562 55.042969 C 107.9375 54.929688 108.039062 54.921875 108.148438 55.011719 L 118.234375 62.964844 C 118.3125 63.027344 118.335938 63.105469 118.304688 63.199219 C 118.269531 63.292969 118.203125 63.34375 118.105469 63.34375 Z M 118.105469 63.34375 " fill-opacity="1" fill-rule="nonzero"/><g clip-path="url(#af9a4465df)"><path fill="#2a2852" d="M 112.96875 78.070312 L 112.960938 78.070312 L 100.125 77.5625 C 99.984375 77.558594 99.917969 77.484375 99.921875 77.34375 C 99.933594 77.210938 100.003906 77.144531 100.140625 77.140625 L 112.976562 77.648438 C 113.113281 77.65625 113.183594 77.726562 113.179688 77.863281 C 113.175781 78.003906 113.105469 78.070312 112.96875 78.070312 Z M 112.96875 78.070312 " fill-opacity="1" fill-rule="nonzero"/></g><path fill="#2a2852" d="M 106.789062 100.140625 C 106.683594 100.140625 106.617188 100.089844 106.585938 99.992188 C 106.554688 99.890625 106.585938 99.8125 106.671875 99.753906 L 117.355469 92.621094 C 117.472656 92.542969 117.570312 92.5625 117.644531 92.679688 C 117.722656 92.796875 117.703125 92.894531 117.589844 92.972656 L 106.90625 100.105469 C 106.871094 100.128906 106.832031 100.140625 106.789062 100.140625 Z M 106.789062 100.140625 " fill-opacity="1" fill-rule="nonzero"/><path fill="#2a2852" d="M 122.609375 113.734375 C 122.582031 113.734375 122.558594 113.730469 122.535156 113.71875 C 122.402344 113.671875 122.363281 113.582031 122.410156 113.449219 L 124.816406 106.941406 C 124.863281 106.808594 124.953125 106.769531 125.085938 106.816406 C 125.214844 106.863281 125.257812 106.953125 125.210938 107.085938 L 122.804688 113.59375 C 122.773438 113.6875 122.707031 113.734375 122.609375 113.734375 Z M 122.609375 113.734375 " fill-opacity="1" fill-rule="nonzero"/></svg>