<svg xmlns="http://www.w3.org/2000/svg" xmlns:xlink="http://www.w3.org/1999/xlink" width="500" zoomAndPan="magnify" viewBox="0 0 375 374.999991" height="500" preserveAspectRatio="xMidYMid meet" version="1.0"><defs><clipPath id="f9cff9fa74"><path d="M 307 237 L 344 237 L 344 304.847656 L 307 304.847656 Z M 307 237 " clip-rule="nonzero"/></clipPath><clipPath id="017b2d09b1"><path d="M 38 24.347656 L 93 24.347656 L 93 78 L 38 78 Z M 38 24.347656 " clip-rule="nonzero"/></clipPath><clipPath id="fae98cc920"><path d="M 243 45 L 345.75 45 L 345.75 149 L 243 149 Z M 243 45 " clip-rule="nonzero"/></clipPath><clipPath id="92f2331f23"><path d="M 253 305 L 275.347656 305 L 275.347656 333 L 253 333 Z M 253 305 " clip-rule="nonzero"/></clipPath><clipPath id="048c48dffe"><path d="M 124 41 L 127 41 L 127 50 L 124 50 Z M 124 41 " clip-rule="nonzero"/></clipPath><clipPath id="cc7ec91237"><path d="M 99.847656 77 L 114 77 L 114 79 L 99.847656 79 Z M 99.847656 77 " clip-rule="nonzero"/></clipPath></defs><rect x="-37.5" width="450" fill="#ffffff" y="-37.499999" height="449.999989" fill-opacity="1"/><rect x="-37.5" width="450" fill="#ffffff" y="-37.499999" height="449.999989" fill-opacity="1"/><g clip-path="url(#f9cff9fa74)"><path fill="#dfeef7" d="M 342.429688 242.238281 C 345.714844 266.378906 334.976562 289.695312 315.9375 303.167969 C 313.585938 304.832031 310.300781 304.054688 308.839844 301.570312 L 308.457031 300.917969 C 307.144531 298.675781 307.792969 295.832031 309.90625 294.328125 C 325.652344 283.136719 334.542969 263.832031 331.871094 243.804688 C 331.527344 241.234375 333.175781 238.828125 335.703125 238.265625 L 336.429688 238.105469 C 339.246094 237.484375 342.042969 239.378906 342.429688 242.238281 " fill-opacity="1" fill-rule="nonzero"/></g><path fill="#dfeef7" d="M 321.527344 247.195312 C 322.785156 261.773438 316.453125 275.679688 305.398438 284.375 C 303 286.261719 299.5 285.679688 297.953125 283.050781 L 297.589844 282.433594 C 296.296875 280.238281 296.921875 277.488281 298.917969 275.902344 C 307.148438 269.351562 311.84375 258.972656 310.886719 248.066406 C 310.671875 245.617188 312.414062 243.417969 314.808594 242.890625 L 315.488281 242.738281 C 318.429688 242.089844 321.269531 244.1875 321.527344 247.195312 " fill-opacity="1" fill-rule="nonzero"/><g clip-path="url(#017b2d09b1)"><path fill="#dfeef7" d="M 38.222656 70.753906 C 44.617188 47.246094 63.597656 29.984375 86.378906 25.03125 C 89.195312 24.417969 91.917969 26.417969 92.289062 29.273438 L 92.386719 30.023438 C 92.726562 32.601562 91.015625 34.964844 88.484375 35.523438 C 69.625 39.667969 53.90625 53.960938 48.558594 73.445312 C 47.871094 75.941406 45.414062 77.511719 42.871094 77.042969 L 42.136719 76.90625 C 39.304688 76.375 37.464844 73.539062 38.222656 70.753906 " fill-opacity="1" fill-rule="nonzero"/></g><path fill="#dfeef7" d="M 59.398438 74.367188 C 63.933594 60.453125 75.183594 50.132812 88.75 46.453125 C 91.695312 45.652344 94.6875 47.554688 95.089844 50.582031 L 95.183594 51.292969 C 95.515625 53.820312 93.867188 56.105469 91.414062 56.785156 C 81.277344 59.597656 72.910156 67.316406 69.535156 77.730469 C 68.777344 80.066406 66.316406 81.410156 63.90625 80.957031 L 63.222656 80.832031 C 60.261719 80.28125 58.464844 77.238281 59.398438 74.367188 " fill-opacity="1" fill-rule="nonzero"/><path fill="#fec108" d="M 312.894531 132.433594 L 294.449219 248.070312 C 292.160156 262.425781 278.679688 272.214844 264.332031 269.917969 L 85.621094 241.335938 C 71.273438 239.042969 61.507812 225.53125 63.800781 211.179688 L 82.246094 95.539062 C 83.195312 89.589844 86.066406 84.429688 90.125 80.589844 C 95.859375 75.144531 103.960938 72.34375 112.363281 73.691406 L 291.074219 102.273438 C 299.472656 103.617188 306.304688 108.808594 310.058594 115.765625 C 312.722656 120.679688 313.84375 126.480469 312.894531 132.433594 " fill-opacity="1" fill-rule="nonzero"/><path fill="#feb60a" d="M 90.125 80.589844 L 187.21875 207.089844 L 310.058594 115.765625 Z M 90.125 80.589844 " fill-opacity="1" fill-rule="nonzero"/><path fill="#fdac01" d="M 66.636719 227.84375 L 191 155.183594 L 286.570312 263.019531 C 280.835938 268.464844 272.734375 271.265625 264.332031 269.917969 L 85.621094 241.335938 C 77.21875 239.992188 70.390625 234.800781 66.636719 227.84375 " fill-opacity="1" fill-rule="nonzero"/><path fill="#ffd54f" d="M 310.058594 115.765625 L 185.695312 188.425781 L 90.125 80.589844 C 95.859375 75.144531 103.960938 72.34375 112.363281 73.691406 L 291.074219 102.273438 C 299.472656 103.617188 306.304688 108.808594 310.058594 115.765625 " fill-opacity="1" fill-rule="nonzero"/><g clip-path="url(#fae98cc920)"><path fill="#f5554a" d="M 345.480469 96.761719 C 345.480469 68.433594 322.550781 45.46875 294.261719 45.46875 C 265.972656 45.46875 243.035156 68.433594 243.035156 96.761719 C 243.035156 125.089844 265.972656 148.054688 294.261719 148.054688 C 322.550781 148.054688 345.480469 125.089844 345.480469 96.761719 " fill-opacity="1" fill-rule="nonzero"/></g><path fill="#ffffff" d="M 291.417969 87.847656 C 290.601562 88.589844 289.714844 89.171875 288.753906 89.589844 C 287.789062 90.011719 286.65625 90.222656 285.34375 90.222656 C 284.605469 90.222656 283.921875 90.082031 283.289062 89.796875 C 282.660156 89.511719 282.125 89.128906 281.679688 88.648438 C 281.238281 88.164062 280.886719 87.617188 280.625 87 C 280.367188 86.378906 280.238281 85.722656 280.238281 85.035156 C 280.238281 84.339844 280.351562 83.742188 280.570312 83.234375 C 280.792969 82.726562 281.101562 82.289062 281.496094 81.917969 C 281.886719 81.546875 282.347656 81.214844 282.863281 80.917969 C 283.382812 80.621094 283.9375 80.3125 284.53125 79.992188 C 285.765625 79.175781 286.871094 78.347656 287.847656 77.507812 C 288.820312 76.667969 289.691406 75.878906 290.457031 75.152344 C 291.21875 74.421875 291.886719 73.800781 292.457031 73.28125 C 293.023438 72.761719 293.515625 72.402344 293.9375 72.203125 C 294.183594 72.082031 294.410156 71.976562 294.621094 71.890625 C 294.832031 71.804688 295.046875 71.742188 295.265625 71.707031 C 295.492188 71.667969 295.738281 71.644531 296.007812 71.628906 C 296.28125 71.617188 296.625 71.613281 297.042969 71.613281 C 298.328125 71.613281 299.347656 71.871094 300.101562 72.386719 C 300.851562 72.90625 301.417969 73.582031 301.800781 74.410156 C 302.1875 75.238281 302.425781 76.171875 302.523438 77.210938 C 302.625 78.25 302.671875 79.300781 302.671875 80.359375 L 302.671875 114.765625 C 302.671875 115.851562 302.625 116.921875 302.523438 117.972656 C 302.425781 119.023438 302.1875 119.957031 301.800781 120.773438 C 301.417969 121.589844 300.851562 122.25 300.101562 122.753906 C 299.347656 123.261719 298.328125 123.515625 297.042969 123.515625 C 295.738281 123.515625 294.714844 123.261719 293.972656 122.753906 C 293.234375 122.25 292.671875 121.589844 292.289062 120.773438 C 291.902344 119.957031 291.664062 119.023438 291.566406 117.972656 C 291.464844 116.921875 291.417969 115.851562 291.417969 114.765625 L 291.417969 87.847656 " fill-opacity="1" fill-rule="nonzero"/><path fill="#67b3ba" d="M 193.320312 94.941406 C 188.371094 97.726562 184.296875 101.460938 181.101562 106.148438 C 178.371094 110.164062 176.480469 114.679688 174.242188 118.992188 C 172.121094 123.054688 169.71875 126.945312 167.046875 130.667969 C 165.265625 133.347656 163.136719 135.710938 160.664062 137.765625 C 159.417969 138.792969 158.035156 139.578125 156.519531 140.121094 C 155 140.664062 153.433594 140.933594 151.820312 140.933594 C 154.65625 144.398438 155.835938 147.75 160.167969 148.898438 C 164.15625 149.957031 170.34375 149.117188 174.066406 147.332031 C 177.785156 145.542969 181.699219 141.902344 182.308594 137.828125 Z M 193.320312 94.941406 " fill-opacity="1" fill-rule="nonzero"/><path fill="#2a2852" d="M 210.691406 85.339844 C 214.316406 82.652344 217.675781 79.421875 219.613281 75.347656 C 221.550781 71.277344 221.863281 66.246094 219.578125 62.359375 C 218.285156 60.230469 216.519531 58.621094 214.28125 57.53125 C 210.882812 55.828125 206.894531 55.738281 203.175781 56.519531 C 201.105469 56.929688 199.171875 57.683594 197.375 58.785156 C 195.574219 59.882812 194.019531 61.257812 192.710938 62.90625 C 190.933594 65.15625 190.464844 66.769531 190.199219 69.625 C 189.859375 73.25 191.566406 76.695312 192.914062 79.226562 Z M 210.691406 85.339844 " fill-opacity="1" fill-rule="nonzero"/><g clip-path="url(#92f2331f23)"><path fill="#e05e55" d="M 259.734375 318.933594 C 259.035156 320.15625 258.152344 321.304688 257.410156 322.457031 C 256.25 324.261719 251.597656 330.574219 254.765625 332.355469 C 256.476562 333.316406 259.617188 332.0625 261.316406 331.46875 C 263.703125 330.632812 265.859375 329.394531 267.785156 327.761719 C 269.742188 326.066406 271.347656 324.085938 272.597656 321.820312 C 273.847656 319.550781 274.667969 317.140625 275.058594 314.582031 C 275.265625 313.542969 275.253906 312.503906 275.023438 311.46875 C 274.519531 309.640625 272.816406 308.894531 271.15625 308.34375 C 268.5625 307.492188 265.808594 306.851562 263.660156 305.175781 C 263.105469 305.902344 262.441406 306.507812 261.671875 307 C 260.902344 307.488281 260.070312 307.832031 259.179688 308.027344 C 260.070312 309.238281 260.660156 310.585938 260.9375 312.0625 C 261.21875 313.542969 261.164062 315.007812 260.777344 316.460938 C 260.546875 317.335938 260.199219 318.160156 259.734375 318.933594 Z M 259.734375 318.933594 " fill-opacity="1" fill-rule="nonzero"/></g><path fill="#e05e55" d="M 204.726562 329.605469 C 203.949219 327.214844 202.296875 324.710938 203.324219 322.246094 L 188.316406 322.628906 C 188.035156 322.636719 186.339844 326.046875 185.902344 326.5625 C 184.425781 328.28125 182.628906 328.996094 180.621094 329.964844 C 178.359375 331.058594 176.109375 332.167969 173.863281 333.289062 C 173.421875 333.484375 173.023438 333.742188 172.664062 334.066406 C 172.285156 334.421875 172.132812 334.855469 172.207031 335.367188 C 172.601562 337.214844 176.839844 336.675781 178.132812 336.671875 C 184.585938 336.644531 191.042969 336.621094 197.492188 336.371094 C 199.550781 336.292969 201.761719 336.132812 203.367188 334.84375 C 205.398438 333.207031 205.320312 331.441406 204.726562 329.605469 Z M 204.726562 329.605469 " fill-opacity="1" fill-rule="nonzero"/><path fill="#2a2852" d="M 184.113281 161.824219 C 175.917969 214.257812 156.246094 260.027344 186.789062 324.027344 C 194.691406 325.054688 195.5 325.238281 203.503906 324.957031 C 203.238281 279.527344 204.265625 266.375 205.242188 222.109375 C 206.132812 232.488281 211.582031 256.1875 218.464844 271.914062 C 219.425781 274.105469 222.375 281.746094 226.875 286.746094 C 234.574219 295.296875 246.035156 307.097656 256.632812 312.386719 C 258.117188 313.214844 259.695312 313.777344 261.367188 314.082031 C 263.667969 314.285156 265.851562 313.863281 267.910156 312.8125 C 268.457031 312.5625 268.945312 312.234375 269.378906 311.820312 C 269.8125 311.40625 270.164062 310.929688 270.4375 310.398438 C 270.707031 309.863281 270.882812 309.300781 270.964844 308.707031 C 271.042969 308.113281 271.023438 307.523438 270.902344 306.9375 C 268.78125 296.421875 263.941406 286.550781 258.800781 277.078125 C 255.289062 270.601562 245.550781 250.617188 244.074219 247.203125 C 241.273438 240.726562 238.023438 217.722656 236.730469 206.644531 C 234.054688 183.769531 233.464844 160.148438 227.480469 137.800781 C 226.390625 133.515625 224.910156 129.363281 223.039062 125.355469 Z M 184.113281 161.824219 " fill-opacity="1" fill-rule="nonzero"/><path fill="#b5775b" d="M 217.976562 95.652344 C 213.035156 91.710938 210.722656 89.960938 211.777344 81.097656 L 200.367188 82.195312 C 200.308594 85.507812 198.808594 89.644531 196.363281 91.960938 C 195.480469 92.792969 194.578125 93.585938 193.679688 94.375 C 195.597656 100.949219 200.160156 106.96875 204.277344 112.441406 C 209.160156 107.347656 212.371094 100.566406 217.976562 95.652344 Z M 217.976562 95.652344 " fill-opacity="1" fill-rule="nonzero"/><path fill="#2a2852" d="M 210.050781 86.902344 C 209.445312 85.535156 209.058594 84.109375 208.890625 82.625 L 200.367188 82.195312 C 200.308594 85.507812 198.808594 89.644531 196.363281 91.960938 C 195.480469 92.792969 194.578125 93.585938 193.679688 94.375 C 193.695312 94.429688 193.714844 94.480469 193.730469 94.53125 C 197.472656 91.796875 201.457031 92.242188 205.550781 90.296875 C 207.210938 89.433594 209.273438 88.09375 210.050781 86.902344 Z M 210.050781 86.902344 " fill-opacity="1" fill-rule="nonzero"/><path fill="#ededed" d="M 232.621094 151.132812 C 232.105469 148.054688 231.390625 144.976562 230.765625 141.886719 C 230.128906 138.949219 229.699219 135.980469 229.480469 132.984375 C 229.109375 126.714844 230.003906 120.460938 230.214844 114.203125 C 230.390625 111.71875 230.175781 109.265625 229.570312 106.847656 C 227.488281 99.757812 220.277344 95.480469 214.136719 92.265625 C 213.714844 96.15625 207.421875 100.5 203.066406 100.035156 C 198.894531 99.589844 196.363281 96.769531 194.472656 93.679688 C 192.757812 94.792969 191.121094 96.007812 189.554688 97.320312 C 188.414062 98.417969 188.667969 99.152344 187.488281 100.699219 C 184.695312 104.363281 180.460938 115.648438 181.132812 120.207031 C 178.269531 136.597656 178.292969 154.222656 176.988281 171.28125 C 196.640625 172.953125 208 174.789062 233.179688 172.195312 C 232.558594 164.191406 233.945312 159.050781 232.621094 151.132812 Z M 232.621094 151.132812 " fill-opacity="1" fill-rule="nonzero"/><path fill="#67b3ba" d="M 192.136719 95.289062 C 190.675781 96.371094 189.554688 97.320312 189.554688 97.320312 C 188.414062 98.417969 188.667969 99.152344 187.488281 100.699219 C 184.695312 104.363281 180.460938 115.648438 181.132812 120.207031 C 177.21875 142.625 162.921875 206.011719 159.007812 228.429688 C 167.996094 232.371094 183.59375 233.839844 189.390625 233.648438 C 185.542969 202.492188 190.085938 126.179688 192.136719 95.289062 Z M 192.136719 95.289062 " fill-opacity="1" fill-rule="nonzero"/><path fill="#67b3ba" d="M 237.953125 152.839844 C 237.441406 149.761719 231.390625 145.808594 230.765625 142.71875 C 230.128906 139.78125 229.699219 136.816406 229.480469 133.816406 C 229.109375 127.546875 230.003906 121.292969 230.214844 115.035156 C 230.390625 112.550781 230.175781 110.097656 229.570312 107.683594 C 228.011719 102.371094 225.003906 98.265625 218.617188 94.765625 C 217.976562 127.046875 219.25 201.867188 224.261719 233.203125 C 230.894531 233.664062 250.984375 230.609375 260.417969 224.683594 C 252.738281 207.171875 240.085938 165.574219 237.953125 152.839844 Z M 237.953125 152.839844 " fill-opacity="1" fill-rule="nonzero"/><path fill="#b5775b" d="M 199.886719 61.214844 L 205.695312 61.214844 C 206.25 61.214844 206.796875 61.265625 207.339844 61.375 C 207.886719 61.484375 208.414062 61.644531 208.925781 61.855469 C 209.4375 62.066406 209.921875 62.324219 210.382812 62.632812 C 210.84375 62.941406 211.269531 63.289062 211.664062 63.679688 C 212.054688 64.070312 212.40625 64.496094 212.714844 64.957031 C 213.019531 65.417969 213.28125 65.902344 213.492188 66.414062 C 213.707031 66.925781 213.867188 67.453125 213.972656 67.996094 C 214.082031 68.535156 214.136719 69.085938 214.136719 69.636719 L 214.136719 78.023438 C 214.136719 78.773438 214.0625 79.515625 213.917969 80.25 C 213.769531 80.984375 213.550781 81.699219 213.265625 82.390625 C 212.976562 83.082031 212.625 83.742188 212.207031 84.363281 C 211.792969 84.988281 211.316406 85.5625 210.785156 86.09375 C 210.257812 86.625 209.679688 87.097656 209.054688 87.511719 C 208.429688 87.929688 207.769531 88.28125 207.078125 88.566406 C 206.382812 88.855469 205.667969 89.070312 204.933594 89.214844 C 204.195312 89.363281 203.453125 89.4375 202.703125 89.4375 C 201.949219 89.4375 201.207031 89.363281 200.472656 89.214844 C 199.734375 89.070312 199.019531 88.855469 198.324219 88.566406 C 197.632812 88.28125 196.972656 87.929688 196.347656 87.511719 C 195.726562 87.097656 195.148438 86.625 194.617188 86.09375 C 194.085938 85.5625 193.613281 84.988281 193.195312 84.363281 C 192.777344 83.742188 192.425781 83.082031 192.136719 82.390625 C 191.851562 81.699219 191.632812 80.984375 191.488281 80.25 C 191.339844 79.515625 191.265625 78.773438 191.265625 78.023438 L 191.265625 69.816406 C 191.265625 69.253906 191.324219 68.691406 191.433594 68.140625 C 191.542969 67.585938 191.707031 67.046875 191.921875 66.523438 C 192.140625 66.003906 192.40625 65.507812 192.71875 65.039062 C 193.035156 64.566406 193.390625 64.132812 193.792969 63.734375 C 194.191406 63.332031 194.628906 62.976562 195.097656 62.664062 C 195.570312 62.347656 196.066406 62.085938 196.589844 61.867188 C 197.113281 61.652344 197.652344 61.488281 198.207031 61.378906 C 198.761719 61.269531 199.324219 61.214844 199.886719 61.214844 Z M 199.886719 61.214844 " fill-opacity="1" fill-rule="nonzero"/><path fill="#2a2852" d="M 202.703125 89.539062 C 201.945312 89.539062 201.195312 89.464844 200.449219 89.316406 C 199.707031 89.167969 198.988281 88.949219 198.289062 88.660156 C 197.589844 88.371094 196.921875 88.015625 196.292969 87.597656 C 195.664062 87.175781 195.082031 86.699219 194.546875 86.164062 C 194.011719 85.628906 193.53125 85.046875 193.109375 84.417969 C 192.691406 83.789062 192.335938 83.128906 192.042969 82.429688 C 191.753906 81.730469 191.535156 81.011719 191.386719 80.269531 C 191.238281 79.527344 191.164062 78.78125 191.160156 78.023438 L 191.160156 71.394531 C 191.160156 71.324219 191.195312 71.289062 191.265625 71.289062 C 191.335938 71.289062 191.371094 71.324219 191.371094 71.394531 L 191.371094 78.023438 C 191.375 78.765625 191.445312 79.5 191.59375 80.230469 C 191.738281 80.957031 191.953125 81.664062 192.238281 82.347656 C 192.523438 83.035156 192.871094 83.6875 193.285156 84.300781 C 193.699219 84.917969 194.167969 85.492188 194.695312 86.015625 C 195.21875 86.539062 195.792969 87.007812 196.410156 87.421875 C 197.027344 87.832031 197.679688 88.183594 198.367188 88.464844 C 199.054688 88.75 199.761719 88.964844 200.492188 89.109375 C 201.222656 89.257812 201.957031 89.328125 202.703125 89.332031 C 203.238281 89.332031 203.773438 89.292969 204.304688 89.21875 C 204.371094 89.207031 204.414062 89.238281 204.421875 89.308594 C 204.433594 89.378906 204.402344 89.417969 204.332031 89.425781 C 203.792969 89.503906 203.246094 89.542969 202.703125 89.539062 Z M 202.703125 89.539062 " fill-opacity="1" fill-rule="nonzero"/><path fill="#2a2852" d="M 210.722656 62.882812 C 209.234375 61.769531 207.554688 61.214844 205.695312 61.214844 L 199.886719 61.214844 C 199.324219 61.214844 198.761719 61.269531 198.207031 61.378906 C 197.652344 61.488281 197.113281 61.652344 196.589844 61.867188 C 196.066406 62.085938 195.570312 62.347656 195.097656 62.664062 C 194.628906 62.976562 194.191406 63.332031 193.792969 63.734375 C 193.390625 64.132812 193.035156 64.566406 192.71875 65.039062 C 192.40625 65.507812 192.140625 66.003906 191.921875 66.523438 C 191.707031 67.046875 191.542969 67.585938 191.433594 68.140625 C 191.324219 68.691406 191.265625 69.253906 191.265625 69.816406 L 191.265625 75.625 C 195.085938 74.542969 198.652344 72.914062 201.972656 70.738281 C 205.289062 68.566406 208.207031 65.949219 210.722656 62.882812 Z M 210.722656 62.882812 " fill-opacity="1" fill-rule="nonzero"/><path fill="#2a2852" d="M 205.308594 75.195312 C 205.058594 75.195312 204.839844 75.28125 204.652344 75.441406 C 204.464844 75.605469 204.355469 75.8125 204.316406 76.058594 L 206.300781 76.058594 C 206.265625 75.8125 206.152344 75.605469 205.964844 75.441406 C 205.777344 75.28125 205.558594 75.195312 205.308594 75.195312 Z M 205.308594 75.195312 " fill-opacity="1" fill-rule="nonzero"/><path fill="#2a2852" d="M 194.910156 75.195312 C 194.660156 75.195312 194.445312 75.28125 194.253906 75.441406 C 194.066406 75.605469 193.957031 75.8125 193.921875 76.058594 L 195.902344 76.058594 C 195.867188 75.8125 195.753906 75.605469 195.566406 75.441406 C 195.378906 75.28125 195.160156 75.195312 194.910156 75.195312 Z M 194.910156 75.195312 " fill-opacity="1" fill-rule="nonzero"/><path fill="#2a2852" d="M 207.429688 74.691406 C 207.394531 74.691406 207.367188 74.675781 207.34375 74.648438 C 207.148438 74.40625 206.90625 74.210938 206.628906 74.066406 C 206.351562 73.917969 206.054688 73.832031 205.742188 73.804688 C 205.429688 73.777344 205.125 73.8125 204.824219 73.910156 C 204.527344 74.007812 204.257812 74.15625 204.019531 74.363281 C 203.96875 74.410156 203.917969 74.410156 203.871094 74.359375 C 203.824219 74.308594 203.824219 74.257812 203.875 74.210938 C 204.132812 73.984375 204.429688 73.820312 204.753906 73.710938 C 205.082031 73.605469 205.417969 73.566406 205.761719 73.597656 C 206.105469 73.625 206.429688 73.71875 206.734375 73.882812 C 207.035156 74.042969 207.296875 74.253906 207.515625 74.523438 C 207.539062 74.558594 207.542969 74.59375 207.523438 74.632812 C 207.503906 74.671875 207.472656 74.691406 207.429688 74.691406 Z M 207.429688 74.691406 " fill-opacity="1" fill-rule="nonzero"/><path fill="#2a2852" d="M 198.679688 79.625 C 198.664062 79.625 198.652344 79.621094 198.636719 79.617188 C 198.285156 79.484375 197.964844 79.296875 197.671875 79.0625 C 197.339844 78.789062 197.191406 78.4375 197.226562 78.011719 C 197.304688 77.4375 197.867188 77.089844 198.40625 76.824219 C 198.46875 76.792969 198.515625 76.808594 198.546875 76.875 C 198.578125 76.9375 198.5625 76.984375 198.496094 77.015625 C 197.984375 77.265625 197.5 77.5625 197.433594 78.039062 C 197.410156 78.394531 197.535156 78.683594 197.8125 78.90625 C 198.089844 79.125 198.390625 79.296875 198.722656 79.421875 C 198.773438 79.445312 198.792969 79.484375 198.78125 79.539062 C 198.769531 79.597656 198.738281 79.625 198.679688 79.625 Z M 198.679688 79.625 " fill-opacity="1" fill-rule="nonzero"/><path fill="#ededed" d="M 197.605469 82.019531 C 197.800781 82.648438 198.160156 83.167969 198.675781 83.582031 C 199.195312 83.992188 199.785156 84.222656 200.445312 84.273438 C 201.105469 84.25 201.699219 84.042969 202.230469 83.652344 C 202.761719 83.265625 203.136719 82.757812 203.355469 82.136719 C 202.453125 81.683594 201.5 81.449219 200.492188 81.425781 C 199.484375 81.40625 198.523438 81.601562 197.605469 82.019531 Z M 197.605469 82.019531 " fill-opacity="1" fill-rule="nonzero"/><path fill="#2a2852" d="M 214.863281 64.867188 C 213.882812 61.652344 213.15625 58.378906 212.683594 55.050781 C 212.507812 54.019531 212.550781 53 212.808594 51.984375 C 212.945312 51.476562 213.203125 51.039062 213.574219 50.667969 C 213.945312 50.292969 214.386719 50.039062 214.894531 49.902344 C 215.148438 49.851562 215.402344 49.847656 215.652344 49.902344 C 215.90625 49.953125 216.136719 50.050781 216.351562 50.199219 C 216.5625 50.34375 216.738281 50.527344 216.875 50.746094 C 217.011719 50.964844 217.097656 51.199219 217.136719 51.453125 C 217.589844 49.445312 218.363281 47.570312 219.457031 45.824219 C 220.019531 44.949219 220.753906 44.257812 221.664062 43.753906 C 222.574219 43.25 223.550781 42.992188 224.589844 42.984375 C 226.628906 43.097656 228.558594 45.015625 228.203125 47.023438 C 228.40625 46.726562 228.652344 46.472656 228.941406 46.253906 C 229.226562 46.039062 229.539062 45.871094 229.882812 45.753906 C 230.222656 45.640625 230.570312 45.578125 230.929688 45.578125 C 231.289062 45.574219 231.640625 45.625 231.984375 45.734375 C 232.328125 45.84375 232.644531 46.003906 232.933594 46.21875 C 233.226562 46.429688 233.476562 46.679688 233.683594 46.972656 C 233.894531 47.261719 234.054688 47.582031 234.160156 47.921875 C 234.269531 48.265625 234.320312 48.617188 234.3125 48.976562 C 234.300781 49.332031 234.234375 49.679688 234.109375 50.015625 C 233.988281 50.351562 233.820312 50.660156 233.601562 50.945312 C 233.382812 51.226562 233.128906 51.472656 232.832031 51.675781 C 232.539062 51.878906 232.222656 52.03125 231.878906 52.136719 C 232.726562 52.164062 233.523438 52.371094 234.277344 52.761719 C 234.652344 52.964844 234.929688 53.261719 235.105469 53.652344 C 235.28125 54.042969 235.320312 54.449219 235.226562 54.867188 C 234.734375 56.324219 232.3125 56.207031 231.671875 57.605469 C 231.980469 57.574219 232.285156 57.597656 232.585938 57.675781 C 232.886719 57.753906 233.160156 57.886719 233.414062 58.066406 C 233.664062 58.246094 233.875 58.46875 234.046875 58.726562 C 234.214844 58.984375 234.335938 59.265625 234.402344 59.570312 C 234.449219 59.875 234.453125 60.179688 234.40625 60.488281 C 234.363281 60.792969 234.269531 61.085938 234.132812 61.367188 C 233.996094 61.644531 233.820312 61.894531 233.605469 62.121094 C 233.390625 62.34375 233.148438 62.53125 232.875 62.679688 C 232.3125 62.960938 231.714844 63.09375 231.082031 63.078125 C 230.453125 63.058594 229.863281 62.894531 229.320312 62.578125 C 229.984375 62.347656 230.683594 63.117188 230.570312 63.808594 C 230.480469 64.160156 230.296875 64.453125 230.027344 64.695312 C 229.757812 64.933594 229.445312 65.082031 229.085938 65.132812 C 228.378906 65.21875 227.679688 65.179688 226.988281 65.015625 C 226.285156 64.851562 225.589844 64.859375 224.894531 65.042969 C 225.039062 65.179688 225.15625 65.339844 225.242188 65.519531 C 225.328125 65.699219 225.375 65.886719 225.390625 66.085938 C 225.40625 66.285156 225.382812 66.480469 225.320312 66.671875 C 225.261719 66.863281 225.171875 67.035156 225.046875 67.191406 C 224.777344 67.496094 224.457031 67.722656 224.078125 67.875 C 223.703125 68.027344 223.3125 68.089844 222.910156 68.058594 C 222.105469 67.992188 221.335938 67.804688 220.59375 67.496094 L 220.90625 68.277344 C 218.449219 69.421875 216.949219 66.59375 214.863281 64.867188 Z M 214.863281 64.867188 " fill-opacity="1" fill-rule="nonzero"/><path fill="#2a2852" d="M 209.15625 62.082031 C 208.730469 67.480469 210.050781 73.304688 214.515625 76.582031 C 215.703125 73.574219 217.148438 69.820312 216.234375 66.71875 C 215.789062 65.140625 215.039062 63.722656 213.988281 62.460938 C 212.9375 61.203125 211.671875 60.214844 210.199219 59.492188 Z M 209.15625 62.082031 " fill-opacity="1" fill-rule="nonzero"/><path fill="#b5775b" d="M 215.867188 76.058594 C 215.867188 76.285156 215.824219 76.507812 215.734375 76.71875 C 215.648438 76.929688 215.523438 77.117188 215.359375 77.277344 C 215.199219 77.441406 215.011719 77.566406 214.796875 77.652344 C 214.585938 77.742188 214.367188 77.785156 214.136719 77.785156 C 213.90625 77.785156 213.6875 77.742188 213.472656 77.652344 C 213.261719 77.566406 213.074219 77.441406 212.914062 77.277344 C 212.75 77.117188 212.625 76.929688 212.535156 76.71875 C 212.449219 76.507812 212.40625 76.285156 212.40625 76.058594 C 212.40625 75.828125 212.449219 75.609375 212.535156 75.394531 C 212.625 75.183594 212.75 74.996094 212.914062 74.835938 C 213.074219 74.675781 213.261719 74.550781 213.472656 74.460938 C 213.6875 74.375 213.90625 74.328125 214.136719 74.328125 C 214.367188 74.328125 214.585938 74.375 214.796875 74.460938 C 215.011719 74.550781 215.199219 74.675781 215.359375 74.835938 C 215.523438 74.996094 215.648438 75.183594 215.734375 75.394531 C 215.824219 75.609375 215.867188 75.828125 215.867188 76.058594 Z M 215.867188 76.058594 " fill-opacity="1" fill-rule="nonzero"/><path fill="#ededed" d="M 215.296875 78.8125 C 215.296875 78.992188 215.261719 79.164062 215.191406 79.332031 C 215.125 79.496094 215.027344 79.644531 214.898438 79.769531 C 214.769531 79.898438 214.625 79.996094 214.457031 80.0625 C 214.292969 80.132812 214.121094 80.164062 213.941406 80.164062 C 213.761719 80.164062 213.589844 80.132812 213.421875 80.0625 C 213.257812 79.996094 213.109375 79.898438 212.984375 79.769531 C 212.855469 79.644531 212.757812 79.496094 212.6875 79.332031 C 212.621094 79.164062 212.585938 78.992188 212.585938 78.8125 C 212.585938 78.632812 212.621094 78.460938 212.6875 78.296875 C 212.757812 78.128906 212.855469 77.984375 212.984375 77.859375 C 213.109375 77.730469 213.257812 77.632812 213.421875 77.566406 C 213.589844 77.496094 213.761719 77.460938 213.941406 77.460938 C 214.121094 77.460938 214.292969 77.496094 214.457031 77.566406 C 214.625 77.632812 214.769531 77.730469 214.898438 77.859375 C 215.027344 77.984375 215.125 78.128906 215.191406 78.296875 C 215.261719 78.460938 215.296875 78.632812 215.296875 78.8125 Z M 215.296875 78.8125 " fill-opacity="1" fill-rule="nonzero"/><path fill="#b5775b" d="M 212.839844 141.023438 C 212.46875 140.105469 212.023438 139.226562 211.496094 138.382812 C 210.734375 137.433594 209.882812 136.574219 208.929688 135.8125 C 207.152344 134.21875 205.144531 132.992188 202.914062 132.136719 C 200.679688 131.28125 198.371094 130.855469 195.976562 130.851562 C 195.785156 130.839844 195.605469 130.886719 195.445312 130.992188 C 195.28125 131.101562 195.171875 131.25 195.109375 131.433594 C 195.050781 131.617188 195.050781 131.800781 195.117188 131.984375 C 195.183594 132.167969 195.296875 132.3125 195.464844 132.417969 L 202.355469 135.65625 C 199.085938 134.117188 196.234375 133.253906 192.382812 134.449219 C 192.207031 134.5 192.0625 134.601562 191.953125 134.746094 C 191.839844 134.890625 191.785156 135.054688 191.78125 135.234375 C 191.773438 135.417969 191.824219 135.585938 191.929688 135.734375 C 192.03125 135.886719 192.171875 135.992188 192.34375 136.050781 C 195.003906 136.839844 197.4375 138.074219 199.648438 139.753906 C 197.324219 138.328125 194.527344 137.234375 191.867188 137.808594 C 191.683594 137.851562 191.535156 137.945312 191.414062 138.089844 C 191.292969 138.230469 191.226562 138.394531 191.214844 138.578125 C 191.207031 138.765625 191.25 138.9375 191.351562 139.089844 C 191.453125 139.246094 191.59375 139.355469 191.765625 139.421875 C 193.640625 140.230469 195.398438 141.242188 197.039062 142.449219 C 195.839844 142.035156 194.601562 141.84375 193.328125 141.875 C 193.132812 141.894531 192.964844 141.972656 192.824219 142.109375 C 192.683594 142.246094 192.597656 142.414062 192.574219 142.609375 C 192.546875 142.804688 192.585938 142.984375 192.6875 143.152344 C 192.789062 143.320312 192.929688 143.441406 193.113281 143.511719 C 197.351562 145.402344 201.027344 148.066406 204.140625 151.503906 C 205.1875 152.796875 206.46875 153.78125 207.992188 154.449219 C 209.675781 155.15625 211.425781 155.585938 213.242188 155.746094 C 214.289062 155.839844 215.335938 155.839844 216.386719 155.738281 C 216.828125 155.734375 217.230469 155.609375 217.597656 155.363281 C 218.011719 154.925781 218.226562 154.402344 218.238281 153.800781 C 218.582031 151.425781 218.929688 149.054688 219.273438 146.679688 C 214.433594 145.902344 213.355469 142.0625 212.839844 141.023438 Z M 212.839844 141.023438 " fill-opacity="1" fill-rule="nonzero"/><path fill="#2a2852" d="M 196.679688 145.390625 C 196.660156 145.390625 196.640625 145.382812 196.625 145.375 C 195.492188 144.6875 194.308594 144.097656 193.074219 143.609375 C 192.863281 143.527344 192.703125 143.390625 192.589844 143.195312 C 192.476562 143 192.4375 142.789062 192.472656 142.566406 C 192.5 142.351562 192.59375 142.167969 192.753906 142.015625 C 192.914062 141.867188 193.101562 141.785156 193.320312 141.773438 C 194.367188 141.734375 195.390625 141.863281 196.394531 142.15625 C 196.199219 142.027344 196.011719 141.902344 195.824219 141.777344 C 194.550781 140.863281 193.183594 140.109375 191.730469 139.519531 C 191.527344 139.445312 191.371094 139.316406 191.257812 139.136719 C 191.140625 138.957031 191.09375 138.757812 191.113281 138.546875 C 191.125 138.339844 191.199219 138.160156 191.335938 138.003906 C 191.472656 137.847656 191.640625 137.75 191.84375 137.707031 C 192.902344 137.527344 193.960938 137.527344 195.019531 137.703125 C 196.078125 137.882812 197.078125 138.226562 198.019531 138.742188 C 196.226562 137.636719 194.320312 136.773438 192.308594 136.148438 C 192.113281 136.082031 191.957031 135.964844 191.839844 135.792969 C 191.726562 135.625 191.667969 135.4375 191.675781 135.234375 C 191.679688 135.027344 191.742188 134.84375 191.867188 134.683594 C 191.992188 134.519531 192.152344 134.40625 192.351562 134.347656 C 194.632812 133.585938 196.917969 133.566406 199.210938 134.296875 L 195.417969 132.511719 C 195.234375 132.410156 195.101562 132.265625 195.023438 132.074219 C 194.941406 131.882812 194.929688 131.683594 194.984375 131.484375 C 195.046875 131.261719 195.171875 131.085938 195.355469 130.949219 C 195.539062 130.8125 195.746094 130.746094 195.976562 130.746094 C 196.050781 130.746094 196.125 130.746094 196.195312 130.746094 C 198.5625 130.769531 200.851562 131.210938 203.054688 132.070312 C 205.261719 132.929688 207.242188 134.152344 209 135.734375 C 209.957031 136.5 210.816406 137.363281 211.578125 138.320312 C 211.972656 138.890625 212.296875 139.496094 212.550781 140.140625 C 212.679688 140.433594 212.800781 140.710938 212.933594 140.976562 C 212.992188 141.097656 213.058594 141.25 213.136719 141.433594 C 213.398438 142.074219 213.714844 142.691406 214.082031 143.277344 C 214.121094 143.335938 214.109375 143.382812 214.050781 143.421875 C 213.992188 143.460938 213.945312 143.449219 213.90625 143.390625 C 213.527344 142.792969 213.207031 142.167969 212.945312 141.515625 C 212.867188 141.339844 212.804688 141.1875 212.746094 141.070312 C 212.609375 140.800781 212.480469 140.507812 212.355469 140.226562 C 212.109375 139.597656 211.792969 139.003906 211.410156 138.449219 C 210.65625 137.503906 209.804688 136.648438 208.863281 135.890625 C 207.121094 134.328125 205.164062 133.117188 202.980469 132.269531 C 200.800781 131.417969 198.539062 130.980469 196.195312 130.957031 C 196.125 130.957031 196.050781 130.957031 195.980469 130.957031 C 195.796875 130.953125 195.632812 131.007812 195.484375 131.113281 C 195.339844 131.222656 195.238281 131.363281 195.1875 131.539062 C 195.144531 131.691406 195.152344 131.84375 195.214844 131.988281 C 195.277344 132.136719 195.378906 132.25 195.519531 132.328125 L 202.402344 135.5625 C 202.464844 135.59375 202.480469 135.640625 202.453125 135.703125 C 202.421875 135.765625 202.375 135.78125 202.3125 135.753906 C 198.84375 134.121094 196.109375 133.402344 192.414062 134.550781 C 192.257812 134.59375 192.132812 134.679688 192.035156 134.808594 C 191.941406 134.933594 191.890625 135.078125 191.886719 135.238281 C 191.882812 135.398438 191.925781 135.542969 192.015625 135.675781 C 192.105469 135.804688 192.226562 135.898438 192.378906 135.953125 C 195.050781 136.746094 197.492188 137.984375 199.710938 139.667969 C 199.765625 139.707031 199.773438 139.757812 199.734375 139.8125 C 199.695312 139.867188 199.648438 139.878906 199.59375 139.84375 C 196.714844 138.078125 194.125 137.429688 191.886719 137.914062 C 191.730469 137.945312 191.597656 138.019531 191.496094 138.140625 C 191.390625 138.261719 191.332031 138.402344 191.324219 138.5625 C 191.308594 138.726562 191.347656 138.882812 191.433594 139.023438 C 191.523438 139.164062 191.648438 139.265625 191.804688 139.324219 C 193.273438 139.917969 194.652344 140.679688 195.941406 141.601562 C 196.304688 141.84375 196.683594 142.097656 197.097656 142.359375 C 197.148438 142.394531 197.160156 142.4375 197.136719 142.492188 C 197.109375 142.546875 197.066406 142.566406 197.007812 142.550781 C 195.820312 142.140625 194.597656 141.953125 193.339844 141.980469 C 193.167969 141.992188 193.023438 142.054688 192.898438 142.171875 C 192.773438 142.289062 192.703125 142.429688 192.679688 142.597656 C 192.652344 142.773438 192.679688 142.9375 192.769531 143.089844 C 192.859375 143.242188 192.988281 143.351562 193.152344 143.414062 C 194.394531 143.910156 195.589844 144.503906 196.734375 145.195312 C 196.78125 145.222656 196.796875 145.261719 196.78125 145.3125 C 196.765625 145.363281 196.734375 145.390625 196.679688 145.390625 Z M 196.679688 145.390625 " fill-opacity="1" fill-rule="nonzero"/><path fill="#67b3ba" d="M 221.179688 96.664062 C 243.738281 111.921875 251.121094 129.511719 250.984375 149.007812 C 250.953125 153.539062 247.757812 166.40625 233.804688 164.972656 C 223.914062 163.957031 220.875 164.835938 212.617188 159.300781 C 213.484375 158.308594 214.222656 157.230469 214.839844 156.070312 C 215.457031 154.90625 215.9375 153.691406 216.273438 152.417969 C 216.613281 151.148438 216.804688 149.855469 216.84375 148.539062 C 216.886719 147.226562 216.78125 145.921875 216.523438 144.632812 C 223.644531 146.625 222.578125 142.195312 226.972656 139.738281 C 231.027344 137.46875 228.082031 136.835938 228.710938 132.238281 C 229.339844 127.644531 228.539062 122.984375 227.742188 118.414062 Z M 221.179688 96.664062 " fill-opacity="1" fill-rule="nonzero"/><path fill="#2a2852" d="M 232.398438 165.828125 C 228.84375 165.769531 225.375 165.191406 221.992188 164.09375 C 218.609375 162.996094 215.464844 161.425781 212.554688 159.386719 C 212.492188 159.335938 212.488281 159.285156 212.546875 159.226562 C 218.058594 153.828125 216.4375 144.742188 216.417969 144.652344 C 216.414062 144.617188 216.421875 144.585938 216.445312 144.558594 C 216.46875 144.535156 216.5 144.523438 216.535156 144.527344 C 219.722656 144.878906 223.011719 145.425781 226.195312 145.953125 C 229.375 146.480469 232.664062 147.027344 235.84375 147.375 C 237.355469 147.472656 238.828125 147.773438 240.261719 148.265625 C 240.988281 148.523438 241.640625 148.910156 242.210938 149.429688 C 242.785156 149.949219 243.234375 150.558594 243.558594 151.253906 C 243.585938 151.320312 243.566406 151.367188 243.503906 151.394531 C 243.4375 151.417969 243.390625 151.398438 243.363281 151.335938 C 243.050781 150.664062 242.617188 150.078125 242.0625 149.578125 C 241.511719 149.082031 240.886719 148.710938 240.183594 148.464844 C 238.769531 147.972656 237.3125 147.683594 235.820312 147.585938 C 232.632812 147.234375 229.34375 146.6875 226.160156 146.160156 C 223.027344 145.640625 219.785156 145.101562 216.648438 144.75 C 216.832031 145.921875 217.898438 154.175781 212.78125 159.292969 C 213.769531 160.019531 222.25 166 233.4375 165.601562 C 233.492188 165.589844 233.546875 165.644531 233.546875 165.703125 C 233.550781 165.773438 233.515625 165.808594 233.445312 165.8125 C 233.09375 165.824219 232.746094 165.828125 232.398438 165.828125 Z M 232.398438 165.828125 " fill-opacity="1" fill-rule="nonzero"/><path fill="#2a2852" d="M 233.445312 147.167969 C 233.375 147.167969 233.339844 147.136719 233.339844 147.066406 C 233.320312 144.425781 232.933594 141.839844 232.171875 139.3125 C 231.410156 136.785156 230.3125 134.414062 228.871094 132.199219 C 228.832031 132.140625 228.839844 132.09375 228.898438 132.054688 C 228.960938 132.015625 229.007812 132.027344 229.046875 132.085938 C 230.5 134.316406 231.609375 136.707031 232.375 139.253906 C 233.140625 141.800781 233.53125 144.402344 233.550781 147.0625 C 233.550781 147.132812 233.515625 147.167969 233.445312 147.167969 Z M 233.445312 147.167969 " fill-opacity="1" fill-rule="nonzero"/><path fill="#b5775b" d="M 158.71875 111.632812 C 158.640625 112.050781 158.515625 112.46875 158.394531 112.890625 C 157.824219 114.902344 156.953125 116.777344 155.789062 118.515625 C 158.027344 119.585938 160.363281 120.339844 162.804688 120.785156 C 162.828125 120.789062 164.113281 117.824219 164.253906 117.550781 C 164.804688 116.472656 165.421875 115.429688 166.109375 114.429688 C 166.335938 114.125 166.613281 113.882812 166.949219 113.707031 C 167.433594 113.355469 167.890625 112.96875 168.316406 112.550781 C 169.097656 111.921875 169.777344 111.199219 170.363281 110.386719 C 171.199219 109.0625 169.546875 109.046875 169.355469 107.496094 C 169.320312 107.082031 169.191406 106.699219 168.972656 106.34375 C 168.621094 105.917969 168.195312 105.59375 167.6875 105.375 C 166.292969 104.601562 164.851562 103.925781 163.367188 103.339844 C 162.289062 102.945312 159.734375 100.394531 159.003906 101.398438 C 157.707031 103.175781 158.140625 106.644531 158.257812 107.605469 C 158.363281 108.460938 158.582031 109.296875 158.746094 110.144531 C 158.835938 110.644531 158.824219 111.140625 158.71875 111.632812 Z M 158.71875 111.632812 " fill-opacity="1" fill-rule="nonzero"/><path fill="#ededed" d="M 160.246094 103.527344 C 161.699219 101.839844 162.902344 99.992188 163.847656 97.976562 C 164.789062 95.960938 165.445312 93.855469 165.8125 91.660156 L 174.796875 93.859375 C 174.246094 96.761719 173.328125 99.542969 172.039062 102.203125 C 170.753906 104.863281 169.148438 107.3125 167.214844 109.550781 C 167.015625 109.78125 166.796875 109.988281 166.558594 110.171875 C 166.320312 110.355469 166.066406 110.519531 165.792969 110.652344 C 165.523438 110.789062 165.242188 110.894531 164.949219 110.976562 C 164.660156 111.054688 164.363281 111.105469 164.058594 111.128906 C 163.757812 111.148438 163.457031 111.140625 163.15625 111.105469 C 162.855469 111.066406 162.5625 111 162.277344 110.90625 C 161.988281 110.808594 161.714844 110.6875 161.449219 110.539062 C 161.1875 110.386719 160.941406 110.214844 160.710938 110.015625 C 160.484375 109.820312 160.277344 109.601562 160.089844 109.363281 C 159.90625 109.125 159.746094 108.871094 159.609375 108.597656 C 159.472656 108.328125 159.363281 108.046875 159.285156 107.757812 C 159.203125 107.464844 159.152344 107.167969 159.132812 106.867188 C 159.109375 106.566406 159.117188 106.265625 159.15625 105.964844 C 159.195312 105.667969 159.261719 105.375 159.355469 105.085938 C 159.453125 104.800781 159.574219 104.527344 159.722656 104.261719 C 159.875 104 160.046875 103.753906 160.246094 103.527344 Z M 160.246094 103.527344 " fill-opacity="1" fill-rule="nonzero"/><path fill="#ededed" d="M 165.585938 87.695312 C 165.589844 87.347656 165.625 87.003906 165.695312 86.667969 C 165.765625 86.328125 165.867188 85.996094 166.003906 85.679688 C 166.136719 85.359375 166.304688 85.058594 166.5 84.769531 C 166.695312 84.484375 166.914062 84.21875 167.164062 83.976562 C 167.410156 83.734375 167.679688 83.519531 167.96875 83.328125 C 168.261719 83.140625 168.566406 82.980469 168.890625 82.851562 C 169.210938 82.722656 169.542969 82.625 169.886719 82.5625 C 170.226562 82.5 170.570312 82.46875 170.917969 82.472656 C 173.867188 82.472656 177.160156 84.664062 177.167969 87.554688 L 175.695312 94.863281 C 175.667969 95 175.589844 95.105469 175.46875 95.171875 C 175.34375 95.242188 175.214844 95.253906 175.082031 95.207031 L 165.230469 91.796875 Z M 165.585938 87.695312 " fill-opacity="1" fill-rule="nonzero"/><path fill="#67b3ba" d="M 179.511719 77.367188 C 179.863281 77.425781 180.203125 77.519531 180.53125 77.644531 C 180.863281 77.769531 181.179688 77.925781 181.480469 78.109375 C 181.785156 78.296875 182.066406 78.507812 182.324219 78.75 C 182.585938 78.988281 182.820312 79.25 183.03125 79.535156 C 183.242188 79.820312 183.421875 80.121094 183.574219 80.441406 C 183.726562 80.757812 183.847656 81.089844 183.9375 81.433594 C 184.027344 81.773438 184.082031 82.121094 184.105469 82.472656 C 184.125 82.828125 184.113281 83.179688 184.070312 83.527344 C 184.023438 83.878906 183.945312 84.222656 183.832031 84.558594 C 183.722656 84.894531 183.578125 85.214844 183.40625 85.523438 C 183.234375 85.832031 183.03125 86.121094 182.804688 86.390625 C 182.574219 86.660156 182.324219 86.90625 182.046875 87.128906 C 181.769531 87.351562 181.476562 87.542969 181.164062 87.710938 C 180.851562 87.875 180.523438 88.007812 180.1875 88.113281 C 179.847656 88.214844 179.5 88.285156 179.148438 88.320312 C 178.796875 88.359375 178.445312 88.363281 178.089844 88.332031 C 178.035156 88.324219 177.980469 88.324219 177.921875 88.320312 L 179.34375 77.335938 C 179.402344 77.347656 179.457031 77.359375 179.511719 77.367188 Z M 179.511719 77.367188 " fill-opacity="1" fill-rule="nonzero"/><path fill="#e05e55" d="M 175.140625 74.796875 L 173.207031 89.707031 C 142.816406 88.042969 126.21875 101.546875 126.21875 101.546875 L 132.71875 51.410156 C 132.71875 51.410156 145.324219 68.683594 175.140625 74.796875 Z M 175.140625 74.796875 " fill-opacity="1" fill-rule="nonzero"/><path fill="#67b3ba" d="M 175.140625 74.796875 C 176.019531 74.976562 178.039062 75.292969 179.574219 75.535156 C 179.773438 75.566406 179.957031 75.632812 180.128906 75.734375 C 180.296875 75.839844 180.441406 75.96875 180.5625 76.128906 C 180.679688 76.289062 180.765625 76.464844 180.816406 76.65625 C 180.867188 76.847656 180.878906 77.042969 180.855469 77.242188 L 179.355469 88.792969 C 179.332031 88.992188 179.269531 89.175781 179.171875 89.347656 C 179.074219 89.523438 178.945312 89.671875 178.789062 89.796875 C 178.632812 89.917969 178.460938 90.007812 178.269531 90.066406 C 178.078125 90.121094 177.882812 90.140625 177.683594 90.117188 C 176.136719 89.964844 174.101562 89.757812 173.207031 89.707031 Z M 175.140625 74.796875 " fill-opacity="1" fill-rule="nonzero"/><path fill="#2a2852" d="M 126.316406 102.101562 C 126.261719 102.101562 126.207031 102.097656 126.148438 102.089844 C 122.605469 101.632812 123.308594 86.148438 124.640625 75.855469 C 125.945312 65.808594 129.144531 50.859375 132.621094 50.859375 C 132.679688 50.859375 132.734375 50.863281 132.789062 50.867188 C 136.175781 51.304688 135.394531 65.164062 135.074219 69.398438 C 134.882812 71.949219 134.617188 74.539062 134.285156 77.101562 C 134.175781 77.960938 134.054688 78.804688 133.9375 79.640625 C 132.707031 87.984375 129.722656 102.101562 126.316406 102.101562 Z M 126.316406 102.101562 " fill-opacity="1" fill-rule="nonzero"/><path fill="#67b3ba" d="M 132.621094 51.402344 C 132.65625 51.402344 132.6875 51.40625 132.71875 51.410156 C 134.628906 51.65625 135.296875 59.1875 134.527344 69.359375 C 134.347656 71.78125 134.089844 74.367188 133.746094 77.03125 C 133.632812 77.886719 133.511719 78.730469 133.394531 79.5625 C 131.5625 92.007812 128.535156 101.554688 126.316406 101.554688 C 126.285156 101.554688 126.253906 101.550781 126.21875 101.546875 C 123.855469 101.242188 123.386719 89.777344 125.183594 75.925781 C 126.953125 62.265625 130.261719 51.402344 132.621094 51.402344 M 132.621094 50.3125 C 127.546875 50.3125 124.4375 73.179688 124.097656 75.785156 C 123.261719 81.78125 122.914062 87.808594 123.046875 93.859375 C 123.351562 101.324219 124.828125 102.46875 126.078125 102.628906 C 126.160156 102.640625 126.238281 102.644531 126.316406 102.644531 C 127.460938 102.644531 129.027344 101.839844 131.042969 95.558594 C 132.597656 90.367188 133.742188 85.089844 134.476562 79.722656 C 134.597656 78.878906 134.71875 78.03125 134.828125 77.171875 C 135.164062 74.601562 135.429688 72 135.621094 69.441406 C 136.003906 65.148438 136.035156 60.855469 135.71875 56.558594 C 135.316406 52.453125 134.4375 50.53125 132.859375 50.328125 C 132.78125 50.316406 132.703125 50.3125 132.621094 50.3125 Z M 132.621094 50.3125 " fill-opacity="1" fill-rule="nonzero"/><path fill="#e05e55" d="M 130.019531 72.234375 L 128.933594 80.625 L 129.109375 80.789062 L 132.882812 82.980469 C 133.023438 82.003906 133.222656 81.050781 133.355469 80.042969 C 133.757812 76.917969 134.109375 73.886719 134.34375 71.046875 Z M 130.019531 72.234375 " fill-opacity="1" fill-rule="nonzero"/><path fill="#ededed" d="M 130.015625 72.234375 C 130.082031 72.242188 130.132812 72.355469 130.167969 72.578125 C 130.203125 72.796875 130.21875 73.109375 130.214844 73.507812 C 130.210938 73.90625 130.1875 74.367188 130.148438 74.882812 C 130.105469 75.398438 130.050781 75.9375 129.976562 76.492188 C 129.90625 77.050781 129.824219 77.582031 129.730469 78.09375 C 129.636719 78.605469 129.542969 79.054688 129.445312 79.441406 C 129.347656 79.828125 129.25 80.125 129.160156 80.328125 C 129.070312 80.53125 128.992188 80.632812 128.925781 80.621094 C 128.859375 80.613281 128.808594 80.5 128.773438 80.277344 C 128.738281 80.058594 128.722656 79.746094 128.726562 79.347656 C 128.730469 78.949219 128.753906 78.488281 128.792969 77.972656 C 128.832031 77.453125 128.890625 76.917969 128.960938 76.363281 C 129.035156 75.804688 129.117188 75.273438 129.210938 74.761719 C 129.300781 74.25 129.398438 73.800781 129.496094 73.414062 C 129.59375 73.027344 129.6875 72.730469 129.777344 72.527344 C 129.867188 72.324219 129.945312 72.222656 130.015625 72.234375 Z M 130.015625 72.234375 " fill-opacity="1" fill-rule="nonzero"/><path fill="#2a2852" d="M 165.734375 91.867188 L 165.890625 91.457031 L 175.160156 95 L 175.003906 95.410156 Z M 165.734375 91.867188 " fill-opacity="1" fill-rule="nonzero"/><path fill="#2a2852" d="M 179.378906 86.890625 L 180.652344 78.390625 L 181.085938 78.457031 L 179.8125 86.953125 Z M 179.378906 86.890625 " fill-opacity="1" fill-rule="nonzero"/><path fill="#b5775b" d="M 171.597656 108.410156 C 171.613281 108.367188 171.628906 108.320312 171.644531 108.277344 C 172.125 106.863281 171.582031 105.816406 170.808594 104.585938 C 170.378906 103.679688 169.808594 102.867188 169.101562 102.148438 C 168.046875 101.339844 167.539062 103.488281 167.558594 104.316406 C 167.585938 105.128906 167.910156 105.796875 168.535156 106.324219 C 167.726562 106.429688 167.011719 106.742188 166.390625 107.261719 C 165.917969 107.792969 165.5625 108.394531 165.316406 109.058594 C 165.136719 109.386719 165.050781 109.734375 165.058594 110.105469 C 165.0625 110.476562 165.160156 110.824219 165.351562 111.140625 C 165.742188 111.699219 166.046875 113.800781 166.714844 113.675781 C 169.417969 113.15625 170.9375 110.234375 171.597656 108.410156 Z M 171.597656 108.410156 " fill-opacity="1" fill-rule="nonzero"/><path fill="#2a2852" d="M 165.351562 111.246094 C 165.316406 111.246094 165.285156 111.234375 165.265625 111.203125 C 164.902344 110.3125 164.921875 109.425781 165.320312 108.550781 C 165.585938 107.9375 165.984375 107.425781 166.515625 107.019531 C 167.046875 106.613281 167.644531 106.359375 168.308594 106.261719 C 167.765625 105.726562 167.480469 105.078125 167.453125 104.320312 C 167.4375 103.65625 167.734375 102.253906 168.367188 101.933594 C 168.664062 101.796875 168.929688 101.839844 169.167969 102.066406 C 169.742188 102.585938 170.195312 103.199219 170.53125 103.898438 C 170.65625 104.117188 170.777344 104.332031 170.898438 104.53125 C 171.683594 105.777344 172.242188 106.847656 171.742188 108.3125 C 171.730469 108.355469 171.714844 108.402344 171.695312 108.445312 C 171.671875 108.511719 171.628906 108.53125 171.5625 108.507812 C 171.496094 108.484375 171.476562 108.441406 171.5 108.375 L 171.542969 108.246094 C 172.011719 106.867188 171.472656 105.839844 170.722656 104.640625 C 170.597656 104.441406 170.472656 104.222656 170.347656 104 C 170.023438 103.328125 169.589844 102.738281 169.039062 102.234375 C 168.871094 102.066406 168.679688 102.027344 168.464844 102.121094 C 167.9375 102.386719 167.648438 103.691406 167.664062 104.3125 C 167.691406 105.09375 168.003906 105.738281 168.601562 106.246094 C 168.636719 106.273438 168.648438 106.308594 168.636719 106.351562 C 168.625 106.394531 168.597656 106.421875 168.550781 106.429688 C 167.882812 106.496094 167.277344 106.726562 166.734375 107.121094 C 166.191406 107.515625 165.785156 108.019531 165.515625 108.632812 C 165.148438 109.4375 165.125 110.253906 165.4375 111.082031 C 165.460938 111.117188 165.464844 111.152344 165.445312 111.191406 C 165.425781 111.230469 165.394531 111.246094 165.351562 111.246094 Z M 165.351562 111.246094 " fill-opacity="1" fill-rule="nonzero"/><path fill="#b5775b" d="M 158.671875 102.210938 C 159.246094 100.464844 160.238281 99.003906 161.65625 97.828125 C 162.367188 97.253906 163.175781 96.890625 164.078125 96.746094 C 164.980469 96.601562 165.863281 96.6875 166.71875 97.011719 C 167.207031 97.226562 167.710938 97.785156 167.402344 98.21875 C 167.292969 98.347656 167.160156 98.445312 167 98.503906 C 165.851562 99.03125 164.644531 99.292969 163.382812 99.296875 C 164.097656 99.453125 164.980469 99.804688 164.980469 100.535156 C 164.960938 100.765625 164.878906 100.96875 164.734375 101.144531 C 164.589844 101.324219 164.40625 101.445312 164.183594 101.507812 C 163.75 101.628906 163.304688 101.65625 162.855469 101.59375 C 163.089844 101.601562 163.289062 101.691406 163.449219 101.863281 C 163.605469 102.035156 163.679688 102.238281 163.671875 102.472656 C 163.621094 102.960938 163.378906 103.316406 162.945312 103.546875 C 162.542969 103.753906 162.113281 103.890625 161.664062 103.953125 C 161.863281 104.09375 161.988281 104.285156 162.039062 104.523438 C 162.089844 104.761719 162.058594 104.988281 161.933594 105.199219 C 161.671875 105.617188 161.296875 105.882812 160.8125 105.992188 C 160.578125 106.074219 160.332031 106.109375 160.082031 106.105469 C 159.832031 106.101562 159.589844 106.054688 159.355469 105.96875 C 159.121094 105.882812 158.90625 105.757812 158.714844 105.597656 C 158.523438 105.433594 158.363281 105.246094 158.238281 105.03125 C 157.871094 104.214844 158.390625 102.976562 158.671875 102.210938 Z M 158.671875 102.210938 " fill-opacity="1" fill-rule="nonzero"/><path fill="#2a2852" d="M 160.128906 106.191406 C 159.6875 106.195312 159.273438 106.09375 158.890625 105.878906 C 158.828125 105.84375 158.816406 105.796875 158.851562 105.734375 C 158.886719 105.671875 158.933594 105.660156 158.996094 105.695312 C 159.5625 106.003906 160.160156 106.070312 160.785156 105.890625 C 161.238281 105.789062 161.589844 105.539062 161.84375 105.148438 C 161.949219 104.960938 161.984375 104.761719 161.9375 104.550781 C 161.894531 104.339844 161.785156 104.171875 161.613281 104.042969 C 161.570312 104.019531 161.550781 103.984375 161.558594 103.9375 C 161.566406 103.886719 161.59375 103.859375 161.644531 103.851562 C 162.082031 103.789062 162.496094 103.65625 162.890625 103.453125 C 163.289062 103.246094 163.515625 102.914062 163.566406 102.46875 C 163.566406 102.238281 163.484375 102.039062 163.316406 101.878906 C 163.230469 101.792969 163.132812 101.738281 163.015625 101.710938 C 162.960938 101.707031 162.902344 101.703125 162.847656 101.699219 C 162.785156 101.695312 162.75 101.660156 162.75 101.59375 C 162.75 101.527344 162.785156 101.492188 162.847656 101.488281 C 162.914062 101.484375 162.980469 101.488281 163.046875 101.5 C 163.417969 101.542969 163.789062 101.515625 164.152344 101.410156 C 164.347656 101.351562 164.515625 101.242188 164.644531 101.082031 C 164.777344 100.925781 164.855469 100.742188 164.875 100.539062 C 164.875 99.839844 163.925781 99.523438 163.359375 99.398438 C 163.296875 99.386719 163.269531 99.347656 163.277344 99.285156 C 163.285156 99.222656 163.320312 99.191406 163.382812 99.191406 C 164.628906 99.1875 165.820312 98.925781 166.957031 98.40625 C 167.097656 98.355469 167.214844 98.273438 167.316406 98.160156 C 167.394531 98.050781 167.414062 97.933594 167.371094 97.804688 C 167.238281 97.476562 167.003906 97.242188 166.675781 97.105469 C 165.835938 96.792969 164.976562 96.707031 164.089844 96.847656 C 163.203125 96.992188 162.414062 97.347656 161.71875 97.910156 C 160.664062 98.753906 159.855469 99.789062 159.296875 101.015625 C 159.265625 101.078125 159.21875 101.09375 159.15625 101.066406 C 159.09375 101.035156 159.078125 100.988281 159.105469 100.925781 C 159.679688 99.667969 160.507812 98.605469 161.589844 97.742188 C 162.316406 97.15625 163.140625 96.789062 164.066406 96.640625 C 164.988281 96.492188 165.886719 96.582031 166.761719 96.914062 C 167.152344 97.078125 167.421875 97.355469 167.574219 97.75 C 167.632812 97.941406 167.605469 98.117188 167.488281 98.28125 C 167.367188 98.425781 167.21875 98.53125 167.042969 98.597656 C 166.085938 99.039062 165.082031 99.296875 164.027344 99.375 C 164.59375 99.59375 165.085938 99.949219 165.085938 100.535156 C 165.066406 100.785156 164.976562 101.007812 164.820312 101.203125 C 164.660156 101.398438 164.460938 101.535156 164.21875 101.605469 C 163.972656 101.6875 163.71875 101.726562 163.460938 101.726562 C 163.675781 101.929688 163.78125 102.179688 163.773438 102.476562 C 163.726562 103.003906 163.464844 103.386719 163 103.636719 C 162.65625 103.820312 162.289062 103.945312 161.90625 104.011719 C 162.050781 104.1875 162.132812 104.386719 162.15625 104.609375 C 162.175781 104.835938 162.132812 105.046875 162.027344 105.246094 C 161.75 105.691406 161.355469 105.976562 160.84375 106.09375 C 160.609375 106.160156 160.371094 106.191406 160.128906 106.191406 Z M 160.128906 106.191406 " fill-opacity="1" fill-rule="nonzero"/><path fill="#2a2852" d="M 163.910156 119.015625 L 163.894531 119.011719 C 163.824219 119 163.796875 118.960938 163.808594 118.890625 C 164 117.863281 164.363281 116.898438 164.890625 115.992188 C 165.417969 115.085938 166.082031 114.296875 166.886719 113.625 C 168.019531 113.113281 168.992188 112.390625 169.804688 111.453125 C 170.621094 110.515625 171.199219 109.449219 171.542969 108.257812 C 171.554688 108.1875 171.597656 108.160156 171.667969 108.175781 C 171.734375 108.191406 171.761719 108.230469 171.746094 108.300781 C 171.398438 109.523438 170.808594 110.613281 169.976562 111.574219 C 169.148438 112.535156 168.152344 113.28125 166.992188 113.800781 C 166.21875 114.460938 165.574219 115.230469 165.0625 116.109375 C 164.554688 116.988281 164.203125 117.925781 164.015625 118.925781 C 164.007812 118.984375 163.972656 119.015625 163.910156 119.015625 Z M 163.910156 119.015625 " fill-opacity="1" fill-rule="nonzero"/><path fill="#67b3ba" d="M 148.59375 129.730469 C 147.632812 136.167969 148.191406 141.738281 151.820312 145.230469 C 156.296875 149.542969 164.460938 151.097656 172.109375 148.109375 C 177.90625 145.84375 178.851562 136.015625 180.742188 130.097656 C 182.628906 124.179688 182.84375 117.867188 182.753906 111.65625 C 180.59375 119.367188 176.710938 125.4375 169.976562 129.792969 L 169.234375 117.144531 C 162.070312 117.191406 159.738281 116.351562 153.351562 114.554688 C 152.628906 116.484375 149.109375 126.261719 148.59375 129.730469 Z M 148.59375 129.730469 " fill-opacity="1" fill-rule="nonzero"/><path fill="#2a2852" d="M 168.0625 141.769531 C 168.042969 141.769531 168.027344 141.765625 168.007812 141.753906 C 167.949219 141.71875 167.9375 141.671875 167.972656 141.609375 C 171.371094 135.828125 169.152344 117.34375 169.128906 117.160156 C 169.121094 117.089844 169.152344 117.050781 169.21875 117.042969 C 169.292969 117.03125 169.332031 117.0625 169.335938 117.132812 C 169.359375 117.320312 171.589844 135.875 168.152344 141.71875 C 168.132812 141.75 168.101562 141.769531 168.0625 141.769531 Z M 168.0625 141.769531 " fill-opacity="1" fill-rule="nonzero"/><g clip-path="url(#048c48dffe)"><path fill="#2a2852" d="M 126.695312 49.332031 C 126.589844 49.332031 126.519531 49.28125 126.492188 49.179688 L 124.257812 41.265625 C 124.21875 41.132812 124.269531 41.046875 124.402344 41.007812 C 124.539062 40.972656 124.625 41.019531 124.664062 41.152344 L 126.898438 49.0625 C 126.917969 49.132812 126.90625 49.191406 126.863281 49.25 C 126.820312 49.304688 126.765625 49.332031 126.695312 49.332031 Z M 126.695312 49.332031 " fill-opacity="1" fill-rule="nonzero"/></g><path fill="#2a2852" d="M 118.125 63.324219 C 118.078125 63.324219 118.035156 63.308594 117.996094 63.277344 L 107.898438 55.328125 C 107.785156 55.242188 107.769531 55.144531 107.859375 55.03125 C 107.949219 54.917969 108.046875 54.910156 108.15625 55 L 118.257812 62.949219 C 118.335938 63.007812 118.359375 63.085938 118.324219 63.183594 C 118.292969 63.277344 118.226562 63.324219 118.125 63.324219 Z M 118.125 63.324219 " fill-opacity="1" fill-rule="nonzero"/><g clip-path="url(#cc7ec91237)"><path fill="#2a2852" d="M 112.984375 78.039062 L 112.976562 78.039062 L 100.125 77.53125 C 99.984375 77.527344 99.917969 77.453125 99.921875 77.316406 C 99.933594 77.179688 100.003906 77.113281 100.140625 77.113281 L 112.992188 77.621094 C 113.128906 77.625 113.199219 77.695312 113.195312 77.835938 C 113.191406 77.972656 113.121094 78.039062 112.984375 78.039062 Z M 112.984375 78.039062 " fill-opacity="1" fill-rule="nonzero"/></g><path fill="#2a2852" d="M 106.796875 100.09375 C 106.691406 100.09375 106.625 100.042969 106.59375 99.941406 C 106.5625 99.84375 106.59375 99.765625 106.679688 99.707031 L 117.375 92.578125 C 117.492188 92.5 117.589844 92.519531 117.667969 92.636719 C 117.742188 92.753906 117.726562 92.851562 117.609375 92.929688 L 106.914062 100.054688 C 106.878906 100.078125 106.839844 100.09375 106.796875 100.09375 Z M 106.796875 100.09375 " fill-opacity="1" fill-rule="nonzero"/><path fill="#2a2852" d="M 122.632812 113.671875 C 122.609375 113.671875 122.585938 113.667969 122.5625 113.660156 C 122.429688 113.613281 122.386719 113.523438 122.4375 113.390625 L 124.84375 106.886719 C 124.890625 106.753906 124.980469 106.714844 125.113281 106.761719 C 125.246094 106.808594 125.285156 106.898438 125.238281 107.03125 L 122.832031 113.535156 C 122.796875 113.628906 122.734375 113.671875 122.632812 113.671875 Z M 122.632812 113.671875 " fill-opacity="1" fill-rule="nonzero"/></svg>