<svg height="512" viewBox="0 0 60 60" width="512" xmlns="http://www.w3.org/2000/svg"><g id="Icons"><path d="m49 29a6.013 6.013 0 0 1 -4 5.66v16.34a2 2 0 0 1 -4 0l-11-7.56-3-2.06v1.62a2.006 2.006 0 0 1 -2 2h-3l1.52 7.61a2 2 0 0 1 -1.96 2.39h-2.46a4.991 4.991 0 0 1 -4.9-4.02l-2.2-10.98a11 11 0 1 1 0-22h13l5-3.44 11-7.56a2.006 2.006 0 0 1 2-2 2.015 2.015 0 0 1 2 2v16.34a6.013 6.013 0 0 1 4 5.66z" fill="#f29c1f"/><g fill="#d25627"><path d="m9 30h-3a1 1 0 0 1 0-2h3a1 1 0 0 1 0 2z"/><path d="m9 26h-3a1 1 0 0 1 0-2h3a1 1 0 0 1 0 2z"/><path d="m9 34h-3a1 1 0 0 1 0-2h3a1 1 0 0 1 0 2z"/><rect height="48" rx="2" width="4" x="41" y="5"/><path d="m21.56 55h-2.46a4.991 4.991 0 0 1 -4.9-4.02l-2.2-10.98h9l1 5 1.52 7.61a2 2 0 0 1 -1.96 2.39z"/></g><path d="m27 41.38v1.62a2.006 2.006 0 0 1 -2 2h-3l-1-5h4z" fill="#e57e25"/><path d="m49 22a1 1 0 0 1 -.556-1.832l6-4a1 1 0 1 1 1.11 1.664l-6 4a1 1 0 0 1 -.554.168z" fill="#3b97d3"/><path d="m52 26a1 1 0 0 1 -.316-1.949l6-2a1 1 0 0 1 .632 1.9l-6 2a1 1 0 0 1 -.316.049z" fill="#3b97d3"/><path d="m55 42a1 1 0 0 1 -.554-.168l-6-4a1 1 0 0 1 1.11-1.664l6 4a1 1 0 0 1 -.556 1.832z" fill="#3b97d3"/><path d="m58 36a1 1 0 0 1 -.316-.051l-6-2a1 1 0 0 1 .632-1.9l6 2a1 1 0 0 1 -.316 1.951z" fill="#3b97d3"/><path d="m59 30h-6a1 1 0 0 1 0-2h6a1 1 0 0 1 0 2z" fill="#3b97d3"/><path d="m30 14.56v28.88l-3-2.06-2-1.38v-22z" fill="#d25627"/></g></svg>