<svg xmlns="http://www.w3.org/2000/svg" xmlns:xlink="http://www.w3.org/1999/xlink" width="500" zoomAndPan="magnify" viewBox="0 0 375 374.999991" height="500" preserveAspectRatio="xMidYMid meet" version="1.0"><defs><clipPath id="78dc048dca"><path d="M 37.5 214 L 82 214 L 82 244 L 37.5 244 Z M 37.5 214 " clip-rule="nonzero"/></clipPath><clipPath id="8e2df8132c"><path d="M 37.5 57 L 82 57 L 82 87 L 37.5 87 Z M 37.5 57 " clip-rule="nonzero"/></clipPath><clipPath id="a7d5fab28a"><path d="M 37.5 37.5 L 331.5 37.5 L 331.5 263.25 L 37.5 263.25 Z M 37.5 37.5 " clip-rule="nonzero"/></clipPath><clipPath id="ec2d91d043"><path d="M 88 312 L 103 312 L 103 353.632812 L 88 353.632812 Z M 88 312 " clip-rule="nonzero"/></clipPath></defs><rect x="-37.5" width="450" fill="#ffffff" y="-37.499999" height="449.999989" fill-opacity="1"/><rect x="-37.5" width="450" fill="#ffffff" y="-37.499999" height="449.999989" fill-opacity="1"/><path fill="#ff7130" d="M 228.789062 238.75 L 106.167969 238.75 C 100.75 238.75 96.359375 234.359375 96.359375 228.941406 C 96.359375 223.523438 100.75 219.132812 106.167969 219.132812 L 135.597656 219.132812 C 141.007812 219.113281 145.390625 214.734375 145.40625 209.320312 C 145.304688 203.945312 140.972656 199.613281 135.597656 199.511719 L 71.835938 199.511719 C 66.421875 199.496094 62.039062 195.113281 62.023438 189.703125 C 62.175781 184.347656 66.480469 180.042969 71.835938 179.894531 L 111.074219 179.894531 C 116.484375 179.875 120.867188 175.496094 120.882812 170.082031 C 120.773438 164.710938 116.445312 160.382812 111.074219 160.273438 L 52.214844 160.273438 C 46.804688 160.257812 42.421875 155.875 42.40625 150.460938 C 42.5 145.085938 46.835938 140.75 52.214844 140.652344 L 111.074219 140.652344 C 116.484375 140.636719 120.867188 136.253906 120.882812 130.84375 C 120.808594 125.457031 116.460938 121.109375 111.074219 121.035156 L 71.835938 121.035156 C 66.421875 121.019531 62.039062 116.636719 62.023438 111.222656 C 62.113281 105.84375 66.453125 101.5 71.835938 101.414062 L 135.597656 101.414062 C 141.007812 101.398438 145.390625 97.015625 145.40625 91.605469 C 145.273438 86.246094 140.960938 81.929688 135.597656 81.796875 L 106.167969 81.796875 C 100.75 81.796875 96.359375 77.402344 96.359375 71.984375 C 96.359375 66.570312 100.75 62.175781 106.167969 62.175781 L 228.789062 62.175781 Z M 228.789062 238.75 " fill-opacity="1" fill-rule="nonzero"/><path fill="#ff7130" d="M 52.214844 219.132812 L 66.929688 219.132812 C 72.347656 219.132812 76.738281 223.523438 76.738281 228.941406 C 76.738281 234.359375 72.347656 238.75 66.929688 238.75 L 52.214844 238.75 C 46.796875 238.75 42.40625 234.359375 42.40625 228.941406 C 42.40625 223.523438 46.796875 219.132812 52.214844 219.132812 Z M 52.214844 219.132812 " fill-opacity="1" fill-rule="nonzero"/><path fill="#ff7130" d="M 52.214844 62.175781 L 66.929688 62.175781 C 72.347656 62.175781 76.738281 66.566406 76.738281 71.984375 C 76.738281 77.402344 72.347656 81.792969 66.929688 81.792969 L 52.214844 81.792969 C 46.796875 81.792969 42.40625 77.402344 42.40625 71.984375 C 42.40625 66.566406 46.796875 62.175781 52.214844 62.175781 Z M 52.214844 62.175781 " fill-opacity="1" fill-rule="nonzero"/><path fill="#e4f1ff" d="M 184.644531 67.078125 L 184.644531 101.609375 C 184.640625 113.851562 190.335938 125.402344 200.046875 132.851562 L 222.90625 150.460938 L 200.046875 168.070312 C 190.335938 175.523438 184.640625 187.070312 184.644531 199.316406 L 184.644531 233.84375 L 312.171875 233.84375 L 312.171875 199.316406 C 312.179688 187.070312 306.484375 175.523438 296.773438 168.070312 L 273.914062 150.460938 L 296.773438 132.855469 C 306.484375 125.402344 312.179688 113.851562 312.171875 101.609375 L 312.171875 67.078125 Z M 184.644531 67.078125 " fill-opacity="1" fill-rule="nonzero"/><path fill="#ffa501" d="M 204.265625 228.941406 L 204.265625 205.753906 C 204.238281 199.59375 207.105469 193.78125 212.015625 190.058594 L 241.027344 167.691406 C 245.378906 164.335938 251.441406 164.335938 255.792969 167.691406 L 284.804688 190.058594 C 289.710938 193.78125 292.582031 199.59375 292.554688 205.753906 L 292.554688 228.941406 Z M 204.265625 228.941406 " fill-opacity="1" fill-rule="nonzero"/><path fill="#ffa501" d="M 292.554688 71.984375 L 292.554688 95.167969 C 292.582031 101.328125 289.710938 107.144531 284.804688 110.867188 L 255.792969 133.230469 C 251.441406 136.585938 245.378906 136.585938 241.027344 133.230469 L 212.015625 110.867188 C 207.105469 107.144531 204.238281 101.328125 204.265625 95.167969 L 204.265625 71.984375 Z M 292.554688 71.984375 " fill-opacity="1" fill-rule="nonzero"/><path fill="#ffa501" d="M 174.835938 42.554688 L 321.984375 42.554688 C 324.691406 42.554688 326.886719 44.75 326.886719 47.460938 L 326.886719 57.269531 C 326.886719 65.394531 320.300781 71.984375 312.171875 71.984375 L 184.644531 71.984375 C 176.519531 71.984375 169.929688 65.394531 169.929688 57.269531 L 169.929688 47.460938 C 169.933594 44.75 172.128906 42.554688 174.835938 42.554688 Z M 174.835938 42.554688 " fill-opacity="1" fill-rule="nonzero"/><path fill="#ffa501" d="M 184.644531 228.941406 L 312.171875 228.941406 C 320.300781 228.941406 326.886719 235.527344 326.886719 243.65625 L 326.886719 253.464844 C 326.886719 256.175781 324.691406 258.371094 321.984375 258.371094 L 174.835938 258.371094 C 172.128906 258.371094 169.933594 256.175781 169.933594 253.464844 L 169.933594 243.65625 C 169.933594 235.527344 176.519531 228.941406 184.644531 228.941406 Z M 184.644531 228.941406 " fill-opacity="1" fill-rule="nonzero"/><g clip-path="url(#78dc048dca)"><path fill="#943c13" d="M 66.929688 214.226562 L 52.214844 214.226562 C 44.085938 214.226562 37.5 220.8125 37.5 228.941406 C 37.5 237.066406 44.085938 243.65625 52.214844 243.65625 L 66.929688 243.65625 C 75.054688 243.65625 81.644531 237.066406 81.644531 228.941406 C 81.644531 220.8125 75.054688 214.226562 66.929688 214.226562 Z M 66.929688 233.84375 L 52.214844 233.84375 C 49.503906 233.84375 47.308594 231.648438 47.308594 228.941406 C 47.308594 226.230469 49.503906 224.035156 52.214844 224.035156 L 66.929688 224.035156 C 69.636719 224.035156 71.835938 226.230469 71.835938 228.941406 C 71.835938 231.648438 69.636719 233.84375 66.929688 233.84375 Z M 66.929688 233.84375 " fill-opacity="1" fill-rule="nonzero"/></g><g clip-path="url(#8e2df8132c)"><path fill="#943c13" d="M 52.214844 86.699219 L 66.929688 86.699219 C 75.054688 86.699219 81.644531 80.109375 81.644531 71.984375 C 81.644531 63.855469 75.054688 57.269531 66.929688 57.269531 L 52.214844 57.269531 C 44.085938 57.269531 37.5 63.855469 37.5 71.984375 C 37.5 80.109375 44.085938 86.699219 52.214844 86.699219 Z M 52.214844 67.078125 L 66.929688 67.078125 C 69.636719 67.078125 71.835938 69.273438 71.835938 71.984375 C 71.835938 74.691406 69.636719 76.890625 66.929688 76.890625 L 52.214844 76.890625 C 49.503906 76.890625 47.308594 74.695312 47.308594 71.984375 C 47.308594 69.277344 49.503906 67.078125 52.214844 67.078125 Z M 52.214844 67.078125 " fill-opacity="1" fill-rule="nonzero"/></g><g clip-path="url(#a7d5fab28a)"><path fill="#943c13" d="M 321.984375 37.648438 L 174.835938 37.648438 C 169.417969 37.648438 165.027344 42.042969 165.027344 47.460938 L 165.027344 57.269531 C 165.0625 66.1875 171.105469 73.960938 179.742188 76.191406 L 179.742188 101.609375 C 179.699219 115.378906 186.101562 128.375 197.050781 136.730469 L 214.863281 150.460938 L 197.054688 164.195312 C 186.105469 172.546875 179.699219 185.542969 179.742188 199.316406 L 179.742188 224.734375 C 174.691406 226.054688 170.378906 229.335938 167.753906 233.847656 L 106.167969 233.847656 C 103.460938 233.847656 101.261719 231.648438 101.261719 228.941406 C 101.332031 226.261719 103.488281 224.105469 106.167969 224.035156 L 135.597656 224.035156 C 143.722656 224.035156 150.3125 217.449219 150.3125 209.320312 C 150.207031 201.238281 143.679688 194.710938 135.597656 194.605469 L 71.835938 194.605469 C 69.125 194.605469 66.929688 192.410156 66.929688 189.703125 C 67.03125 187.035156 69.167969 184.898438 71.835938 184.796875 L 111.074219 184.796875 C 119.199219 184.796875 125.789062 178.210938 125.789062 170.082031 C 125.683594 162 119.15625 155.472656 111.074219 155.367188 L 52.214844 155.367188 C 49.503906 155.367188 47.308594 153.171875 47.308594 150.460938 C 47.410156 147.796875 49.550781 145.660156 52.214844 145.558594 L 111.074219 145.558594 C 119.199219 145.558594 125.789062 138.96875 125.789062 130.84375 C 125.683594 122.761719 119.15625 116.234375 111.074219 116.128906 L 71.835938 116.128906 C 69.125 116.128906 66.929688 113.933594 66.929688 111.222656 C 67.058594 108.570312 69.179688 106.449219 71.835938 106.320312 L 135.597656 106.320312 C 143.726562 106.320312 150.3125 99.730469 150.3125 91.605469 C 150.109375 83.5625 143.640625 77.09375 135.597656 76.886719 L 106.167969 76.886719 C 103.460938 76.886719 101.265625 74.691406 101.265625 71.984375 C 101.332031 69.304688 103.488281 67.148438 106.167969 67.078125 L 150.3125 67.078125 C 153.023438 67.078125 155.21875 64.882812 155.21875 62.175781 C 155.21875 59.464844 153.023438 57.269531 150.3125 57.269531 L 106.167969 57.269531 C 98.085938 57.375 91.558594 63.902344 91.453125 71.984375 C 91.453125 80.113281 98.042969 86.699219 106.167969 86.699219 L 135.597656 86.699219 C 138.238281 86.859375 140.34375 88.964844 140.503906 91.605469 C 140.503906 94.3125 138.308594 96.507812 135.597656 96.507812 L 71.835938 96.507812 C 63.75 96.613281 57.226562 103.140625 57.121094 111.222656 C 57.121094 119.351562 63.707031 125.9375 71.835938 125.9375 L 111.074219 125.9375 C 113.738281 126.039062 115.875 128.175781 115.976562 130.84375 C 115.976562 133.550781 113.78125 135.75 111.074219 135.75 L 52.214844 135.75 C 44.132812 135.851562 37.605469 142.378906 37.5 150.460938 C 37.5 158.589844 44.085938 165.175781 52.214844 165.175781 L 111.074219 165.175781 C 113.753906 165.246094 115.910156 167.402344 115.976562 170.082031 C 115.976562 172.789062 113.78125 174.988281 111.074219 174.988281 L 71.835938 174.988281 C 63.75 175.09375 57.226562 181.617188 57.121094 189.699219 C 57.121094 197.828125 63.707031 204.417969 71.835938 204.417969 L 135.597656 204.417969 C 138.277344 204.484375 140.433594 206.640625 140.503906 209.320312 C 140.503906 212.03125 138.308594 214.226562 135.597656 214.226562 L 106.167969 214.226562 C 98.085938 214.332031 91.558594 220.859375 91.453125 228.941406 C 91.453125 237.066406 98.042969 243.65625 106.167969 243.65625 L 165.027344 243.65625 L 165.027344 253.464844 C 165.027344 258.882812 169.417969 263.273438 174.835938 263.273438 L 321.984375 263.273438 C 327.402344 263.273438 331.792969 258.882812 331.792969 253.464844 L 331.792969 243.65625 C 331.757812 234.734375 325.714844 226.960938 317.078125 224.730469 L 317.078125 199.316406 C 317.121094 185.542969 310.71875 172.546875 299.769531 164.195312 L 281.953125 150.460938 L 299.765625 136.730469 C 310.714844 128.378906 317.121094 115.378906 317.078125 101.609375 L 317.078125 76.191406 C 325.714844 73.960938 331.757812 66.1875 331.792969 57.269531 L 331.792969 47.460938 C 331.792969 42.042969 327.402344 37.648438 321.984375 37.648438 Z M 321.984375 243.65625 L 321.984375 253.464844 L 174.835938 253.464844 L 174.835938 243.65625 C 174.835938 238.238281 179.230469 233.847656 184.644531 233.847656 L 312.171875 233.847656 C 317.589844 233.84375 321.984375 238.238281 321.984375 243.65625 Z M 287.648438 224.035156 L 209.171875 224.035156 L 209.171875 205.75 C 209.148438 201.113281 211.3125 196.738281 215.007812 193.9375 L 244.019531 171.578125 C 246.605469 169.582031 250.210938 169.582031 252.800781 171.578125 L 281.828125 193.953125 C 285.515625 196.75 287.671875 201.121094 287.648438 205.75 Z M 293.78125 128.96875 L 270.921875 146.578125 C 268.777344 148.265625 268.40625 151.375 270.097656 153.519531 C 270.339844 153.828125 270.613281 154.105469 270.921875 154.347656 L 293.785156 171.960938 C 302.3125 178.464844 307.304688 188.589844 307.269531 199.316406 L 307.269531 224.035156 L 297.457031 224.035156 L 297.457031 205.75 C 297.492188 198.066406 293.914062 190.816406 287.796875 186.171875 L 258.78125 163.808594 C 252.667969 159.097656 244.148438 159.097656 238.035156 163.808594 L 209.042969 186.15625 C 202.914062 190.800781 199.328125 198.058594 199.359375 205.75 L 199.359375 224.035156 L 189.550781 224.035156 L 189.550781 199.316406 C 189.515625 188.585938 194.507812 178.460938 203.039062 171.957031 L 225.894531 154.347656 C 228.039062 152.65625 228.410156 149.550781 226.722656 147.402344 C 226.480469 147.097656 226.203125 146.820312 225.894531 146.578125 L 203.035156 128.964844 C 194.503906 122.460938 189.515625 112.335938 189.550781 101.609375 L 189.550781 76.890625 L 199.359375 76.890625 L 199.359375 95.175781 C 199.324219 102.859375 202.90625 110.109375 209.023438 114.753906 L 238.035156 137.117188 C 244.179688 141.734375 252.640625 141.734375 258.785156 137.117188 L 287.777344 114.769531 C 293.90625 110.121094 297.492188 102.863281 297.460938 95.175781 L 297.460938 76.890625 L 307.269531 76.890625 L 307.269531 101.609375 C 307.304688 112.339844 302.3125 122.464844 293.78125 128.96875 Z M 209.171875 76.890625 L 287.648438 76.890625 L 287.648438 95.175781 C 287.667969 99.8125 285.507812 104.1875 281.8125 106.984375 L 252.824219 129.371094 C 250.238281 131.367188 246.628906 131.367188 244.042969 129.371094 L 215.015625 106.996094 C 211.3125 104.199219 209.144531 99.816406 209.171875 95.175781 Z M 321.984375 57.269531 C 321.984375 62.6875 317.589844 67.078125 312.171875 67.078125 L 184.644531 67.078125 C 179.226562 67.078125 174.835938 62.6875 174.835938 57.269531 L 174.835938 47.460938 L 321.984375 47.460938 Z M 321.984375 57.269531 " fill-opacity="1" fill-rule="nonzero"/></g><path fill="#bdbcbc" d="M 235.304688 150.613281 L 237.03125 148.644531 L 247.269531 155.410156 L 239.804688 157.058594 L 236.300781 158.535156 L 235.304688 150.613281 " fill-opacity="1" fill-rule="nonzero"/><path fill="#e66f64" d="M 125.285156 273.339844 L 143.648438 264.300781 L 145.316406 263.898438 L 154.730469 283.894531 C 154.730469 283.894531 120.292969 302.085938 104.394531 316.664062 C 104.394531 316.664062 92.179688 317.476562 99.167969 311.953125 C 110.371094 303.101562 125.285156 273.339844 125.285156 273.339844 " fill-opacity="1" fill-rule="nonzero"/><path fill="#e66f64" d="M 185.371094 214.777344 C 185.371094 214.777344 219.828125 243.933594 154.121094 284.273438 C 154.121094 284.273438 141.367188 271.1875 142.609375 265.054688 C 143.125 262.503906 153.410156 254.746094 160.066406 230.558594 C 160.066406 230.558594 161.132812 225.164062 161.519531 223.539062 C 161.910156 221.917969 172.113281 206.632812 185.371094 214.777344 " fill-opacity="1" fill-rule="nonzero"/><path fill="#f68c82" d="M 227.535156 251.574219 L 241.027344 243.734375 L 254.042969 241.625 L 267.027344 247.546875 C 267.027344 247.546875 212.667969 287.703125 199.015625 303.757812 C 199.015625 303.757812 189.972656 303.980469 195.960938 297.066406 C 197.03125 295.835938 227.535156 251.574219 227.535156 251.574219 " fill-opacity="1" fill-rule="nonzero"/><path fill="#f68c82" d="M 173.261719 202.84375 C 173.261719 202.84375 243.410156 216.761719 267.027344 247.546875 C 267.027344 247.546875 248.269531 251.601562 239.296875 250.171875 C 234.25 249.371094 185.042969 240.949219 170.480469 240.738281 C 170.480469 240.738281 166.8125 240.046875 165.09375 239.546875 C 153.230469 236.109375 155.363281 217.003906 173.261719 202.84375 " fill-opacity="1" fill-rule="nonzero"/><path fill="#0c1821" d="M 172.683594 202.367188 C 172.683594 202.367188 221.730469 211.597656 253.488281 234.703125 C 253.488281 234.703125 182.753906 273.152344 142.609375 265.054688 L 158.722656 235.074219 C 158.722656 235.074219 152.445312 222.632812 167.019531 206.417969 L 172.683594 202.367188 " fill-opacity="1" fill-rule="nonzero"/><path fill="#341714" d="M 227.851562 144.945312 C 227.851562 144.945312 204.992188 149.003906 194.917969 132.753906 C 184.84375 116.5 162.101562 120.199219 150.015625 126.035156 C 150.015625 126.035156 167.65625 107.109375 206.351562 107.074219 C 245.042969 107.042969 255.90625 118.160156 255.90625 118.160156 L 227.851562 144.945312 " fill-opacity="1" fill-rule="nonzero"/><path fill="#0c1821" d="M 195.046875 299.035156 C 195.046875 299.035156 194.632812 299.40625 194.070312 299.625 C 189.496094 301.421875 187.613281 306.535156 187.324219 307.996094 C 187.035156 309.449219 207.210938 323.984375 207.210938 323.984375 C 207.210938 323.984375 218.378906 329.597656 220.308594 328.835938 C 222.234375 328.070312 222.34375 326.742188 221.789062 326.195312 C 221.246094 325.652344 201.558594 301.902344 201.558594 301.902344 L 195.046875 299.035156 " fill-opacity="1" fill-rule="nonzero"/><path fill="#f68c82" d="M 142.210938 151.90625 C 142.210938 151.90625 138.820312 156.898438 133.308594 156.738281 C 127.800781 156.589844 131.910156 154.515625 143.417969 147.910156 L 142.210938 151.90625 " fill-opacity="1" fill-rule="nonzero"/><path fill="#f68c82" d="M 138.085938 152.550781 C 138.085938 152.550781 133.574219 153.761719 129.03125 151.914062 C 125.15625 150.339844 125.960938 153.644531 123.152344 152.289062 C 121.199219 151.347656 122.832031 150.222656 122.96875 150.125 C 123.054688 150.0625 122.691406 147.847656 123.039062 147.203125 C 123.257812 146.800781 124.363281 145.769531 124.929688 145.476562 C 125.285156 145.300781 126.808594 141.527344 127.355469 141.257812 C 129.949219 139.949219 131.359375 140.375 140.171875 143.621094 C 140.171875 143.621094 144.257812 150.175781 138.085938 152.550781 " fill-opacity="1" fill-rule="nonzero"/><g clip-path="url(#ec2d91d043)"><path fill="#0c1821" d="M 100.949219 314.132812 C 100.949219 314.132812 99.753906 312.480469 99.15625 312.566406 C 98.554688 312.644531 90.449219 313.066406 89.136719 313.757812 C 87.824219 314.449219 89.238281 339.300781 89.238281 339.300781 C 89.238281 339.300781 91.910156 351.527344 93.710938 352.550781 C 95.523438 353.578125 96.617188 352.824219 96.695312 352.046875 C 96.769531 351.28125 102.820312 321.011719 102.820312 321.011719 L 100.949219 314.132812 " fill-opacity="1" fill-rule="nonzero"/></g><path fill="#bdbcbc" d="M 238.230469 156.003906 C 238.230469 156.003906 236.460938 144.257812 230.773438 149.75 C 225.808594 154.546875 219.890625 178.039062 245.214844 197.679688 C 256.882812 206.722656 271.4375 186.113281 279.792969 172.015625 C 279.792969 172.015625 282.777344 153.730469 273.773438 164.433594 C 255.382812 186.308594 251.945312 181.980469 251.273438 181.457031 C 245.394531 176.898438 243.605469 155.484375 238.230469 156.003906 " fill-opacity="1" fill-rule="nonzero"/><path fill="#e66f64" d="M 273.019531 167.578125 C 273.019531 167.578125 269.179688 162.597656 270.84375 155.824219 C 272.503906 149.046875 273.351562 154.453125 276.519531 169.714844 L 273.019531 167.578125 " fill-opacity="1" fill-rule="nonzero"/><path fill="#e66f64" d="M 272.253906 166.820312 C 272.253906 166.820312 273.597656 163.332031 276.742188 158.078125 C 279.894531 152.835938 280.257812 152.621094 282.636719 149.480469 C 284.285156 147.304688 284.140625 150.046875 284.203125 150.203125 C 284.234375 150.300781 284.296875 149.828125 284.871094 150.257812 C 285.226562 150.527344 285.773438 151.589844 285.894531 152.246094 C 285.964844 152.660156 286.714844 154.105469 286.828125 154.734375 C 287.351562 157.75 286.171875 162.132812 279.792969 172.015625 C 279.792969 172.015625 272.722656 173.957031 272.253906 166.820312 " fill-opacity="1" fill-rule="nonzero"/><path fill="#e66f64" d="M 100.582031 311.613281 C 100.582031 311.613281 103.722656 312.417969 104.394531 316.664062 C 104.394531 316.664062 101.460938 319.902344 97.863281 321.234375 C 95.242188 322.203125 91.382812 316.820312 93.480469 315.460938 C 96.949219 313.214844 100.582031 311.613281 100.582031 311.613281 " fill-opacity="1" fill-rule="nonzero"/><path fill="#c2dae4" d="M 231.5625 148.355469 C 231.5625 148.355469 224.128906 143.964844 211.214844 140.714844 C 211.214844 140.714844 209.9375 147.980469 186.726562 186.164062 C 186.023438 187.324219 181.371094 191.332031 171.390625 200.414062 C 171.390625 200.414062 190.1875 218.667969 212.046875 213.378906 C 212.046875 213.378906 210.851562 213.898438 221.640625 200.445312 C 225.386719 195.777344 234.300781 189.4375 240.117188 180.785156 C 240.117188 180.785156 242.957031 158.8125 231.5625 148.355469 " fill-opacity="1" fill-rule="nonzero"/><path fill="#bdbcbc" d="M 217.488281 215.347656 C 217.488281 215.347656 211.644531 213.507812 212.046875 213.378906 C 212.449219 213.25 215.957031 199.40625 215.957031 199.40625 L 224.492188 193.078125 C 224.492188 193.078125 235.484375 187.339844 240.117188 180.785156 C 240.433594 180.332031 237.703125 153.660156 237.703125 153.660156 C 237.703125 153.660156 238.40625 160.175781 239.355469 163.054688 C 246.136719 183.625 237.601562 187.882812 219.726562 202.84375 L 217.488281 215.347656 " fill-opacity="1" fill-rule="nonzero"/><path fill="#e66f64" d="M 240.433594 146.820312 C 240.433594 146.820312 230.773438 149.75 236.398438 157.8125 C 236.398438 157.8125 228.496094 155.445312 226.679688 149.070312 C 226.679688 149.070312 234.328125 132.289062 232.382812 127.886719 C 230.441406 123.492188 240.433594 146.820312 240.433594 146.820312 " fill-opacity="1" fill-rule="nonzero"/><path fill="#f68c82" d="M 235.386719 114.265625 C 235.386719 114.265625 246.039062 109.832031 253.21875 119.15625 C 253.21875 119.15625 255.5625 127.535156 254.523438 135.445312 C 253.492188 143.292969 249.722656 152.191406 245.597656 150.917969 C 245.597656 150.917969 234.617188 147.011719 230.992188 135.445312 C 227.878906 125.515625 231.171875 116.304688 235.386719 114.265625 " fill-opacity="1" fill-rule="nonzero"/><path fill="#f68c82" d="M 232.855469 134.964844 C 233.320312 138.429688 232.105469 141.453125 230.148438 141.71875 C 228.1875 141.976562 226.222656 139.382812 225.757812 135.917969 C 225.289062 132.460938 226.507812 129.4375 228.46875 129.171875 C 230.429688 128.910156 232.394531 131.503906 232.855469 134.964844 " fill-opacity="1" fill-rule="nonzero"/><path fill="#c2dae4" d="M 176.71875 143.578125 C 178.128906 141.378906 173.605469 139.527344 174.238281 136.6875 C 174.78125 134.238281 176.386719 131.050781 178.136719 129.632812 C 178.269531 129.527344 178.398438 129.472656 178.53125 129.378906 C 172.933594 124.761719 156.59375 133.21875 140.171875 143.621094 C 140.171875 143.621094 136.300781 153.75 142.894531 151.710938 C 154.476562 148.125 173.285156 144.613281 173.808594 144.371094 C 173.917969 143.824219 176.386719 144.101562 176.71875 143.578125 " fill-opacity="1" fill-rule="nonzero"/><path fill="#c2dae4" d="M 171.625 144.152344 C 170.878906 141.660156 168.546875 145.539062 167.972656 143.003906 C 167.59375 141.285156 167.207031 139.566406 166.917969 137.824219 C 167.222656 136.09375 167.582031 134.367188 168.082031 132.675781 C 168.125 132.542969 170.078125 132.480469 170.332031 131.878906 C 171.128906 130.453125 174.476562 129.769531 175.09375 128.226562 C 189.984375 128.394531 216.101562 140.703125 222.773438 150.578125 C 233.769531 166.863281 214.742188 160.285156 214.742188 160.285156 C 202.574219 154.824219 197.867188 153.902344 180.601562 145.738281 C 180.601562 145.738281 171.867188 143.921875 171.625 144.152344 " fill-opacity="1" fill-rule="nonzero"/><path fill="#c2dae4" d="M 224.378906 145.246094 L 228.101562 141.484375 L 237.601562 153.527344 L 237.585938 159.75 L 233.394531 181.386719 L 229.601562 184.621094 C 229.601562 184.621094 239.175781 179.824219 230.398438 158.160156 C 230.285156 157.875 224.378906 145.246094 224.378906 145.246094 " fill-opacity="1" fill-rule="nonzero"/><path fill="#c2dae4" d="M 228.101562 141.484375 L 222.109375 140.710938 L 228.28125 155.777344 L 237.601562 153.527344 L 228.101562 141.484375 " fill-opacity="1" fill-rule="nonzero"/><path fill="#341714" d="M 255.984375 119.765625 C 255.984375 119.765625 254.785156 125.433594 253.628906 127.347656 C 247.078125 138.210938 235.089844 139.914062 226.160156 140.339844 C 226.160156 140.339844 223.882812 133.363281 222.761719 132.628906 C 221.640625 131.894531 226.621094 113.554688 235.925781 111.730469 C 245.222656 109.90625 257.421875 115.710938 255.984375 119.765625 " fill-opacity="1" fill-rule="nonzero"/><path fill="#341714" d="M 252.191406 121.074219 C 252.191406 121.074219 253.335938 128.808594 257.011719 129.941406 C 257.011719 129.941406 258.125 130.007812 259.574219 129.144531 C 259.574219 129.144531 258.261719 128.042969 257.769531 127.664062 C 257.277344 127.277344 262.566406 120.054688 255.90625 118.160156 L 252.191406 121.074219 " fill-opacity="1" fill-rule="nonzero"/><path fill="#f68c82" d="M 198.921875 296.457031 L 195.257812 297.941406 C 195.257812 297.941406 191.527344 303.242188 195.0625 306.105469 C 198.601562 308.972656 210.976562 319.746094 214.707031 319.855469 C 214.707031 319.855469 215.6875 319.765625 214 316.890625 C 212.3125 314.011719 203.023438 303.539062 201.753906 300.765625 C 200.484375 297.992188 198.921875 296.457031 198.921875 296.457031 " fill-opacity="1" fill-rule="nonzero"/><path fill="#e66f64" d="M 93.480469 315.460938 L 92.644531 315.996094 C 92.644531 315.996094 93.226562 337.191406 96.601562 341.699219 C 96.601562 341.699219 98.433594 340.949219 99.066406 337.765625 C 99.703125 334.578125 101.515625 319.195312 101.515625 319.195312 L 93.480469 315.460938 " fill-opacity="1" fill-rule="nonzero"/><path fill="#341714" d="M 212.355469 108.101562 C 212.355469 108.101562 228.738281 108.6875 240.433594 108.101562 C 252.125 107.515625 259.691406 110.832031 255.882812 120.226562 C 252.074219 129.625 225.640625 120.457031 224.378906 120.226562 C 223.109375 120 212.355469 108.101562 212.355469 108.101562 " fill-opacity="1" fill-rule="nonzero"/></svg>