<svg xmlns="http://www.w3.org/2000/svg" xmlns:xlink="http://www.w3.org/1999/xlink" width="500" zoomAndPan="magnify" viewBox="0 0 375 374.999991" height="500" preserveAspectRatio="xMidYMid meet" version="1.0"><defs><clipPath id="0db4558b7c"><path d="M 152 298 L 221 298 L 221 328.203125 L 152 328.203125 Z M 152 298 " clip-rule="nonzero"/></clipPath><clipPath id="158804cf09"><path d="M 58.710938 68 L 160 68 L 160 310 L 58.710938 310 Z M 58.710938 68 " clip-rule="nonzero"/></clipPath><clipPath id="5b955b8961"><path d="M 89 205 L 315 205 L 315 328.203125 L 89 328.203125 Z M 89 205 " clip-rule="nonzero"/></clipPath><clipPath id="8d2d2ca21b"><path d="M 195 254 L 221 254 L 221 328.203125 L 195 328.203125 Z M 195 254 " clip-rule="nonzero"/></clipPath><clipPath id="01137daf00"><path d="M 60 46.953125 L 215 46.953125 L 215 197 L 60 197 Z M 60 46.953125 " clip-rule="nonzero"/></clipPath><clipPath id="aa19f2fded"><path d="M 84 50 L 272 50 L 272 328.203125 L 84 328.203125 Z M 84 50 " clip-rule="nonzero"/></clipPath></defs><rect x="-37.5" width="450" fill="#ffffff" y="-37.499999" height="449.999989" fill-opacity="1"/><rect x="-37.5" width="450" fill="#ffffff" y="-37.499999" height="449.999989" fill-opacity="1"/><g clip-path="url(#0db4558b7c)"><path fill="#e96852" d="M 217.914062 304 C 219.777344 316.085938 220.300781 328.167969 220.300781 328.167969 L 152.542969 328.167969 C 152.042969 313.304688 164.417969 308.554688 164.417969 304 C 164.421875 304 216.050781 291.914062 217.914062 304 Z M 217.914062 304 " fill-opacity="1" fill-rule="nonzero"/></g><g clip-path="url(#158804cf09)"><path fill="#eba921" d="M 159.105469 309.058594 L 109.425781 309.058594 L 109.425781 217.226562 L 159.113281 217.226562 L 159.113281 309.058594 Z M 134 157.773438 C 134 157.773438 127.519531 138.816406 123.730469 127.59375 C 128.535156 121.417969 131.410156 113.65625 131.410156 105.222656 C 131.410156 85.105469 115.132812 68.804688 95.058594 68.804688 C 74.988281 68.796875 58.710938 85.105469 58.710938 105.21875 C 58.710938 109.3125 59.382812 113.253906 60.628906 116.925781 C 65.496094 131.292969 81.28125 126.390625 97.265625 126.390625 C 105.515625 126.390625 110.003906 131.027344 116.105469 126.390625 L 126.035156 146.730469 Z M 134 157.773438 " fill-opacity="1" fill-rule="nonzero"/></g><g clip-path="url(#5b955b8961)"><path fill="#09262c" d="M 314.550781 213.859375 L 314.550781 213.9375 C 314.550781 216.53125 312.453125 218.632812 309.863281 218.632812 L 299.328125 218.632812 L 299.328125 328.167969 L 289.882812 328.167969 L 289.882812 218.632812 L 114.144531 218.632812 L 114.144531 328.167969 L 104.699219 328.167969 L 104.699219 218.632812 L 94.164062 218.632812 C 91.574219 218.632812 89.476562 216.53125 89.476562 213.9375 L 89.476562 213.859375 C 89.476562 211.265625 91.574219 209.164062 94.164062 209.164062 L 133.5 209.164062 L 172.179688 205.726562 L 187.644531 209.164062 L 309.871094 209.164062 C 312.453125 209.164062 314.550781 211.265625 314.550781 213.859375 Z M 314.550781 213.859375 " fill-opacity="1" fill-rule="nonzero"/></g><path fill="#efd2c3" d="M 148.675781 205.441406 L 151.28125 199.429688 L 131.847656 199.429688 C 130.328125 199.429688 128.996094 198.386719 128.632812 196.910156 L 119.066406 158.417969 C 118.546875 156.320312 120.128906 154.292969 122.285156 154.292969 L 179.964844 154.292969 C 182.457031 154.292969 184.628906 155.996094 185.234375 158.421875 L 194.402344 195.308594 C 194.921875 197.402344 193.339844 199.429688 191.183594 199.429688 L 183.519531 199.429688 L 187.636719 209.167969 L 133.5 209.167969 L 133.5 205.441406 Z M 230.105469 208.363281 L 209.355469 221.546875 L 183.804688 221.546875 C 172.308594 221.546875 163.046875 231 163.265625 242.515625 L 164.421875 304 L 217.914062 304 L 217.914062 255.0625 L 235.226562 236.078125 Z M 230.105469 208.363281 " fill-opacity="1" fill-rule="nonzero"/><g clip-path="url(#8d2d2ca21b)"><path fill="#09262c" d="M 217.914062 255.792969 L 217.914062 304 C 219.777344 316.085938 220.300781 328.167969 220.300781 328.167969 L 198.242188 328.167969 C 198.242188 328.167969 197.71875 316.085938 195.855469 304 L 195.855469 254.703125 C 195.855469 254.707031 208.945312 255.355469 217.914062 255.792969 Z M 217.914062 255.792969 " fill-opacity="0.1" fill-rule="nonzero"/></g><g clip-path="url(#01137daf00)"><path fill="#09262c" d="M 60.640625 116.925781 C 60.949219 115.660156 61.34375 114.019531 61.746094 112.332031 C 62.949219 107.296875 66.957031 103.417969 72.023438 102.394531 L 72.535156 102.292969 L 108.488281 103.125 C 112.933594 104.484375 116.34375 108.078125 117.480469 112.59375 L 126.039062 146.734375 L 117.023438 134.242188 C 110.921875 138.878906 103.316406 141.640625 95.066406 141.640625 C 79.074219 141.640625 65.507812 131.292969 60.640625 116.925781 Z M 191.566406 193.511719 L 183.378906 160.546875 C 182.941406 158.78125 181.355469 157.542969 179.539062 157.542969 L 128.734375 157.542969 C 127.339844 157.542969 126.3125 158.855469 126.652344 160.210938 L 135.183594 194.546875 C 135.417969 195.503906 136.277344 196.179688 137.265625 196.179688 L 189.484375 196.179688 C 190.875 196.179688 191.902344 194.867188 191.566406 193.511719 Z M 177.457031 46.992188 C 157.175781 46.992188 140.734375 63.460938 140.734375 83.78125 C 140.734375 91.230469 142.945312 98.164062 146.746094 103.957031 C 153.308594 113.960938 164.613281 109.535156 177.457031 109.535156 C 193.425781 109.535156 207.007812 110.351562 212.066406 96.09375 C 213.429688 92.242188 214.175781 88.097656 214.175781 83.78125 C 214.175781 63.460938 197.734375 46.992188 177.457031 46.992188 Z M 177.457031 46.992188 " fill-opacity="1" fill-rule="nonzero"/></g><path fill="#eba921" d="M 157.257812 164.640625 L 131.101562 164.640625 C 130.546875 164.640625 130.058594 164.257812 129.921875 163.71875 L 129.328125 161.335938 C 129.136719 160.5625 129.714844 159.820312 130.507812 159.820312 L 156.492188 159.820312 C 157.152344 159.820312 157.730469 160.273438 157.886719 160.917969 L 158.4375 163.128906 C 158.628906 163.894531 158.050781 164.640625 157.257812 164.640625 Z M 160.210938 169.84375 L 159.785156 168.140625 C 159.628906 167.5 159.050781 167.042969 158.386719 167.042969 L 132.40625 167.042969 C 131.613281 167.042969 131.035156 167.785156 131.226562 168.554688 L 131.695312 170.429688 C 131.832031 170.96875 132.320312 171.351562 132.875 171.351562 L 159.03125 171.351562 C 159.824219 171.355469 160.402344 170.613281 160.210938 169.84375 Z M 162.792969 179.785156 L 161.675781 174.71875 C 161.519531 174.078125 160.941406 173.621094 160.277344 173.621094 L 134.296875 173.621094 C 133.503906 173.621094 132.925781 174.363281 133.117188 175.136719 L 134.277344 180.371094 C 134.414062 180.910156 134.902344 181.292969 135.457031 181.292969 L 161.613281 181.292969 C 162.402344 181.292969 162.980469 180.550781 162.792969 179.785156 Z M 278.40625 186.21875 C 276.898438 180.472656 270.871094 164.855469 266.691406 154.265625 C 264.167969 147.867188 258.25 143.441406 251.402344 142.832031 L 242.964844 142.085938 L 238.847656 138.328125 L 231.949219 133.757812 L 220.777344 138.328125 L 219.007812 141.820312 L 212.359375 142.457031 C 203.605469 143.292969 195.980469 148.773438 192.375 156.800781 L 180.671875 182.867188 L 157.796875 182.867188 C 157.007812 182.867188 156.429688 183.609375 156.621094 184.378906 L 157.214844 186.765625 C 157.347656 187.304688 157.835938 187.6875 158.394531 187.6875 L 183.667969 187.6875 L 192.441406 200.335938 L 201.433594 197.496094 L 206.269531 188.777344 L 209.359375 221.539062 L 246.703125 221.539062 C 246.703125 221.550781 280.78125 195.25 278.40625 186.21875 Z M 188.273438 70.519531 L 191.820312 65.902344 C 191.820312 58.804688 186.078125 53.046875 178.988281 53.046875 C 171.898438 53.046875 166.15625 58.800781 166.15625 65.902344 C 166.15625 72.269531 171.066406 78.523438 171.066406 78.523438 Z M 188.273438 70.519531 " fill-opacity="1" fill-rule="nonzero"/><path fill="#e96852" d="M 72.527344 102.292969 C 72.726562 101.261719 73.027344 99.417969 74.003906 98.472656 C 75.410156 97.113281 76.207031 95.246094 76.207031 93.289062 L 76.878906 81.1875 C 76.878906 73.6875 82.945312 67.605469 90.433594 67.605469 C 97.921875 67.605469 103.992188 73.6875 103.992188 81.1875 L 103.992188 91.410156 C 103.992188 95.855469 107.683594 97.359375 108.488281 103.125 C 85.703125 118.027344 72.527344 102.292969 72.527344 102.292969 Z M 239.972656 106.792969 C 235.539062 98.878906 225.769531 95.714844 217.5625 99.546875 C 217.398438 99.621094 217.242188 99.699219 217.078125 99.777344 C 212.527344 101.960938 209.578125 106.464844 209.203125 111.460938 C 209.203125 111.558594 209.203125 111.667969 209.203125 111.769531 C 209.191406 115.277344 209.613281 123.894531 213.117188 123.894531 L 218.554688 123.894531 L 220.542969 130.546875 L 223.398438 135.144531 L 237.511719 129.359375 C 237.511719 129.359375 239.699219 125.980469 241.457031 120.289062 C 242.84375 115.785156 242.277344 110.902344 239.972656 106.792969 Z M 208.699219 103.109375 L 201.445312 86.328125 L 185.042969 84.492188 L 171.007812 84.492188 L 161.761719 85.648438 C 156.070312 86.355469 151.292969 90.28125 149.480469 95.734375 L 146.746094 103.964844 C 152.15625 112.210938 160.796875 118.152344 170.859375 119.980469 C 172.179688 131.550781 176.128906 151.832031 176.128906 151.832031 L 180.3125 120.457031 C 192.320312 119.523438 202.699219 112.820312 208.699219 103.109375 Z M 184.167969 255.390625 C 184.167969 257.738281 186.070312 259.640625 188.414062 259.640625 L 241.957031 259.640625 L 247.445312 263.339844 L 256.746094 259.640625 L 271.582031 259.640625 C 281.964844 259.734375 291.328125 253.386719 295.09375 243.691406 L 313.242188 197 C 315.964844 189.988281 310.847656 182.410156 303.339844 182.34375 L 260.601562 181.949219 C 251.566406 181.867188 243.414062 187.382812 240.113281 195.820312 L 223.933594 237.195312 C 220.644531 245.605469 212.546875 251.136719 203.535156 251.136719 L 188.40625 251.136719 C 186.070312 251.132812 184.167969 253.039062 184.167969 255.390625 Z M 184.167969 255.390625 " fill-opacity="1" fill-rule="nonzero"/><path fill="#efd2c3" d="M 148.121094 95.90625 L 111.164062 95.90625 C 109.746094 95.90625 108.59375 94.75 108.59375 93.328125 L 108.59375 87.441406 C 108.59375 86.019531 109.746094 84.867188 111.164062 84.867188 L 148.121094 84.867188 C 149.542969 84.867188 150.691406 86.019531 150.691406 87.441406 L 150.691406 93.328125 C 150.699219 94.75 149.542969 95.90625 148.121094 95.90625 Z M 235.226562 57.871094 L 235.226562 51.984375 C 235.226562 50.5625 234.074219 49.410156 232.65625 49.410156 L 195.699219 49.410156 C 194.277344 49.410156 193.128906 50.5625 193.128906 51.984375 L 193.128906 57.871094 C 193.128906 59.292969 194.277344 60.449219 195.699219 60.449219 L 232.65625 60.449219 C 234.074219 60.449219 235.226562 59.292969 235.226562 57.871094 Z M 235.226562 57.871094 " fill-opacity="1" fill-rule="nonzero"/><path fill="#09262c" d="M 103.1875 81.351562 L 88.429688 81.382812 C 88.5 79.9375 92.769531 76.898438 95.699219 76.898438 C 98.945312 76.898438 102.777344 79.566406 103.1875 81.351562 Z M 103.1875 81.351562 " fill-opacity="1" fill-rule="nonzero"/><path fill="#fbbd9e" d="M 88.429688 81.382812 L 88.429688 84.15625 C 88.089844 83.8125 87.539062 83.808594 87.191406 84.140625 L 86.691406 83.652344 C 86.105469 83.082031 85.179688 83.058594 84.570312 83.59375 L 84.472656 83.679688 C 83.785156 83.183594 82.816406 83.324219 82.300781 84 L 79.855469 87.171875 C 78.808594 88.519531 78.519531 90.308594 79.070312 91.921875 L 80.71875 96.742188 L 63.707031 118.695312 C 60.792969 122.453125 61.347656 128.082031 65.121094 130.980469 C 69.777344 134.554688 76.59375 132.484375 78.46875 126.890625 L 86.945312 101.578125 C 87.664062 99.53125 90.285156 96.164062 90.285156 96.164062 C 90.285156 96.164062 92.035156 97.738281 95.289062 97.609375 C 99.652344 97.609375 103.1875 94.066406 103.1875 89.695312 L 103.1875 81.351562 C 96.921875 77.351562 88.429688 81.382812 88.429688 81.382812 Z M 212.058594 96.09375 C 210.023438 101.84375 206.605469 106.933594 202.199219 110.957031 L 198.8125 92.664062 C 198.402344 90.457031 196.875 88.621094 194.777344 87.824219 C 193.132812 87.199219 191.84375 85.882812 191.242188 84.222656 L 189.578125 79.617188 C 188.492188 80.585938 187.054688 81.171875 185.488281 81.171875 L 185.042969 81.171875 L 185.042969 84.488281 L 182.007812 89.894531 L 171.007812 84.488281 L 171.066406 78.523438 L 173.980469 75.53125 C 171.625 74.972656 169.867188 72.851562 169.867188 70.324219 C 169.867188 68.820312 171.078125 67.605469 172.578125 67.605469 L 176.558594 67.605469 L 176.558594 60.449219 C 176.558594 60.449219 184.640625 64.964844 190.207031 60.554688 C 191.234375 62.382812 191.824219 64.492188 191.824219 66.742188 L 191.824219 68.988281 L 193.625 69.148438 C 195.25 69.289062 196.78125 69.980469 197.949219 71.117188 C 204.050781 77.03125 209.070312 88.238281 212.058594 96.09375 Z M 237.511719 129.351562 L 238.851562 138.335938 L 220.785156 138.335938 L 220.480469 135.820312 L 217.824219 135.820312 C 213.039062 135.820312 209.160156 131.933594 209.160156 127.136719 L 209.160156 112.539062 C 209.160156 112.171875 209.175781 111.8125 209.203125 111.460938 C 209.203125 111.558594 209.203125 111.667969 209.203125 111.769531 C 209.191406 115.277344 212.027344 118.132812 215.535156 118.132812 L 220.972656 118.132812 L 222.960938 124.785156 L 225.816406 129.386719 Z M 180.535156 183.183594 C 180.710938 182.773438 201.433594 197.503906 201.433594 197.503906 L 197.703125 203.445312 C 192.25 212.117188 179.886719 212.660156 173.621094 204.5625 C 171.882812 202.3125 170.175781 199.914062 168.648438 197.445312 C 168.648438 197.445312 166.46875 200.375 164.40625 198.359375 C 164.40625 198.359375 161.574219 200.855469 159.839844 197.503906 C 159.839844 197.503906 158.226562 198.84375 157.023438 196.910156 C 156.402344 195.910156 156.429688 193.472656 156.597656 191.347656 C 156.78125 189.054688 157.746094 186.898438 159.332031 185.234375 L 159.679688 184.871094 C 163.394531 180.960938 169.09375 179.621094 174.125 181.539062 C 175.996094 182.253906 177.972656 183.265625 179.898438 184.695312 Z M 180.535156 183.183594 " fill-opacity="1" fill-rule="nonzero"/><g clip-path="url(#aa19f2fded)"><path fill="#09262c" d="M 89.363281 92.800781 C 89.507812 93.15625 89.351562 93.558594 89.003906 93.726562 L 88.519531 93.957031 L 88.429688 93.667969 C 88.015625 92.320312 87.28125 91.101562 86.308594 90.078125 C 85.179688 88.886719 84.53125 87.785156 84.921875 86.90625 C 85.996094 87.867188 86.9375 86.800781 86.9375 86.800781 Z M 197.714844 75.121094 L 196.957031 74.921875 L 195.339844 76.15625 C 194.546875 76.632812 193.707031 75.265625 194.195312 74.609375 C 193.25 74.984375 192.285156 73.96875 192.902344 72.734375 C 192.902344 72.734375 192.15625 72.824219 191.757812 72.195312 L 191.65625 75.253906 C 191.589844 76.765625 190.984375 78.140625 190.023438 79.175781 L 193.027344 82.246094 L 196.109375 83.324219 C 196.398438 83.425781 196.714844 83.246094 196.769531 82.9375 L 198.078125 75.683594 C 198.128906 75.433594 197.972656 75.1875 197.714844 75.121094 Z M 261.371094 323.152344 C 258.375 321.589844 255.148438 320.660156 251.875 320.335938 L 251.875 264.230469 C 254.070312 263.539062 255.886719 261.882812 256.746094 259.65625 L 241.878906 259.65625 C 242.894531 262.285156 245.246094 264.109375 247.972656 264.5 L 247.972656 320.234375 C 244.285156 320.425781 240.625 321.394531 237.253906 323.148438 L 227.148438 328.164062 L 271.464844 328.164062 Z M 223.722656 115.042969 L 223.722656 98.292969 C 223.722656 97.769531 223.269531 97.367188 222.753906 97.421875 C 221.867188 97.511719 221.136719 97.664062 220.644531 97.789062 C 220.25 97.882812 219.980469 98.238281 219.980469 98.636719 L 219.980469 115.042969 C 219.019531 115.3125 218.3125 116.183594 218.3125 117.230469 L 218.3125 124.113281 C 218.3125 125.371094 219.335938 126.394531 220.59375 126.394531 L 221.445312 126.394531 C 221.230469 127.378906 220.75 128.277344 220.019531 129.011719 C 219.027344 130 217.707031 130.546875 216.304688 130.546875 C 216.296875 130.546875 216.292969 130.546875 216.289062 130.546875 C 215.359375 130.539062 214.660156 130.539062 214.121094 130.546875 C 213.984375 130.152344 213.617188 129.863281 213.175781 129.863281 L 211.578125 129.863281 C 211.023438 129.863281 210.574219 130.316406 210.574219 130.871094 C 210.574219 131.429688 211.023438 131.878906 211.578125 131.878906 L 213.175781 131.878906 C 213.648438 131.878906 214.042969 131.550781 214.148438 131.113281 C 214.683594 131.113281 215.371094 131.113281 216.289062 131.113281 C 216.292969 131.113281 216.304688 131.113281 216.308594 131.113281 C 217.863281 131.113281 219.324219 130.511719 220.425781 129.410156 C 221.261719 128.578125 221.808594 127.53125 222.03125 126.394531 L 223.113281 126.394531 C 224.371094 126.394531 225.390625 125.371094 225.390625 124.113281 L 225.390625 117.230469 C 225.386719 116.183594 224.679688 115.3125 223.722656 115.042969 Z M 136.625 230.089844 C 134.632812 230.089844 133.015625 231.707031 133.015625 233.703125 C 133.015625 235.699219 134.632812 237.320312 136.625 237.320312 C 138.617188 237.320312 140.234375 235.699219 140.234375 233.703125 C 140.234375 231.707031 138.617188 230.089844 136.625 230.089844 Z M 136.625 260.230469 C 134.632812 260.230469 133.015625 261.851562 133.015625 263.847656 C 133.015625 265.84375 134.632812 267.460938 136.625 267.460938 C 138.617188 267.460938 140.234375 265.84375 140.234375 263.847656 C 140.234375 261.851562 138.617188 260.230469 136.625 260.230469 Z M 136.625 290.375 C 134.632812 290.375 133.015625 291.992188 133.015625 293.988281 C 133.015625 295.984375 134.632812 297.605469 136.625 297.605469 C 138.617188 297.605469 140.234375 295.984375 140.234375 293.988281 C 140.234375 291.992188 138.617188 290.375 136.625 290.375 Z M 124.308594 86.339844 C 123.902344 86.339844 123.507812 86.433594 123.125 86.625 C 122.746094 86.816406 122.433594 87.082031 122.195312 87.40625 C 121.9375 87.765625 121.777344 88.207031 121.726562 88.730469 C 121.707031 88.941406 121.878906 89.128906 122.09375 89.128906 L 123.371094 89.128906 C 123.550781 89.128906 123.699219 89 123.730469 88.824219 C 123.792969 88.503906 123.972656 88.339844 124.269531 88.339844 C 124.410156 88.339844 124.527344 88.390625 124.625 88.488281 C 124.71875 88.582031 124.769531 88.699219 124.769531 88.839844 C 124.769531 89.082031 124.625 89.269531 124.328125 89.398438 L 123.933594 89.570312 C 123.648438 89.703125 123.453125 89.875 123.34375 90.105469 C 123.238281 90.335938 123.183594 90.691406 123.183594 91.175781 C 123.183594 91.378906 123.34375 91.539062 123.546875 91.539062 L 124.984375 91.539062 C 125.167969 91.539062 125.320312 91.398438 125.34375 91.21875 C 125.355469 91.117188 125.375 91.046875 125.40625 91 C 125.457031 90.917969 125.59375 90.816406 125.824219 90.695312 C 126.53125 90.34375 126.886719 89.722656 126.886719 88.851562 C 126.886719 88.144531 126.640625 87.546875 126.144531 87.0625 C 125.644531 86.582031 125.035156 86.339844 124.308594 86.339844 Z M 124.421875 91.851562 C 123.949219 91.808594 123.480469 92.019531 123.191406 92.402344 C 123.011719 92.636719 122.925781 92.914062 122.925781 93.234375 C 122.925781 93.632812 123.054688 93.957031 123.304688 94.21875 C 123.5625 94.476562 123.890625 94.601562 124.289062 94.601562 C 124.636719 94.601562 124.9375 94.488281 125.191406 94.269531 C 125.5 94.003906 125.679688 93.605469 125.667969 93.199219 C 125.65625 92.839844 125.523438 92.523438 125.257812 92.261719 C 125.023438 92.011719 124.742188 91.878906 124.421875 91.851562 Z M 130.390625 91.851562 C 129.917969 91.808594 129.445312 92.019531 129.160156 92.402344 C 128.980469 92.636719 128.890625 92.914062 128.890625 93.234375 C 128.890625 93.632812 129.019531 93.957031 129.273438 94.21875 C 129.53125 94.476562 129.855469 94.601562 130.253906 94.601562 C 130.601562 94.601562 130.90625 94.488281 131.160156 94.269531 C 131.46875 94.003906 131.648438 93.605469 131.636719 93.199219 C 131.625 92.839844 131.488281 92.523438 131.226562 92.261719 C 130.996094 92.011719 130.714844 91.878906 130.390625 91.851562 Z M 130.28125 86.339844 C 129.871094 86.339844 129.480469 86.433594 129.097656 86.625 C 128.714844 86.816406 128.40625 87.082031 128.167969 87.40625 C 127.910156 87.765625 127.75 88.207031 127.699219 88.730469 C 127.679688 88.941406 127.851562 89.128906 128.066406 89.128906 L 129.34375 89.128906 C 129.523438 89.128906 129.671875 89 129.703125 88.824219 C 129.765625 88.503906 129.945312 88.339844 130.242188 88.339844 C 130.382812 88.339844 130.5 88.390625 130.597656 88.488281 C 130.691406 88.582031 130.742188 88.699219 130.742188 88.839844 C 130.742188 89.082031 130.597656 89.269531 130.300781 89.398438 L 129.90625 89.570312 C 129.621094 89.703125 129.425781 89.875 129.316406 90.105469 C 129.210938 90.335938 129.15625 90.691406 129.15625 91.175781 C 129.15625 91.378906 129.316406 91.539062 129.519531 91.539062 L 130.957031 91.539062 C 131.140625 91.539062 131.292969 91.398438 131.316406 91.21875 C 131.328125 91.117188 131.347656 91.046875 131.378906 91 C 131.429688 90.917969 131.566406 90.816406 131.796875 90.695312 C 132.503906 90.34375 132.859375 89.722656 132.859375 88.851562 C 132.859375 88.144531 132.613281 87.546875 132.117188 87.0625 C 131.617188 86.582031 131.007812 86.339844 130.28125 86.339844 Z M 136.363281 91.851562 C 135.890625 91.808594 135.417969 92.019531 135.132812 92.402344 C 134.953125 92.636719 134.863281 92.914062 134.863281 93.234375 C 134.863281 93.632812 134.992188 93.957031 135.246094 94.21875 C 135.503906 94.476562 135.828125 94.601562 136.226562 94.601562 C 136.574219 94.601562 136.878906 94.488281 137.128906 94.269531 C 137.4375 94.003906 137.617188 93.605469 137.609375 93.199219 C 137.597656 92.839844 137.460938 92.523438 137.199219 92.261719 C 136.960938 92.011719 136.683594 91.878906 136.363281 91.851562 Z M 134.03125 89.128906 L 135.3125 89.128906 C 135.492188 89.128906 135.636719 89 135.671875 88.824219 C 135.734375 88.503906 135.914062 88.339844 136.210938 88.339844 C 136.351562 88.339844 136.46875 88.390625 136.5625 88.488281 C 136.660156 88.582031 136.710938 88.699219 136.710938 88.839844 C 136.710938 89.082031 136.5625 89.269531 136.265625 89.398438 L 135.875 89.570312 C 135.585938 89.703125 135.390625 89.875 135.285156 90.105469 C 135.175781 90.335938 135.121094 90.691406 135.121094 91.175781 C 135.121094 91.378906 135.285156 91.539062 135.484375 91.539062 L 136.921875 91.539062 C 137.109375 91.539062 137.261719 91.398438 137.28125 91.21875 C 137.292969 91.117188 137.316406 91.046875 137.34375 91 C 137.394531 90.917969 137.535156 90.816406 137.765625 90.695312 C 138.472656 90.34375 138.824219 89.722656 138.824219 88.851562 C 138.824219 88.144531 138.578125 87.546875 138.085938 87.0625 C 137.589844 86.585938 136.980469 86.34375 136.253906 86.34375 C 135.84375 86.34375 135.453125 86.441406 135.070312 86.632812 C 134.6875 86.824219 134.378906 87.085938 134.140625 87.414062 C 133.878906 87.773438 133.722656 88.210938 133.671875 88.734375 C 133.652344 88.941406 133.820312 89.128906 134.03125 89.128906 Z M 208.316406 56.308594 C 207.84375 56.269531 207.375 56.476562 207.085938 56.859375 C 206.90625 57.097656 206.816406 57.371094 206.816406 57.691406 C 206.816406 58.089844 206.945312 58.417969 207.199219 58.675781 C 207.457031 58.933594 207.785156 59.058594 208.183594 59.058594 C 208.53125 59.058594 208.832031 58.945312 209.085938 58.726562 C 209.394531 58.460938 209.574219 58.0625 209.5625 57.660156 C 209.550781 57.296875 209.417969 56.984375 209.152344 56.71875 C 208.921875 56.476562 208.640625 56.335938 208.316406 56.308594 Z M 210.039062 51.515625 C 209.546875 51.039062 208.933594 50.796875 208.210938 50.796875 C 207.800781 50.796875 207.40625 50.894531 207.027344 51.085938 C 206.644531 51.277344 206.335938 51.539062 206.09375 51.867188 C 205.835938 52.226562 205.679688 52.664062 205.628906 53.1875 C 205.605469 53.402344 205.78125 53.585938 205.992188 53.585938 L 207.273438 53.585938 C 207.453125 53.585938 207.597656 53.457031 207.632812 53.285156 C 207.695312 52.960938 207.875 52.800781 208.171875 52.800781 C 208.3125 52.800781 208.429688 52.851562 208.523438 52.945312 C 208.621094 53.042969 208.671875 53.160156 208.671875 53.300781 C 208.671875 53.542969 208.523438 53.726562 208.226562 53.855469 L 207.832031 54.03125 C 207.546875 54.160156 207.351562 54.335938 207.246094 54.566406 C 207.136719 54.796875 207.082031 55.148438 207.082031 55.632812 C 207.082031 55.835938 207.246094 56 207.445312 56 L 208.882812 56 C 209.070312 56 209.21875 55.859375 209.242188 55.679688 C 209.253906 55.578125 209.277344 55.503906 209.304688 55.460938 C 209.355469 55.375 209.496094 55.273438 209.726562 55.15625 C 210.433594 54.800781 210.785156 54.183594 210.785156 53.3125 C 210.78125 52.597656 210.535156 52 210.039062 51.515625 Z M 214.289062 56.308594 C 213.816406 56.269531 213.347656 56.476562 213.058594 56.859375 C 212.878906 57.097656 212.789062 57.371094 212.789062 57.691406 C 212.789062 58.089844 212.917969 58.417969 213.171875 58.675781 C 213.429688 58.933594 213.753906 59.058594 214.152344 59.058594 C 214.503906 59.058594 214.804688 58.945312 215.058594 58.726562 C 215.367188 58.460938 215.546875 58.0625 215.535156 57.660156 C 215.523438 57.296875 215.390625 56.984375 215.125 56.71875 C 214.890625 56.476562 214.609375 56.335938 214.289062 56.308594 Z M 211.960938 53.59375 L 213.238281 53.59375 C 213.417969 53.59375 213.566406 53.464844 213.597656 53.289062 C 213.660156 52.96875 213.839844 52.804688 214.136719 52.804688 C 214.277344 52.804688 214.394531 52.855469 214.492188 52.953125 C 214.585938 53.046875 214.636719 53.164062 214.636719 53.304688 C 214.636719 53.546875 214.492188 53.734375 214.195312 53.863281 L 213.800781 54.035156 C 213.515625 54.167969 213.316406 54.339844 213.210938 54.570312 C 213.105469 54.800781 213.046875 55.15625 213.046875 55.640625 C 213.046875 55.84375 213.210938 56.003906 213.414062 56.003906 L 214.851562 56.003906 C 215.035156 56.003906 215.1875 55.863281 215.210938 55.683594 C 215.21875 55.582031 215.242188 55.511719 215.269531 55.464844 C 215.320312 55.382812 215.460938 55.28125 215.691406 55.160156 C 216.398438 54.808594 216.753906 54.1875 216.753906 53.316406 C 216.753906 52.609375 216.507812 52.011719 216.011719 51.527344 C 215.519531 51.050781 214.90625 50.808594 214.183594 50.808594 C 213.773438 50.808594 213.378906 50.90625 212.996094 51.097656 C 212.617188 51.285156 212.308594 51.550781 212.066406 51.878906 C 211.808594 52.238281 211.652344 52.675781 211.601562 53.199219 C 211.578125 53.40625 211.746094 53.59375 211.960938 53.59375 Z M 217.933594 53.59375 L 219.210938 53.59375 C 219.390625 53.59375 219.539062 53.464844 219.570312 53.289062 C 219.632812 52.96875 219.8125 52.804688 220.109375 52.804688 C 220.25 52.804688 220.367188 52.855469 220.464844 52.953125 C 220.558594 53.046875 220.609375 53.164062 220.609375 53.304688 C 220.609375 53.546875 220.464844 53.734375 220.164062 53.863281 L 219.773438 54.035156 C 219.488281 54.167969 219.289062 54.339844 219.183594 54.570312 C 219.078125 54.800781 219.019531 55.15625 219.019531 55.640625 C 219.019531 55.84375 219.183594 56.003906 219.386719 56.003906 L 220.824219 56.003906 C 221.007812 56.003906 221.160156 55.863281 221.183594 55.683594 C 221.191406 55.582031 221.214844 55.511719 221.242188 55.464844 C 221.292969 55.382812 221.433594 55.28125 221.664062 55.160156 C 222.371094 54.808594 222.726562 54.1875 222.726562 53.316406 C 222.726562 52.609375 222.476562 52.011719 221.984375 51.527344 C 221.492188 51.050781 220.878906 50.808594 220.15625 50.808594 C 219.746094 50.808594 219.351562 50.90625 218.96875 51.097656 C 218.589844 51.285156 218.28125 51.550781 218.039062 51.878906 C 217.78125 52.238281 217.625 52.675781 217.574219 53.199219 C 217.550781 53.40625 217.71875 53.59375 217.933594 53.59375 Z M 220.253906 56.308594 C 219.785156 56.269531 219.3125 56.476562 219.027344 56.859375 C 218.847656 57.097656 218.757812 57.371094 218.757812 57.691406 C 218.757812 58.089844 218.886719 58.417969 219.136719 58.675781 C 219.398438 58.933594 219.722656 59.058594 220.121094 59.058594 C 220.46875 59.058594 220.773438 58.945312 221.023438 58.726562 C 221.332031 58.460938 221.511719 58.0625 221.5 57.660156 C 221.492188 57.296875 221.355469 56.984375 221.09375 56.71875 C 220.863281 56.476562 220.582031 56.335938 220.253906 56.308594 Z M 220.253906 56.308594 " fill-opacity="1" fill-rule="nonzero"/></g><path fill="#09262c" d="M 323.894531 45.414062 C 328.046875 48.636719 331.160156 52.46875 332.972656 57.34375 C 333.78125 59.523438 335.140625 61.507812 335.851562 63.710938 C 337.480469 68.761719 336.847656 73.777344 334.828125 78.589844 C 330.925781 87.878906 324.699219 95.472656 317.285156 102.152344 C 314.121094 105.003906 310.832031 107.71875 307.65625 110.566406 C 302.585938 115.117188 301.261719 120.761719 302.789062 127.285156 C 303.597656 130.746094 304.285156 134.238281 304.859375 137.746094 C 305.707031 142.96875 302.894531 146.183594 297.652344 146.425781 C 292.617188 146.65625 288.601562 144.386719 284.933594 141.390625 C 278.65625 136.257812 276.253906 129.507812 276.84375 121.496094 C 277.492188 112.707031 281.90625 105.578125 286.683594 98.609375 C 291.769531 91.195312 297.164062 83.984375 302.0625 76.449219 C 304.945312 72.011719 307.140625 67.121094 309.601562 62.410156 C 310.058594 61.539062 310.339844 60.566406 310.625 59.621094 C 311.621094 56.332031 310.359375 53.886719 307.097656 52.710938 C 304.210938 51.671875 301.191406 51.699219 298.269531 52.15625 C 288.746094 53.640625 281.765625 59.105469 276.332031 66.785156 C 275.945312 67.332031 275.628906 68.242188 275.804688 68.824219 C 277.808594 75.394531 277.214844 81.976562 276.136719 88.589844 C 275.855469 90.308594 275.761719 92.054688 275.617188 93.792969 C 275.457031 95.703125 275.492188 97.648438 275.160156 99.53125 C 274.714844 102.066406 273.171875 103.835938 270.71875 104.746094 C 269.414062 105.230469 268.144531 105.953125 266.800781 106.144531 C 265.410156 106.34375 263.777344 106.410156 262.558594 105.855469 C 259.972656 104.679688 257.414062 103.289062 255.140625 101.589844 C 246.679688 95.269531 242.859375 86.613281 243.386719 76.1875 C 243.519531 73.558594 244.671875 70.847656 245.878906 68.4375 C 248.808594 62.597656 253.355469 58.089844 258.582031 54.234375 C 268.9375 46.589844 280.433594 41.472656 293.074219 39.144531 C 301.765625 37.542969 310.40625 37.636719 318.492188 41.917969 C 320.351562 42.902344 322.039062 44.1875 323.894531 45.414062 Z M 288.714844 110.382812 C 288.027344 111.664062 287.328125 112.941406 286.664062 114.234375 C 286.566406 114.417969 286.613281 114.667969 286.59375 114.886719 C 286.722656 114.796875 286.914062 114.742188 286.96875 114.617188 C 287.621094 113.160156 288.253906 111.695312 288.976562 110.144531 C 288.984375 110.066406 288.988281 109.992188 288.992188 109.917969 C 288.964844 110.027344 288.9375 110.136719 288.714844 110.382812 Z M 321.457031 64.621094 C 320.277344 68.578125 319.09375 72.535156 317.925781 76.496094 C 317.832031 76.804688 317.835938 77.148438 317.796875 77.476562 C 318.097656 77.265625 318.453125 77.101562 318.6875 76.832031 C 319.292969 76.117188 319.867188 75.378906 320.402344 74.617188 C 324.089844 69.40625 327.253906 64.019531 326.792969 57.25 C 326.667969 55.40625 326.09375 53.875 324.539062 52.957031 C 322.390625 51.683594 320.121094 50.601562 317.898438 49.453125 C 317.714844 49.359375 317.464844 49.394531 317.242188 49.367188 C 317.332031 49.558594 317.390625 49.769531 317.511719 49.929688 C 318.035156 50.628906 318.609375 51.296875 319.109375 52.015625 C 321.695312 55.753906 321.773438 59.996094 321.457031 64.621094 Z M 290.316406 138.878906 C 288.882812 138.121094 287.449219 137.363281 286.007812 136.617188 C 285.765625 136.492188 285.503906 136.402344 285.25 136.296875 C 285.277344 136.5625 285.234375 136.851562 285.332031 137.082031 C 286.390625 139.511719 288.039062 141.21875 290.796875 141.71875 C 294.886719 142.460938 298.078125 140.507812 298.585938 136.746094 C 298.71875 135.78125 298.695312 134.746094 298.488281 133.796875 C 297.535156 129.425781 296.488281 125.078125 295.476562 120.71875 C 295.441406 120.558594 295.410156 120.390625 295.378906 120.230469 C 295.351562 120.402344 295.292969 120.570312 295.300781 120.742188 C 295.363281 122.605469 295.546875 124.46875 295.476562 126.324219 C 295.363281 129.390625 295.3125 132.488281 294.789062 135.492188 C 294.4375 137.523438 292.988281 139.019531 290.316406 138.878906 Z M 311.019531 48.523438 C 309.402344 48.515625 307.785156 48.5 306.167969 48.5 C 306.015625 48.5 305.867188 48.582031 305.71875 48.625 C 305.828125 48.742188 305.917969 48.882812 306.042969 48.972656 C 308.878906 50.992188 311.710938 53.007812 314.5625 55 C 314.667969 55.074219 315.132812 54.914062 315.148438 54.816406 C 315.488281 52.691406 313.394531 49.316406 311.019531 48.523438 Z M 310.777344 43.261719 C 310.65625 43.351562 310.539062 43.4375 310.414062 43.523438 C 310.472656 43.539062 310.53125 43.546875 310.582031 43.570312 C 312.449219 44.242188 314.351562 44.824219 316.164062 45.613281 C 318.246094 46.519531 320.246094 47.617188 322.292969 48.613281 C 322.519531 48.722656 322.816406 48.691406 323.085938 48.722656 C 322.988281 48.476562 322.957031 48.140625 322.777344 47.996094 C 321.742188 47.15625 320.785156 46.027344 319.589844 45.613281 C 316.804688 44.640625 313.894531 44.023438 310.777344 43.261719 Z M 259.941406 88.082031 C 259.871094 86.34375 259.808594 84.601562 259.738281 82.863281 C 259.730469 82.652344 259.691406 82.445312 259.667969 82.238281 C 259.59375 82.441406 259.464844 82.640625 259.453125 82.851562 C 259.226562 85.910156 258.988281 88.96875 258.84375 92.03125 C 258.820312 92.460938 259.351562 93.320312 259.5 93.292969 C 260.328125 93.136719 260.742188 92.636719 260.492188 91.65625 C 260.226562 90.59375 260.15625 89.484375 259.941406 88.082031 Z M 262.847656 100.597656 C 263.277344 100.445312 263.792969 100.390625 264.121094 100.113281 C 264.484375 99.816406 264.679688 99.3125 264.945312 98.894531 C 264.445312 98.722656 263.957031 98.457031 263.441406 98.390625 C 262.777344 98.308594 262.085938 98.34375 261.417969 98.414062 C 260.984375 98.457031 260.5625 98.660156 260.136719 98.792969 C 260.375 99.417969 260.464844 100.203125 260.90625 100.617188 C 261.214844 100.910156 262.003906 100.683594 262.847656 100.597656 Z M 253.628906 95.546875 C 253.101562 94.054688 252.582031 92.554688 252.03125 91.066406 C 251.941406 90.828125 251.679688 90.652344 251.496094 90.449219 C 251.484375 90.714844 251.382812 91.023438 251.480469 91.242188 C 252.113281 92.65625 252.785156 94.050781 253.628906 95.546875 Z M 262.902344 67.257812 C 262.808594 67.054688 262.710938 66.859375 262.621094 66.65625 C 262.476562 67.019531 262.332031 67.382812 262.191406 67.746094 C 262.421875 67.65625 262.652344 67.5625 262.902344 67.257812 Z M 262.902344 67.257812 " fill-opacity="1" fill-rule="nonzero"/><path fill="#09262c" d="M 289.046875 184.476562 C 283.726562 181.628906 279.179688 178.171875 276.882812 172.460938 C 273.246094 163.421875 279.035156 153.78125 288.746094 152.664062 C 297.398438 151.671875 304.1875 155.207031 308.347656 162.414062 C 311.203125 167.355469 312.601562 173.234375 309.414062 178.972656 C 306.328125 184.519531 299.058594 187.460938 292.636719 185.730469 C 291.457031 185.414062 290.320312 184.9375 289.046875 184.476562 Z M 302.617188 159.742188 L 302.679688 159.769531 C 302.679688 159.769531 302.570312 159.6875 302.511719 159.453125 C 301.402344 158.835938 300.296875 158.207031 299.171875 157.613281 C 299.050781 157.550781 298.804688 157.710938 298.621094 157.769531 C 298.734375 157.886719 298.832031 158.042969 298.972656 158.105469 C 300.171875 158.640625 301.378906 159.152344 302.617188 159.742188 Z M 288.957031 173.441406 C 288.386719 173.394531 287.796875 171.84375 287.300781 173.253906 C 286.289062 176.113281 288.800781 179.007812 291.765625 178.542969 C 292.738281 178.390625 293.683594 178.09375 294.632812 177.828125 C 294.886719 177.757812 295.105469 177.542969 295.339844 177.394531 C 295.109375 177.238281 294.890625 177.0625 294.652344 176.917969 C 292.828125 175.804688 290.996094 174.699219 288.957031 173.441406 Z M 301.992188 166.90625 C 302.34375 167.597656 302.691406 168.285156 303.042969 168.976562 C 303.316406 168.164062 303.683594 167.367188 303.839844 166.53125 C 303.941406 165.988281 303.839844 165.359375 303.660156 164.828125 C 303.007812 162.921875 300 161.535156 297.996094 162.160156 C 297.886719 162.191406 297.78125 162.230469 297.667969 162.265625 C 297.859375 162.34375 298.046875 162.414062 298.234375 162.492188 C 299.476562 163.023438 300.78125 163.449219 301.9375 164.125 C 302.851562 164.65625 303.640625 165.5 301.859375 166.09375 C 301.8125 166.109375 301.875 166.480469 301.992188 166.90625 Z M 301.992188 166.90625 " fill-opacity="1" fill-rule="nonzero"/></svg>