<svg height="512" viewBox="0 0 512 512" width="512" xmlns="http://www.w3.org/2000/svg"><g id="Layer_2" data-name="Layer 2"><circle cx="286.338" cy="256" fill="#ff9f41" r="225.662"/><rect fill="#ff9f41" height="204.592" rx="14.028" transform="matrix(0 -1 1 0 144.965 233.698)" width="28.057" x="175.303" y="-57.929"/><rect fill="#ff9f41" height="115.02" rx="14.028" transform="matrix(0 -1 1 0 -90.015 205.034)" width="28.057" x="43.481" y="90.015"/><rect fill="#ff9f41" height="28.057" rx="14.028" transform="matrix(0 -1 1 0 2.281 91.015)" width="28.057" x="32.619" y="30.338"/><rect fill="#ff9f41" height="115.02" rx="14.028" transform="matrix(0 -1 1 0 -180.631 331.34)" width="28.057" x="61.327" y="198.476"/><circle cx="286.338" cy="256" fill="#e05353" r="190.171" transform="matrix(.16 -.987 .987 .16 -12.223 497.634)"/><path d="m286.337 415.029c-87.686 0-159.025-71.341-159.025-159.029s71.339-159.028 159.025-159.028 159.029 71.341 159.029 159.028-71.341 159.029-159.029 159.029z" fill="#fff4f6"/><g fill="#4f1968"><rect height="116.461" rx="7.29" width="15.971" x="278.353" y="147.524"/><rect height="93.885" rx="7.29" transform="matrix(-.707 .707 -.707 -.707 737.646 263.871)" width="15.971" x="306.188" y="237.764"/><path d="m455.515 263.084h-32.226a7.1 7.1 0 1 1 0-14.2h32.226a7.1 7.1 0 0 1 0 14.2z"/><path d="m149.405 263.084h-33.08a7.1 7.1 0 1 1 0-14.2h33.08a7.1 7.1 0 0 1 0 14.2z"/><path d="m285.9 432.7a7.1 7.1 0 0 1 -7.1-7.1v-32.654a7.1 7.1 0 1 1 14.2 0v32.654a7.1 7.1 0 0 1 -7.1 7.1z"/><path d="m285.9 126.16a7.1 7.1 0 0 1 -7.1-7.1v-32.651a7.1 7.1 0 1 1 14.2 0v32.652a7.1 7.1 0 0 1 -7.1 7.099z"/><path d="m165.979 383.009a7.1 7.1 0 0 1 -5.019-12.117l23.354-23.354a7.1 7.1 0 0 1 10.037 10.037l-23.351 23.354a7.07 7.07 0 0 1 -5.021 2.08z"/><path d="m382.9 166.088a7.1 7.1 0 0 1 -5.018-12.118l22.928-22.928a7.1 7.1 0 0 1 10.037 10.037l-22.928 22.928a7.071 7.071 0 0 1 -5.019 2.081z"/><path d="m189.332 166.513a7.067 7.067 0 0 1 -5.018-2.081l-23.354-23.353a7.1 7.1 0 1 1 10.04-10.037l23.351 23.358a7.1 7.1 0 0 1 -5.019 12.117z"/><path d="m405.828 383.009a7.077 7.077 0 0 1 -5.018-2.079l-22.928-22.93a7.1 7.1 0 0 1 10.037-10.041l22.928 22.927a7.1 7.1 0 0 1 -5.019 12.119z"/></g><path d="m512 256c0 124.634-101.028 225.661-225.662 225.661a224.725 224.725 0 0 1 -150.998-57.977 224.542 224.542 0 0 0 123.687 36.9c124.634 0 225.662-101.028 225.662-225.662a224.973 224.973 0 0 0 -74.669-167.687 225.448 225.448 0 0 1 101.98 188.765z" fill="#ff8641"/><circle cx="286.339" cy="256" fill="#b250b5" r="13.459" transform="matrix(.16 -.987 .987 .16 -12.222 497.635)"/></g></svg>