<svg xmlns="http://www.w3.org/2000/svg" xmlns:xlink="http://www.w3.org/1999/xlink" width="500" zoomAndPan="magnify" viewBox="0 0 375 374.999991" height="500" preserveAspectRatio="xMidYMid meet" version="1.0">
    <defs>
        <clipPath id="ac8c5a3fc6">
            <path d="M 62.53125 66 L 312.28125 66 L 312.28125 234 L 62.53125 234 Z M 62.53125 66 " clip-rule="nonzero"/>
        </clipPath>
        <clipPath id="7045b7b0d1">
            <path d="M 140 175 L 235 175 L 235 269.464844 L 140 269.464844 Z M 140 175 " clip-rule="nonzero"/>
        </clipPath>
        <clipPath id="2b78713189">
            <path d="M 194.113281 122 L 219 122 L 219 186 L 194.113281 186 Z M 194.113281 122 " clip-rule="nonzero"/>
        </clipPath>
        <clipPath id="fb7096e193">
            <path d="M 244.691406 278.277344 L 306.347656 278.277344 L 306.347656 337.480469 L 244.691406 337.480469 Z M 244.691406 278.277344 " clip-rule="nonzero"/>
        </clipPath>
        <clipPath id="1d4ccf6f0c">
            <path d="M 236.507812 289.222656 L 310.710938 289.222656 L 310.710938 337.480469 L 236.507812 337.480469 Z M 236.507812 289.222656 " clip-rule="nonzero"/>
        </clipPath>
        <clipPath id="8d0cbe769e">
            <path d="M 266 282.65625 L 323.261719 282.65625 L 323.261719 337.480469 L 266 337.480469 Z M 266 282.65625 " clip-rule="nonzero"/>
        </clipPath><clipPath id="2b106bf567">
            <path d="M 284.523438 317.671875 L 300.890625 317.671875 L 300.890625 337.480469 L 284.523438 337.480469 Z M 284.523438 317.671875 " clip-rule="nonzero"/>
        </clipPath>
    </defs>
    <rect x="-37.5" width="450" fill="#ffffff" y="-37.499999" height="449.999989" fill-opacity="1"/>
<rect x="-37.5" width="450" fill="#ffffff" y="-37.499999" height="449.999989" fill-opacity="1"/><g clip-path="url(#ac8c5a3fc6)">
<path fill="#ff7130" d="M 187.433594 228.828125 C 203.9375 225.652344 224.886719 224.765625 249.390625 225.398438 C 272.878906 226.035156 293.066406 229.335938 309.1875 233.269531 C 310.714844 233.652344 312.238281 232.382812 312.238281 230.859375 L 312.238281 71.011719 C 312.238281 69.742188 311.347656 68.601562 310.078125 68.472656 C 298.398438 66.949219 285.320312 65.933594 270.847656 66.316406 C 236.3125 67.078125 207.871094 74.949219 187.433594 82.691406 C 167.117188 75.074219 138.679688 67.203125 104.144531 66.316406 C 89.671875 65.933594 76.59375 66.949219 64.914062 68.472656 C 63.644531 68.601562 62.753906 69.742188 62.753906 71.011719 L 62.753906 230.730469 C 62.753906 232.382812 64.152344 233.652344 65.800781 233.144531 C 81.796875 229.335938 102.113281 225.90625 125.601562 225.273438 C 149.976562 224.765625 170.925781 225.652344 187.433594 228.828125 Z M 187.433594 228.828125 " fill-opacity="1" fill-rule="nonzero"/>
</g><path fill="#d2d2d2" d="M 187.433594 225.78125 C 175.242188 219.558594 154.292969 210.796875 126.742188 208.765625 C 108.078125 207.371094 92.335938 209.65625 80.78125 212.195312 C 79.257812 212.578125 77.734375 211.433594 77.734375 209.78125 L 77.734375 62.507812 C 77.734375 61.238281 78.625 60.21875 79.894531 60.09375 C 91.449219 58.570312 106.554688 57.808594 123.824219 60.09375 C 152.769531 63.777344 174.480469 74.1875 187.433594 81.675781 C 200.382812 74.1875 222.09375 63.777344 251.039062 59.964844 C 268.308594 57.679688 283.289062 58.441406 294.96875 59.964844 C 296.238281 60.09375 297.128906 61.109375 297.128906 62.378906 L 297.128906 209.65625 C 297.128906 211.179688 295.730469 212.324219 294.082031 212.070312 C 282.527344 209.527344 266.785156 207.371094 248.121094 208.640625 C 220.570312 210.796875 199.621094 219.558594 187.433594 225.78125 Z M 187.433594 225.78125 " fill-opacity="1" fill-rule="nonzero"/>
<path fill="#f6f4e6" d="M 184.894531 221.71875 C 172.957031 215.625 152.515625 206.988281 125.601562 205.085938 C 107.445312 203.816406 91.957031 205.847656 80.78125 208.386719 C 79.257812 208.765625 77.863281 207.625 77.863281 206.101562 L 77.863281 62.378906 C 77.863281 61.238281 78.75 60.09375 79.894531 59.964844 C 91.195312 58.441406 105.921875 57.808594 122.808594 59.964844 C 151.121094 63.648438 172.324219 73.804688 184.894531 81.167969 C 197.589844 73.804688 218.792969 63.648438 246.976562 59.964844 C 263.863281 57.808594 278.464844 58.570312 289.890625 59.964844 C 291.160156 60.09375 291.921875 61.109375 291.921875 62.378906 L 291.921875 206.101562 C 291.921875 207.625 290.527344 208.765625 289.003906 208.386719 C 277.828125 205.847656 262.339844 203.816406 244.183594 205.085938 C 217.140625 207.117188 196.699219 215.75 184.894531 221.71875 Z M 184.894531 221.71875 " fill-opacity="1" fill-rule="nonzero"/>
<path fill="#d2d2d2" d="M 276.179688 182.738281 C 276.179688 185.152344 274.019531 187.058594 271.609375 186.804688 C 262.085938 185.660156 245.835938 185.152344 228.1875 191.753906 C 210.414062 198.355469 198.730469 209.019531 192.003906 216.511719 C 189.972656 218.796875 188.449219 220.828125 187.304688 222.226562 C 186.164062 220.703125 184.636719 218.671875 182.605469 216.511719 C 175.878906 209.019531 164.199219 198.230469 146.421875 191.753906 C 128.902344 185.152344 112.523438 185.660156 103 186.804688 C 100.589844 187.058594 98.429688 185.152344 98.429688 182.738281 L 98.429688 178.296875 C 98.304688 134.367188 98.429688 104.910156 98.429688 66.0625 C 98.429688 60.726562 98.429688 55.269531 98.429688 49.554688 C 98.429688 49.300781 98.429688 49.046875 98.429688 48.792969 C 98.8125 47.015625 100.082031 45.621094 101.859375 45.492188 C 111.890625 44.351562 129.027344 43.84375 148.582031 50.953125 C 164.578125 56.664062 175.75 65.171875 182.859375 71.773438 C 183.75 72.664062 184.636719 73.425781 185.402344 74.1875 C 186.289062 74.949219 186.925781 75.710938 187.558594 76.34375 C 187.941406 75.964844 188.195312 75.710938 188.574219 75.203125 C 189.589844 74.058594 190.859375 72.917969 192.257812 71.648438 C 199.238281 65.046875 210.414062 56.539062 226.027344 50.699219 C 237.964844 46.382812 249.007812 44.859375 258.023438 44.605469 L 258.785156 44.605469 C 264.246094 44.476562 268.941406 44.859375 272.625 45.238281 C 274.65625 45.492188 276.179688 47.269531 276.179688 49.300781 C 276.179688 98.816406 276.304688 131.066406 276.179688 182.738281 Z M 276.179688 182.738281 " fill-opacity="1" fill-rule="nonzero"/>
<path fill="#f6f4e6" d="M 270.339844 178.296875 C 270.339844 180.582031 268.308594 182.484375 266.023438 182.230469 C 256.753906 181.089844 241.136719 180.707031 224.125 186.929688 C 201.90625 195.183594 189.335938 210.164062 184.636719 216.511719 C 179.941406 210.164062 167.371094 195.183594 145.152344 186.929688 C 128.011719 180.707031 112.398438 181.089844 103.253906 182.230469 C 100.96875 182.484375 98.8125 180.582031 98.8125 178.296875 C 98.683594 134.367188 98.8125 104.910156 98.8125 66.0625 L 98.8125 49.300781 C 98.8125 49.046875 98.8125 48.921875 98.9375 48.667969 C 99.320312 46.890625 100.589844 45.492188 102.367188 45.367188 C 112.269531 44.222656 129.535156 43.714844 148.960938 50.953125 C 164.578125 56.664062 175.75 65.171875 182.734375 71.773438 C 183.621094 72.664062 184.511719 73.425781 185.273438 74.1875 C 186.164062 74.949219 186.796875 75.710938 187.433594 76.34375 C 187.8125 75.964844 188.066406 75.710938 188.449219 75.203125 C 189.464844 74.058594 190.734375 72.917969 192.128906 71.648438 C 199.113281 65.046875 210.285156 56.539062 225.902344 50.699219 C 237.835938 46.382812 248.882812 44.859375 257.894531 44.605469 L 258.65625 44.605469 C 261.707031 44.730469 264.5 44.984375 266.785156 45.238281 C 268.816406 45.492188 270.210938 47.144531 270.210938 49.175781 C 270.464844 97.039062 270.464844 128.273438 270.339844 178.296875 Z M 270.339844 178.296875 " fill-opacity="1" fill-rule="nonzero"/>
<path fill="#52575d" d="M 207.238281 84.214844 C 219.300781 77.996094 232.757812 75.074219 246.34375 75.457031 C 252.5625 75.582031 252.183594 85.105469 246.089844 84.851562 C 233.898438 84.46875 221.964844 87.265625 211.429688 92.597656 C 205.96875 95.390625 201.777344 87.011719 207.238281 84.214844 Z M 207.238281 84.214844 " fill-opacity="1" fill-rule="nonzero"/><path fill="#52575d" d="M 204.191406 114.941406 C 219.171875 106.5625 236.1875 101.992188 254.085938 102.5 C 260.4375 102.753906 259.800781 112.277344 253.832031 111.894531 C 238.34375 111.386719 222.855469 115.195312 208.761719 123.066406 C 203.429688 126.113281 198.730469 117.988281 204.191406 114.941406 Z M 204.191406 114.941406 " fill-opacity="1" fill-rule="nonzero"/><path fill="#52575d" d="M 204.191406 138.050781 C 219.171875 129.667969 236.1875 125.097656 254.085938 125.605469 C 260.308594 125.859375 259.925781 135.382812 253.832031 135 C 237.710938 134.492188 222.347656 138.558594 208.761719 146.175781 C 203.300781 149.222656 198.859375 140.96875 204.191406 138.050781 Z M 204.191406 138.050781 " fill-opacity="1" fill-rule="nonzero"/>
<path fill="#52575d" d="M 204.191406 162.554688 C 219.808594 153.792969 236.949219 149.601562 254.085938 150.109375 C 260.4375 150.363281 259.800781 159.886719 253.832031 159.503906 C 238.21875 158.996094 222.855469 162.808594 208.761719 170.679688 C 203.300781 173.851562 198.859375 165.601562 204.191406 162.554688 Z M 204.191406 162.554688 " fill-opacity="1" fill-rule="nonzero"/>
<path fill="#52575d" d="M 163.4375 92.597656 C 152.644531 87.136719 140.710938 84.46875 128.773438 84.851562 C 122.679688 85.230469 122.300781 75.710938 128.519531 75.457031 C 142.105469 75.074219 155.5625 78.121094 167.625 84.214844 C 173.085938 87.011719 169.023438 95.390625 163.4375 92.597656 Z M 163.4375 92.597656 " fill-opacity="1" fill-rule="nonzero"/>
<path fill="#52575d" d="M 166.230469 123.066406 C 151.882812 115.070312 136.394531 111.386719 121.15625 111.894531 C 115.0625 112.277344 114.554688 102.753906 120.902344 102.5 C 138.425781 101.863281 155.5625 106.308594 170.800781 114.941406 C 176.257812 117.988281 171.433594 126.113281 166.230469 123.066406 Z M 166.230469 123.066406 " fill-opacity="1" fill-rule="nonzero"/>
<path fill="#52575d" d="M 166.230469 146.175781 C 152.769531 138.558594 137.28125 134.492188 121.15625 135 C 115.0625 135.382812 114.554688 125.859375 120.902344 125.605469 C 138.679688 124.972656 155.816406 129.542969 170.800781 138.050781 C 176.132812 140.96875 171.5625 149.222656 166.230469 146.175781 Z M 166.230469 146.175781 " fill-opacity="1" fill-rule="nonzero"/>
<path fill="#52575d" d="M 166.230469 170.804688 C 152.769531 163.1875 137.28125 159.125 121.15625 159.632812 C 115.0625 160.011719 114.554688 150.492188 120.902344 150.238281 C 138.171875 149.730469 155.308594 153.917969 170.800781 162.679688 C 176.132812 165.601562 171.5625 173.851562 166.230469 170.804688 Z M 166.230469 170.804688 " fill-opacity="1" fill-rule="nonzero"/>
<path fill="#52575d" d="M 192.128906 71.773438 L 192.128906 216.511719 C 190.097656 218.796875 188.574219 220.828125 187.433594 222.226562 C 186.289062 220.703125 184.765625 218.671875 182.734375 216.511719 L 182.734375 71.773438 C 184.511719 73.425781 186.164062 75.074219 187.433594 76.34375 C 188.703125 75.074219 190.351562 73.425781 192.128906 71.773438 Z M 192.128906 71.773438 " fill-opacity="1" fill-rule="nonzero"/>
<g clip-path="url(#7045b7b0d1)">
<path fill="#ffa501" d="M 234.40625 222.605469 C 234.40625 224.144531 234.332031 225.679688 234.183594 227.210938 C 234.03125 228.742188 233.804688 230.261719 233.503906 231.769531 C 233.207031 233.28125 232.832031 234.769531 232.386719 236.242188 C 231.9375 237.714844 231.421875 239.160156 230.832031 240.582031 C 230.242188 242.003906 229.585938 243.394531 228.859375 244.75 C 228.136719 246.109375 227.347656 247.425781 226.492188 248.703125 C 225.636719 249.984375 224.722656 251.21875 223.746094 252.40625 C 222.769531 253.597656 221.738281 254.734375 220.648438 255.824219 C 219.5625 256.910156 218.421875 257.945312 217.234375 258.917969 C 216.042969 259.894531 214.808594 260.8125 213.53125 261.664062 C 212.25 262.519531 210.933594 263.308594 209.578125 264.035156 C 208.21875 264.761719 206.832031 265.417969 205.410156 266.007812 C 203.988281 266.59375 202.539062 267.113281 201.066406 267.558594 C 199.597656 268.007812 198.105469 268.378906 196.597656 268.679688 C 195.085938 268.980469 193.566406 269.207031 192.035156 269.355469 C 190.503906 269.507812 188.96875 269.582031 187.433594 269.582031 C 185.894531 269.582031 184.359375 269.507812 182.828125 269.355469 C 181.296875 269.207031 179.777344 268.980469 178.265625 268.679688 C 176.757812 268.378906 175.269531 268.007812 173.796875 267.558594 C 172.324219 267.113281 170.875 266.59375 169.453125 266.007812 C 168.035156 265.417969 166.644531 264.761719 165.289062 264.035156 C 163.929688 263.308594 162.613281 262.519531 161.332031 261.664062 C 160.054688 260.8125 158.820312 259.894531 157.628906 258.917969 C 156.441406 257.945312 155.300781 256.910156 154.214844 255.824219 C 153.125 254.734375 152.09375 253.597656 151.117188 252.40625 C 150.144531 251.21875 149.226562 249.984375 148.371094 248.703125 C 147.519531 247.425781 146.726562 246.109375 146.003906 244.75 C 145.277344 243.394531 144.621094 242.003906 144.03125 240.582031 C 143.441406 239.160156 142.925781 237.714844 142.476562 236.242188 C 142.03125 234.769531 141.660156 233.28125 141.359375 231.769531 C 141.058594 230.261719 140.832031 228.742188 140.683594 227.210938 C 140.53125 225.679688 140.457031 224.144531 140.457031 222.605469 C 140.457031 221.066406 140.53125 219.53125 140.683594 218 C 140.832031 216.472656 141.058594 214.949219 141.359375 213.441406 C 141.660156 211.933594 142.03125 210.441406 142.476562 208.96875 C 142.925781 207.496094 143.441406 206.050781 144.03125 204.628906 C 144.621094 203.207031 145.277344 201.820312 146.003906 200.460938 C 146.726562 199.105469 147.519531 197.785156 148.371094 196.507812 C 149.226562 195.226562 150.144531 193.996094 151.117188 192.804688 C 152.09375 191.617188 153.125 190.476562 154.214844 189.390625 C 155.300781 188.300781 156.441406 187.269531 157.628906 186.292969 C 158.820312 185.316406 160.054688 184.402344 161.332031 183.546875 C 162.613281 182.691406 163.929688 181.902344 165.289062 181.175781 C 166.644531 180.453125 168.035156 179.792969 169.453125 179.207031 C 170.875 178.617188 172.324219 178.097656 173.796875 177.652344 C 175.269531 177.207031 176.757812 176.832031 178.265625 176.53125 C 179.777344 176.234375 181.296875 176.007812 182.828125 175.855469 C 184.359375 175.707031 185.894531 175.628906 187.433594 175.628906 C 188.96875 175.628906 190.503906 175.707031 192.035156 175.855469 C 193.566406 176.007812 195.085938 176.234375 196.597656 176.53125 C 198.105469 176.832031 199.597656 177.207031 201.066406 177.652344 C 202.539062 178.097656 203.988281 178.617188 205.410156 179.207031 C 206.832031 179.792969 208.21875 180.453125 209.578125 181.175781 C 210.933594 181.902344 212.25 182.691406 213.53125 183.546875 C 214.808594 184.402344 216.042969 185.316406 217.234375 186.292969 C 218.421875 187.269531 219.5625 188.300781 220.648438 189.390625 C 221.738281 190.476562 222.769531 191.617188 223.746094 192.804688 C 224.722656 193.996094 225.636719 195.226562 226.492188 196.507812 C 227.347656 197.785156 228.136719 199.105469 228.859375 200.460938 C 229.585938 201.820312 230.242188 203.207031 230.832031 204.628906 C 231.421875 206.050781 231.9375 207.496094 232.386719 208.96875 C 232.832031 210.441406 233.207031 211.933594 233.503906 213.441406 C 233.804688 214.949219 234.03125 216.472656 234.183594 218 C 234.332031 219.53125 234.40625 221.066406 234.40625 222.605469 Z M 234.40625 222.605469 " fill-opacity="1" fill-rule="nonzero"/>
</g>
<path fill="#f6f4e6" d="M 196.828125 243.046875 L 192.128906 243.046875 L 192.128906 215.75 C 192.128906 212.070312 189.210938 209.148438 185.527344 209.148438 L 179.941406 209.148438 C 173.71875 209.148438 173.71875 218.542969 179.941406 218.542969 L 182.734375 218.542969 L 182.734375 243.046875 L 178.035156 243.046875 C 171.816406 243.046875 171.816406 252.441406 178.035156 252.441406 L 196.828125 252.441406 C 203.046875 252.441406 203.046875 243.046875 196.828125 243.046875 Z M 196.828125 243.046875 " fill-opacity="1" fill-rule="nonzero"/>
<path fill="#f6f4e6" d="M 191.496094 198.101562 C 191.496094 198.484375 191.457031 198.867188 191.382812 199.242188 C 191.308594 199.617188 191.195312 199.984375 191.050781 200.335938 C 190.902344 200.691406 190.722656 201.027344 190.511719 201.347656 C 190.296875 201.664062 190.054688 201.960938 189.785156 202.230469 C 189.511719 202.503906 189.21875 202.746094 188.898438 202.957031 C 188.582031 203.171875 188.242188 203.351562 187.890625 203.5 C 187.535156 203.644531 187.167969 203.753906 186.792969 203.832031 C 186.417969 203.90625 186.039062 203.941406 185.65625 203.941406 C 185.269531 203.941406 184.890625 203.90625 184.515625 203.832031 C 184.140625 203.753906 183.773438 203.644531 183.417969 203.5 C 183.066406 203.351562 182.730469 203.171875 182.410156 202.957031 C 182.089844 202.746094 181.796875 202.503906 181.523438 202.230469 C 181.253906 201.960938 181.011719 201.664062 180.796875 201.347656 C 180.585938 201.027344 180.40625 200.691406 180.257812 200.335938 C 180.113281 199.984375 180 199.617188 179.925781 199.242188 C 179.851562 198.867188 179.8125 198.484375 179.8125 198.101562 C 179.8125 197.71875 179.851562 197.339844 179.925781 196.964844 C 180 196.585938 180.113281 196.222656 180.257812 195.867188 C 180.40625 195.511719 180.585938 195.175781 180.796875 194.859375 C 181.011719 194.539062 181.253906 194.242188 181.523438 193.972656 C 181.796875 193.703125 182.089844 193.460938 182.410156 193.246094 C 182.730469 193.035156 183.066406 192.851562 183.417969 192.707031 C 183.773438 192.558594 184.140625 192.449219 184.515625 192.375 C 184.890625 192.300781 185.269531 192.261719 185.65625 192.261719 C 186.039062 192.261719 186.417969 192.300781 186.792969 192.375 C 187.167969 192.449219 187.535156 192.558594 187.890625 192.707031 C 188.242188 192.851562 188.582031 193.035156 188.898438 193.246094 C 189.21875 193.460938 189.511719 193.703125 189.785156 193.972656 C 190.054688 194.242188 190.296875 194.539062 190.511719 194.859375 C 190.722656 195.175781 190.902344 195.511719 191.050781 195.867188 C 191.195312 196.222656 191.308594 196.585938 191.382812 196.964844 C 191.457031 197.339844 191.496094 197.71875 191.496094 198.101562 Z M 191.496094 198.101562 " fill-opacity="1" fill-rule="nonzero"/>
<path fill="#793620" d="M 222.050781 187.566406 L 218.007812 176.144531 C 218.007812 176.144531 208.539062 161.472656 207.757812 161.078125 C 206.984375 160.679688 206.609375 160.804688 206.089844 161.5 C 205.574219 162.191406 207.148438 166.914062 207.148438 166.914062 C 207.148438 166.914062 205.875 170.796875 205.210938 172.882812 C 204.65625 174.621094 205.5625 179.4375 206.085938 182.246094 C 206.609375 185.050781 212.824219 191.855469 212.824219 191.855469 L 214.109375 194.285156 C 214.109375 194.285156 218.089844 194.277344 222.050781 187.566406 " fill-opacity="1" fill-rule="nonzero"/>
<g clip-path="url(#2b78713189)">
<path fill="#a47343" d="M 218.59375 184.566406 C 218.59375 184.566406 196 126.3125 194.625 122.449219 L 194.113281 122.675781 C 194.113281 122.675781 215.929688 183.046875 217.058594 185.820312 C 217.058594 185.820312 218.703125 186.003906 218.59375 184.566406 " fill-opacity="1" fill-rule="nonzero"/>
</g>
<path fill="#793620" d="M 216.164062 182.035156 C 215.6875 180.621094 215.535156 177.117188 215.535156 177.117188 C 215.535156 177.117188 213.886719 175.054688 213.5 173.648438 C 213.113281 172.234375 213.542969 168.984375 213.542969 168.984375 C 213.542969 168.984375 213.785156 168.597656 214.320312 168.855469 C 214.859375 169.113281 216.816406 173.390625 216.816406 173.390625 C 216.816406 173.390625 220.90625 176.320312 221.8125 178.425781 C 222.71875 180.53125 221.523438 186.234375 221.523438 186.234375 L 218.96875 185.113281 C 218.96875 185.113281 216.640625 183.449219 216.164062 182.035156 " fill-opacity="1" fill-rule="nonzero"/>
<path fill="#f29b3f" d="M 235.773438 247.207031 C 235.773438 247.207031 231.132812 248.429688 212.492188 192.5625 C 212.257812 191.863281 218.222656 185.53125 221.84375 186.984375 C 221.84375 186.984375 230.847656 207.378906 247.929688 231.085938 C 257.878906 244.898438 235.773438 247.207031 235.773438 247.207031 " fill-opacity="1" fill-rule="nonzero"/>
<path fill="#f29b3f" d="M 249.890625 212.125 C 249.890625 212.125 253.585938 195.179688 257.171875 192.058594 C 260.761719 188.941406 277.601562 187.824219 273.679688 188.570312 C 272.921875 188.71875 269.792969 193.5 269.152344 193.757812 C 268.503906 194.003906 249.890625 212.125 249.890625 212.125 " fill-opacity="1" fill-rule="nonzero"/>
<path fill="#220d10" d="M 329.074219 174.089844 C 332.867188 164.257812 331.605469 133.488281 314.839844 126.453125 C 298.078125 119.421875 290.644531 128.253906 290.644531 128.253906 L 295.289062 146.179688 C 295.289062 146.179688 289.214844 155.046875 288.597656 165.882812 C 283.050781 175.808594 283.195312 187.769531 283.074219 192.726562 C 282.828125 202.972656 282.867188 208.214844 282.867188 208.214844 C 282.867188 208.214844 288.230469 204.246094 293.980469 197 C 297.160156 205.542969 305.441406 212.429688 306.871094 217.863281 C 308.714844 224.84375 303.296875 231.535156 303.296875 231.535156 C 307.722656 233.625 315.316406 231.945312 315.316406 231.945312 C 326.636719 229.933594 332.710938 211.363281 326.871094 204.066406 C 321.039062 196.769531 325.277344 183.925781 329.074219 174.089844 " fill-opacity="1" fill-rule="nonzero"/>
<path fill="#f29b3f" d="M 259.945312 190.691406 C 255.851562 196.34375 257.226562 191.070312 231.46875 230.050781 C 236.222656 234.171875 231.777344 238.257812 234.757812 244.171875 C 235.015625 244.679688 235.605469 246.671875 235.773438 247.207031 C 243.472656 244.054688 260.988281 236.199219 261.742188 228.996094 C 263.085938 216.21875 259.945312 190.691406 259.945312 190.691406 " fill-opacity="1" fill-rule="nonzero"/><g clip-path="url(#fb7096e193)">
<path fill="#9d4b36" d="M 305.5625 337.480469 C 307.316406 317.28125 305.039062 303.84375 301.238281 288.785156 C 296.382812 269.550781 286.941406 283.78125 276.246094 283.898438 C 275.960938 288.136719 245.160156 284.855469 244.886719 289.191406 C 244.164062 300.363281 248.371094 318.664062 254.316406 337.480469 L 305.5625 337.480469 " fill-opacity="1" fill-rule="nonzero"/>
</g>
<g clip-path="url(#1d4ccf6f0c)">
<path fill="#361716" d="M 309.167969 337.480469 C 310.976562 327.160156 312.101562 309.222656 297.761719 289.761719 L 243.886719 290.835938 L 241.375 293.089844 C 241.375 293.089844 237.546875 310.144531 236.945312 337.480469 L 309.167969 337.480469 " fill-opacity="1" fill-rule="nonzero"/>
</g><path fill="#fbbf56" d="M 303.152344 293.410156 C 303.152344 293.410156 293.550781 266.707031 293.214844 252.242188 L 306.855469 200.535156 L 306.855469 193.078125 C 306.855469 193.078125 301.789062 188.757812 285.355469 187.414062 C 285.355469 187.414062 276.996094 186.242188 261.984375 190.691406 C 261.984375 190.691406 248.238281 202.773438 245.441406 213.316406 C 243.699219 219.882812 246.84375 240.453125 246.144531 245.304688 C 245.179688 252 242.257812 288.453125 241.375 293.089844 C 240.488281 297.714844 263.9375 305.515625 303.152344 293.410156 " fill-opacity="1" fill-rule="nonzero"/>
<g clip-path="url(#8d0cbe769e)">
<path fill="#520e17" d="M 296.824219 337.480469 L 307.433594 337.480469 L 323.09375 309.199219 C 323.09375 309.199219 288.882812 284.019531 286.917969 283.5 C 285.535156 283.132812 285.140625 284.710938 285.140625 284.710938 L 282.003906 283.445312 L 280.515625 282.851562 C 278.167969 285.371094 265.347656 317.898438 266.144531 318.796875 C 266.699219 319.429688 285.667969 330.8125 296.824219 337.480469 " fill-opacity="1" fill-rule="nonzero"/>
</g>
<path fill="#edecdf" d="M 282.003906 283.445312 C 282.003906 283.445312 277.359375 292.71875 267.296875 317.167969 C 267.296875 317.167969 267.738281 319.65625 285.140625 284.710938 L 282.003906 283.445312 " fill-opacity="1" fill-rule="nonzero"/>
<path fill="#793620" d="M 291.710938 158.230469 C 287.902344 181.773438 289.324219 180.847656 288.839844 188.585938 C 288.839844 188.585938 277.703125 195.097656 270.855469 188.511719 C 270.855469 188.511719 278.433594 173.476562 271.921875 161.6875 C 268.582031 155.648438 291.710938 158.230469 291.710938 158.230469 " fill-opacity="1" fill-rule="nonzero"/>
<path fill="#9d4b36" d="M 291.527344 132.808594 C 291.527344 132.808594 273.894531 123.828125 263.265625 134.207031 C 263.265625 134.207031 260.613281 150.1875 261.742188 160.207031 C 262.875 170.230469 266.101562 175.738281 267.878906 175.910156 C 267.878906 175.910156 290.066406 176.371094 292.925781 162.035156 C 295.492188 149.128906 296.429688 136.117188 291.527344 132.808594 " fill-opacity="1" fill-rule="nonzero"/>
<path fill="#220d10" d="M 280.632812 126.757812 C 275.507812 126.675781 269.726562 127.492188 269.726562 127.492188 C 269.726562 127.492188 263.796875 129.5625 260.597656 136.664062 C 257.394531 143.769531 261.738281 146.828125 261.738281 146.828125 C 262.257812 140.261719 264.609375 136.628906 266.582031 134.699219 C 267.410156 139.882812 287.164062 161.230469 306.34375 161.964844 C 306.34375 161.964844 308.679688 159.285156 308.824219 151.859375 C 308.824219 151.859375 309.789062 148.941406 307.875 141.558594 C 307.21875 139.015625 304.894531 119.515625 280.632812 126.757812 " fill-opacity="1" fill-rule="nonzero"/>
<path fill="#9d4b36" d="M 291.039062 318.28125 C 291.039062 318.28125 284.53125 321.109375 282.617188 326.179688 C 279.945312 333.261719 285.472656 328.957031 296.902344 318.125 L 291.039062 318.28125 " fill-opacity="1" fill-rule="nonzero"/><g clip-path="url(#2b106bf567)">
<path fill="#9d4b36" d="M 289.753906 318.992188 C 289.753906 318.992188 285.132812 327.535156 285.746094 327.433594 C 285.746094 327.433594 284.648438 330.179688 284.539062 332.078125 C 284.335938 335.582031 287.511719 334.378906 287.671875 334.347656 C 287.777344 334.316406 288.035156 336.550781 288.765625 336.832031 C 289.222656 337.007812 291.515625 337.296875 292.117188 337.011719 C 292.503906 336.828125 295.109375 337.640625 295.695312 337.355469 C 298.484375 336.011719 302.113281 329.644531 300.363281 323.5 C 300.363281 323.5 295.839844 315.066406 289.753906 318.992188 " fill-opacity="1" fill-rule="nonzero"/>
</g><path fill="#fbbf56" d="M 291.394531 318.9375 C 292.296875 319.753906 293.207031 320.570312 294.257812 321.203125 C 296.492188 322.550781 298.328125 323.167969 300.609375 323.726562 C 318.121094 301.003906 332.253906 232.339844 309.28125 194.753906 C 304.398438 186.761719 299.441406 208.050781 299.441406 208.050781 C 296.902344 233.800781 296.902344 246.425781 301.238281 269.652344 C 297.484375 299.691406 292.574219 314.238281 291.074219 318.175781 C 291.191406 318.457031 291.296875 318.703125 291.394531 318.9375 " fill-opacity="1" fill-rule="nonzero"/>
<path fill="#f9a72b" d="M 295.261719 125.882812 C 295.261719 125.882812 296.449219 124.824219 297.714844 124.390625 C 298.976562 123.945312 305.457031 126.664062 305.445312 136.789062 C 305.445312 136.789062 303.242188 127.667969 295.261719 125.882812 " fill-opacity="1" fill-rule="nonzero"/>
<path fill="#6d2e39" d="M 267.390625 160.625 C 267.390625 160.625 266.847656 160.546875 265.0625 162.886719 C 265.0625 162.886719 264.582031 163.476562 264.871094 164.011719 C 264.984375 164.21875 266.25 165.234375 267.222656 165.203125 C 267.222656 165.203125 266.746094 164.003906 266.871094 163.09375 C 266.964844 162.414062 267.417969 160.8125 267.417969 160.8125 L 267.390625 160.625 " fill-opacity="1" fill-rule="nonzero"/>
<path fill="#220d10" d="M 267.035156 151.421875 L 266.507812 151.746094 C 266.507812 151.746094 263.953125 149.34375 261.800781 151.859375 C 261.800781 151.859375 263.371094 148.28125 267.035156 151.421875 " fill-opacity="1" fill-rule="nonzero"/>
<path fill="#220d10" d="M 273.148438 152.222656 L 272.429688 151.746094 C 272.429688 151.746094 276.171875 149.914062 280.292969 151.464844 C 283.296875 152.597656 284.195312 155.871094 284.195312 155.871094 C 284.195312 155.871094 281.398438 150.296875 273.148438 152.222656 " fill-opacity="1" fill-rule="nonzero"/>
<path fill="#edecdf" d="M 265.851562 167.164062 C 265.851562 167.164062 268.09375 168.898438 274.273438 168.042969 C 274.273438 168.042969 273.117188 169.84375 270.109375 169.835938 C 268.984375 169.832031 266.347656 169.132812 265.851562 167.164062 " fill-opacity="1" fill-rule="nonzero"/>
<path fill="#220d10" d="M 280.738281 158.25 C 281.175781 158.261719 281.9375 158.214844 282.988281 157.789062 C 282.988281 157.789062 282.28125 158.800781 281.378906 159.226562 C 276.308594 156.917969 273.148438 158.875 273.148438 158.875 C 275.644531 155.925781 279.652344 157.6875 280.738281 158.25 " fill-opacity="1" fill-rule="nonzero"/>
<path fill="#220d10" d="M 262.316406 155.5625 C 262.734375 156.183594 263.539062 155.9375 263.539062 155.9375 L 263.535156 155.9375 C 263.882812 155.769531 264.335938 155.667969 264.914062 155.855469 C 265.703125 156.109375 266.054688 156.730469 266.097656 157.386719 C 266.097656 157.386719 265.035156 155.488281 262.660156 156.785156 C 262.164062 156.328125 262.316406 155.5625 262.316406 155.5625 " fill-opacity="1" fill-rule="nonzero"/>
<path fill="#9d4b36" d="M 289.703125 157.710938 C 288.230469 161.867188 288.945312 165.921875 291.304688 166.761719 C 293.65625 167.601562 296.757812 164.902344 298.230469 160.742188 C 299.703125 156.582031 298.992188 152.527344 296.632812 151.691406 C 294.28125 150.851562 291.175781 153.546875 289.703125 157.710938 " fill-opacity="1" fill-rule="nonzero"/>
<path fill="#6d2e39" d="M 290.9375 159.285156 C 290.9375 159.285156 292.808594 152.910156 295.386719 152.886719 C 297.972656 152.859375 298.21875 155.609375 298.320312 156.074219 C 298.414062 156.535156 295.4375 152.886719 290.9375 159.285156 " fill-opacity="1" fill-rule="nonzero"/>
<path fill="#793620" d="M 271.535156 186.984375 C 271.535156 186.984375 269.003906 192.960938 260.808594 205.542969 C 260.808594 205.542969 285.355469 200.75 292.71875 188.945312 C 292.71875 188.945312 291.207031 187.207031 281.277344 186.882812 C 278.660156 186.796875 275.457031 186.8125 271.535156 186.984375 " fill-opacity="1" fill-rule="nonzero"/>
</svg>