<svg xmlns="http://www.w3.org/2000/svg" xmlns:xlink="http://www.w3.org/1999/xlink" width="500" zoomAndPan="magnify" viewBox="0 0 375 374.999991" height="500" preserveAspectRatio="xMidYMid meet" version="1.0"><defs><clipPath id="e94213a0f7"><path d="M 19.046875 65.789062 L 355.796875 65.789062 L 355.796875 285.539062 L 19.046875 285.539062 Z M 19.046875 65.789062 " clip-rule="nonzero"/></clipPath><clipPath id="de0bd07fcc"><path d="M 320 331 L 335 331 L 335 337.796875 L 320 337.796875 Z M 320 331 " clip-rule="nonzero"/></clipPath><clipPath id="9efef936ee"><path d="M 231.070312 132 L 249 132 L 249 167 L 231.070312 167 Z M 231.070312 132 " clip-rule="nonzero"/></clipPath></defs><rect x="-37.5" width="450" fill="#ffffff" y="-37.499999" height="449.999989" fill-opacity="1"/><rect x="-37.5" width="450" fill="#ffffff" y="-37.499999" height="449.999989" fill-opacity="1"/><path fill="#ff7130" d="M 352.945312 283.109375 L 21.953125 283.109375 L 21.953125 68.199219 L 352.945312 68.199219 L 352.945312 283.109375 " fill-opacity="1" fill-rule="nonzero"/><g clip-path="url(#e94213a0f7)"><path fill="#171721" d="M 352.945312 283.109375 L 352.945312 280.65625 L 24.40625 280.65625 L 24.40625 70.648438 L 350.492188 70.648438 L 350.496094 283.109375 L 352.945312 283.109375 L 352.945312 280.65625 L 352.945312 283.109375 L 355.394531 283.109375 L 355.394531 68.199219 C 355.394531 67.550781 355.136719 66.921875 354.675781 66.464844 C 354.222656 66.011719 353.589844 65.746094 352.945312 65.746094 L 21.953125 65.746094 C 21.3125 65.746094 20.679688 66.011719 20.222656 66.464844 C 19.769531 66.921875 19.503906 67.550781 19.503906 68.199219 L 19.503906 283.109375 C 19.503906 283.753906 19.769531 284.382812 20.222656 284.839844 C 20.683594 285.296875 21.3125 285.558594 21.953125 285.558594 L 352.945312 285.558594 C 353.589844 285.558594 354.222656 285.296875 354.675781 284.839844 C 355.136719 284.382812 355.394531 283.753906 355.394531 283.109375 L 352.945312 283.109375 " fill-opacity="1" fill-rule="nonzero"/></g><path fill="#ffffff" d="M 340.605469 239.710938 L 34.296875 239.710938 L 34.296875 78.53125 L 340.605469 78.53125 L 340.605469 239.710938 " fill-opacity="1" fill-rule="nonzero"/><path fill="#171721" d="M 340.605469 239.710938 L 340.605469 237.234375 L 36.777344 237.234375 L 36.777344 81.007812 L 338.128906 81.007812 L 338.128906 239.710938 L 340.605469 239.710938 L 340.605469 237.234375 L 340.605469 239.710938 L 343.085938 239.710938 L 343.085938 78.53125 C 343.085938 77.875 342.824219 77.238281 342.359375 76.777344 C 341.898438 76.3125 341.261719 76.050781 340.605469 76.050781 L 34.296875 76.050781 C 33.640625 76.050781 33 76.3125 32.539062 76.777344 C 32.082031 77.238281 31.8125 77.875 31.8125 78.53125 L 31.8125 239.710938 C 31.8125 240.367188 32.082031 241.003906 32.539062 241.464844 C 33 241.929688 33.640625 242.191406 34.296875 242.191406 L 340.605469 242.191406 C 341.261719 242.191406 341.898438 241.929688 342.359375 241.464844 C 342.824219 241.003906 343.085938 240.367188 343.085938 239.710938 L 340.605469 239.710938 " fill-opacity="1" fill-rule="nonzero"/><path fill="#ffa501" d="M 140.648438 166.871094 C 140.648438 192.71875 161.601562 213.675781 187.453125 213.675781 C 213.300781 213.675781 234.253906 192.71875 234.253906 166.871094 C 234.253906 141.023438 213.300781 120.066406 187.453125 120.066406 C 161.601562 120.066406 140.648438 141.023438 140.648438 166.871094 " fill-opacity="1" fill-rule="nonzero"/><path fill="#171721" d="M 140.648438 166.871094 L 138.167969 166.871094 C 138.171875 194.089844 160.230469 216.152344 187.453125 216.152344 C 214.671875 216.152344 236.734375 194.089844 236.734375 166.871094 C 236.734375 139.652344 214.671875 117.585938 187.453125 117.585938 C 160.230469 117.585938 138.171875 139.652344 138.167969 166.871094 L 143.128906 166.871094 C 143.128906 154.621094 148.085938 143.558594 156.109375 135.527344 C 164.136719 127.5 175.203125 122.542969 187.453125 122.542969 C 199.703125 122.542969 210.765625 127.5 218.792969 135.527344 C 226.820312 143.558594 231.773438 154.621094 231.777344 166.871094 C 231.773438 179.121094 226.820312 190.183594 218.792969 198.214844 C 210.765625 206.238281 199.703125 211.191406 187.453125 211.195312 C 175.203125 211.191406 164.136719 206.238281 156.109375 198.214844 C 148.085938 190.183594 143.128906 179.121094 143.128906 166.871094 L 140.648438 166.871094 " fill-opacity="1" fill-rule="nonzero"/><path fill="#ffffff" d="M 178.875 188.597656 L 178.875 145.144531 L 204.703125 166.871094 Z M 178.875 188.597656 " fill-opacity="1" fill-rule="nonzero"/><path fill="#171721" d="M 178.875 188.597656 L 181.355469 188.597656 L 181.355469 150.472656 L 200.851562 166.871094 L 177.277344 186.703125 L 178.875 188.597656 L 181.355469 188.597656 L 178.875 188.597656 L 180.472656 190.492188 L 206.300781 168.769531 C 206.863281 168.296875 207.1875 167.609375 207.1875 166.871094 C 207.1875 166.136719 206.863281 165.449219 206.300781 164.972656 L 180.472656 143.246094 C 179.734375 142.625 178.703125 142.488281 177.828125 142.894531 C 176.957031 143.300781 176.398438 144.179688 176.398438 145.144531 L 176.398438 188.597656 C 176.398438 189.5625 176.957031 190.4375 177.828125 190.84375 C 178.703125 191.253906 179.734375 191.113281 180.472656 190.492188 L 178.875 188.597656 " fill-opacity="1" fill-rule="nonzero"/><path fill="#171721" d="M 58.605469 270.535156 L 58.605469 254.644531 L 70.34375 262.589844 Z M 58.605469 270.535156 " fill-opacity="1" fill-rule="nonzero"/><path fill="#171721" d="M 37.484375 256.390625 L 37.484375 268.792969 C 37.484375 270.160156 38.59375 271.269531 39.96875 271.269531 C 41.335938 271.269531 42.445312 270.160156 42.445312 268.792969 L 42.445312 256.390625 C 42.445312 255.023438 41.335938 253.910156 39.96875 253.910156 C 38.59375 253.910156 37.484375 255.023438 37.484375 256.390625 " fill-opacity="1" fill-rule="nonzero"/><path fill="#171721" d="M 45.75 256.390625 L 45.75 268.792969 C 45.75 270.160156 46.859375 271.269531 48.230469 271.269531 C 49.601562 271.269531 50.710938 270.160156 50.710938 268.792969 L 50.710938 256.390625 C 50.710938 255.023438 49.601562 253.910156 48.230469 253.910156 C 46.859375 253.910156 45.75 255.023438 45.75 256.390625 " fill-opacity="1" fill-rule="nonzero"/><path fill="#ffffff" d="M 342.496094 262.589844 C 342.496094 266.980469 338.933594 270.535156 334.542969 270.535156 L 90.0625 270.535156 C 85.679688 270.535156 82.121094 266.980469 82.121094 262.589844 C 82.121094 258.199219 85.679688 254.644531 90.0625 254.644531 L 334.542969 254.644531 C 338.933594 254.644531 342.496094 258.199219 342.496094 262.589844 " fill-opacity="1" fill-rule="nonzero"/><path fill="#171721" d="M 342.496094 262.589844 L 340.011719 262.589844 C 340.011719 264.109375 339.40625 265.457031 338.410156 266.453125 C 337.414062 267.449219 336.0625 268.054688 334.542969 268.054688 L 90.0625 268.054688 C 88.546875 268.054688 87.195312 267.449219 86.203125 266.457031 C 85.207031 265.457031 84.605469 264.109375 84.601562 262.589844 C 84.605469 261.070312 85.207031 259.71875 86.203125 258.726562 C 87.195312 257.734375 88.546875 257.121094 90.0625 257.121094 L 334.542969 257.121094 C 336.0625 257.121094 337.414062 257.734375 338.410156 258.726562 C 339.40625 259.71875 340.011719 261.070312 340.011719 262.589844 L 344.972656 262.589844 C 344.972656 259.714844 343.800781 257.097656 341.917969 255.21875 C 340.039062 253.335938 337.414062 252.160156 334.542969 252.164062 L 90.0625 252.164062 C 87.195312 252.160156 84.574219 253.335938 82.695312 255.21875 C 80.8125 257.097656 79.640625 259.714844 79.640625 262.589844 C 79.640625 265.460938 80.8125 268.082031 82.695312 269.960938 C 84.574219 271.84375 87.195312 273.015625 90.0625 273.015625 L 334.542969 273.015625 C 337.417969 273.015625 340.039062 271.84375 341.917969 269.960938 C 343.800781 268.082031 344.972656 265.460938 344.972656 262.589844 L 342.496094 262.589844 " fill-opacity="1" fill-rule="nonzero"/><path fill="#ffa501" d="M 337.210938 262.589844 C 337.210938 264.605469 335.144531 266.234375 332.59375 266.234375 L 190.574219 266.234375 C 188.023438 266.234375 185.957031 264.605469 185.957031 262.589844 C 185.957031 260.578125 188.023438 258.945312 190.574219 258.945312 L 332.59375 258.945312 C 335.144531 258.945312 337.210938 260.578125 337.210938 262.589844 " fill-opacity="1" fill-rule="nonzero"/><path fill="#b8a780" d="M 277.0625 153.351562 C 277.0625 153.351562 270.550781 169.902344 263.210938 181.554688 C 263.210938 181.554688 259.769531 183.921875 260.21875 191.90625 C 260.21875 191.90625 264.3125 195.167969 266.46875 195.746094 C 267.117188 195.917969 269.972656 194.65625 272.640625 191.003906 C 275.632812 186.917969 282.335938 172.960938 284.289062 168.640625 C 286.25 164.320312 282.824219 151.621094 282.824219 151.621094 L 277.0625 153.351562 " fill-opacity="1" fill-rule="nonzero"/><path fill="#6d2e39" d="M 304.828125 128.140625 C 304.828125 128.140625 304.828125 131.78125 303.742188 135.917969 C 303.003906 138.738281 299.539062 142.328125 299.066406 142.574219 C 298.601562 142.824219 291.054688 133.382812 290.863281 133.128906 C 290.671875 132.871094 287.234375 129.484375 287.066406 129.421875 C 286.902344 129.359375 287.289062 125.90625 289.011719 125.84375 C 290.734375 125.78125 304.828125 128.140625 304.828125 128.140625 " fill-opacity="1" fill-rule="nonzero"/><path fill="#18100e" d="M 287.8125 318.121094 L 291.109375 319.121094 L 295.640625 318.882812 C 295.640625 318.882812 297.050781 320.71875 298.117188 328.308594 C 298.242188 329.179688 298.246094 330.867188 298.246094 330.867188 C 298.246094 330.867188 294.496094 331.351562 287.902344 331.125 C 287.902344 331.125 274.21875 332.421875 270.042969 330.449219 L 270.078125 328.804688 L 269.996094 328.824219 C 269.996094 328.824219 270.039062 326.796875 271.515625 326.441406 C 278.753906 324.710938 283.429688 322.953125 285.589844 320.5625 C 285.589844 320.5625 287.75 317.972656 287.8125 318.121094 " fill-opacity="1" fill-rule="nonzero"/><path fill="#18100e" d="M 320.746094 316.292969 C 320.746094 316.292969 320.027344 332.597656 321.832031 333.746094 C 321.832031 333.746094 329.015625 335.894531 332.566406 333.667969 C 332.566406 333.667969 330.300781 326.015625 329.148438 320.519531 L 320.746094 316.292969 " fill-opacity="1" fill-rule="nonzero"/><path fill="#231511" d="M 298.839844 266.730469 C 298.839844 266.730469 299.359375 277.003906 300.636719 282.582031 C 301.03125 284.324219 304.316406 327.257812 298.117188 328.308594 C 298.117188 328.308594 277 327.367188 277.628906 324.765625 C 279.742188 316.035156 283.125 265.945312 283.125 265.945312 L 298.839844 266.730469 " fill-opacity="1" fill-rule="nonzero"/><path fill="#351f17" d="M 332.566406 331.316406 C 337.453125 330.902344 333.183594 296.164062 329.722656 285.660156 C 325.828125 273.832031 323.550781 267.609375 315.957031 260.292969 C 308.367188 252.976562 306.230469 266.160156 306.230469 266.160156 C 314.921875 297.128906 312.5625 319.558594 317.71875 331.742188 C 320.511719 333.878906 328.28125 333.425781 332.566406 331.316406 " fill-opacity="1" fill-rule="nonzero"/><path fill="#231511" d="M 276.519531 218.429688 C 277.925781 240.300781 281.742188 257 283.125 265.945312 C 283.125 265.945312 293.730469 271.675781 298.359375 269.082031 C 300.78125 267.722656 302.957031 202.226562 302.957031 202.226562 L 276.519531 218.429688 " fill-opacity="1" fill-rule="nonzero"/><path fill="#351f17" d="M 304.378906 212.4375 C 304.378906 212.4375 312.945312 205.253906 313.992188 212.082031 C 313.992188 212.082031 316.050781 228.539062 316.539062 232.660156 C 317.183594 238.160156 320.179688 256.273438 323.257812 269.800781 C 323.257812 269.800781 310.3125 270.121094 307.859375 268.117188 C 305.402344 266.105469 297.996094 248.667969 291.1875 236.882812 L 283.515625 217.308594 L 304.378906 212.4375 " fill-opacity="1" fill-rule="nonzero"/><path fill="#351f17" d="M 276.804688 219.363281 C 276.804688 219.363281 283.71875 224.367188 292.050781 238.402344 C 292.050781 238.402344 293.601562 225.777344 293.667969 225.1875 C 293.734375 224.59375 288.296875 217.050781 288.097656 216.984375 C 287.898438 216.917969 276.804688 219.363281 276.804688 219.363281 " fill-opacity="1" fill-rule="nonzero"/><path fill="#1f0e1e" d="M 287.949219 122.179688 C 293.601562 122.34375 294.945312 121.789062 299.816406 122.855469 C 301.847656 123.296875 304.847656 124.542969 304.847656 128.875 C 304.480469 128.96875 303.449219 129.023438 303.085938 129.128906 C 300.386719 129.90625 298.003906 129.242188 295.390625 129.960938 C 294.265625 130.273438 293.386719 130.792969 292.683594 131.425781 C 291.519531 131.042969 290.304688 130.796875 289.015625 130.734375 C 287.34375 130.660156 285.820312 131.34375 284.640625 132.421875 L 287.035156 128.335938 C 286.785156 128.1875 284.800781 126.855469 283.863281 126.226562 C 280.804688 124.171875 282.292969 122.015625 287.949219 122.179688 " fill-opacity="1" fill-rule="nonzero"/><path fill="#fab43d" d="M 294.21875 149.757812 C 294.21875 149.757812 300.921875 149.179688 312.671875 152.925781 C 312.671875 152.925781 319.453125 162.152344 315.050781 178.996094 C 312.328125 189.421875 313.851562 203.304688 314.644531 216.789062 C 314.644531 216.789062 289.800781 227.933594 276.804688 219.363281 C 276.804688 219.363281 280.5625 179.714844 279.59375 152.136719 C 279.59375 152.136719 281.824219 149.929688 294.21875 149.757812 " fill-opacity="1" fill-rule="nonzero"/><path fill="#f8dfa5" d="M 310.945312 152.925781 L 311.246094 152.488281 L 312.671875 152.925781 C 312.671875 152.925781 319.183594 157.902344 316.464844 175.1875 C 316.464844 175.1875 311.238281 190.433594 309.398438 192.644531 C 307.554688 194.855469 297.746094 176.949219 310.945312 152.925781 " fill-opacity="1" fill-rule="nonzero"/><path fill="#6d2e39" d="M 288.550781 139.265625 C 288.550781 139.265625 290.25 147.261719 288.660156 152.289062 C 288.660156 152.289062 296.132812 156.113281 299.535156 152.84375 C 299.535156 152.84375 297.753906 140.496094 300.53125 138.488281 C 303.3125 136.488281 288.550781 139.265625 288.550781 139.265625 " fill-opacity="1" fill-rule="nonzero"/><path fill="#9d4b36" d="M 294.980469 126.820312 C 294.234375 126.542969 286.332031 120.269531 284.285156 132.171875 C 284.285156 132.171875 283.828125 136.097656 284.273438 138.921875 C 285.011719 143.640625 287.355469 146.703125 288.898438 146.703125 C 288.898438 146.703125 299.925781 144.691406 299.171875 140.070312 C 298.46875 135.800781 298.410156 128.839844 294.980469 126.820312 " fill-opacity="1" fill-rule="nonzero"/><path fill="#9d4b36" d="M 297.933594 137.21875 C 297.429688 139.25 297.957031 141.121094 299.109375 141.402344 C 300.257812 141.691406 301.597656 140.277344 302.097656 138.253906 C 302.597656 136.21875 302.074219 134.34375 300.921875 134.058594 C 299.773438 133.777344 298.433594 135.191406 297.933594 137.21875 " fill-opacity="1" fill-rule="nonzero"/><path fill="#fab43d" d="M 276.804688 219.363281 C 276.804688 219.363281 274 214.207031 274.863281 204.949219 C 275.746094 195.488281 277.507812 185.546875 275.410156 176.210938 C 274.53125 172.304688 275.148438 164.433594 277.0625 153.351562 L 280.480469 151.621094 L 288.550781 172.15625 C 288.550781 172.15625 280.425781 207.234375 280.527344 207.523438 C 280.621094 207.8125 276.804688 219.363281 276.804688 219.363281 " fill-opacity="1" fill-rule="nonzero"/><path fill="#f8dfa5" d="M 301.28125 149.277344 C 300.734375 148.625 299.753906 147.929688 299.753906 147.929688 C 299.753906 147.929688 301.605469 145.710938 300.882812 144.199219 C 300.160156 142.691406 297.660156 143.640625 296.671875 144.308594 C 295.585938 145.042969 292.761719 148.289062 287.035156 146.171875 C 287.035156 146.171875 286.054688 146.484375 286.644531 147.734375 C 287.234375 148.988281 287.34375 148.4375 287.824219 148.472656 C 288.304688 148.507812 287.035156 149.691406 287.035156 149.691406 C 287.035156 149.691406 287.152344 149.699219 287.363281 149.71875 C 284.785156 150.542969 282.566406 151.183594 282.566406 151.183594 C 281.554688 162.246094 287.824219 171.398438 287.824219 171.398438 C 296.292969 166.046875 305.535156 151.003906 305.535156 151.003906 C 304.136719 150.609375 302.683594 149.953125 301.28125 149.277344 " fill-opacity="1" fill-rule="nonzero"/><path fill="#1f0e1e" d="M 294.3125 126.394531 C 294.3125 126.394531 291.621094 126.214844 289.109375 126.851562 C 286.601562 127.484375 284.578125 128.65625 283.121094 126.609375 C 281.65625 124.5625 285.960938 123.964844 286.074219 123.925781 C 286.1875 123.890625 293.042969 124.078125 293.523438 124.191406 C 294.015625 124.300781 295.585938 124.527344 295.585938 124.527344 L 294.3125 126.394531 " fill-opacity="1" fill-rule="nonzero"/><g clip-path="url(#de0bd07fcc)"><path fill="#18100e" d="M 334.964844 336.625 C 334.964844 336.625 333.890625 330.238281 328.410156 331.476562 C 323.410156 332.609375 321.222656 332.363281 321.222656 332.363281 C 321.222656 332.363281 320.769531 336.265625 321.148438 336.953125 C 321.527344 337.644531 332.6875 337.78125 334.964844 336.625 " fill-opacity="1" fill-rule="nonzero"/></g><path fill="#793620" d="M 250.390625 167.304688 L 247.503906 161.207031 C 247.503906 161.207031 241.109375 153.703125 240.964844 153.441406 L 240.0625 153.769531 L 240.957031 156.707031 L 239.742188 159.082031 L 240.457031 163.921875 L 243.507812 169 L 246.363281 171.472656 C 246.363281 171.472656 248.570312 171.246094 250.390625 167.304688 " fill-opacity="1" fill-rule="nonzero"/><path fill="#1f0e1e" d="M 286.089844 135.054688 C 286.089844 135.054688 285.65625 134.160156 284.53125 134.683594 L 284.601562 134.589844 C 284.601562 134.589844 285.246094 134.148438 285.589844 134.320312 C 285.929688 134.496094 286.089844 134.753906 286.089844 135.054688 " fill-opacity="1" fill-rule="nonzero"/><path fill="#1f0e1e" d="M 292.894531 135.941406 L 292.902344 135.9375 C 292.949219 136.0625 292.992188 136.191406 293.042969 136.316406 L 293.035156 136.324219 C 290.777344 135.125 289.277344 135.933594 289.277344 135.933594 C 290.703125 134.445312 292.894531 135.941406 292.894531 135.941406 " fill-opacity="1" fill-rule="nonzero"/><path fill="#f68c82" d="M 287.136719 135.355469 C 287.136719 135.355469 286.78125 135.433594 285.578125 137.523438 C 285.578125 137.523438 284.984375 138.9375 285.132812 138.980469 C 285.28125 139.019531 286.113281 139.289062 286.609375 139.140625 C 286.894531 139.054688 287.382812 137.980469 287.324219 137.792969 C 287.265625 137.605469 287.273438 135.605469 287.273438 135.605469 L 287.136719 135.355469 " fill-opacity="1" fill-rule="nonzero"/><path fill="#6d2e39" d="M 287.136719 135.355469 C 287.136719 135.355469 286.78125 135.433594 285.578125 137.523438 C 285.578125 137.523438 284.984375 138.9375 285.132812 138.980469 C 285.28125 139.019531 286.113281 139.289062 286.609375 139.140625 C 286.894531 139.054688 287.382812 137.980469 287.324219 137.792969 C 287.265625 137.605469 287.273438 135.605469 287.273438 135.605469 L 287.136719 135.355469 " fill-opacity="1" fill-rule="nonzero"/><path fill="#f2f1e3" d="M 286.828125 140.628906 C 286.828125 140.628906 287.960938 141.421875 290.972656 140.867188 C 290.972656 140.867188 290.445312 141.769531 288.972656 141.835938 C 288.421875 141.859375 287.113281 141.578125 286.828125 140.628906 " fill-opacity="1" fill-rule="nonzero"/><path fill="#1f0e1e" d="M 286.6875 132.359375 L 286.730469 133.34375 C 286.730469 133.34375 285.59375 131.933594 284.375 132.53125 L 284.277344 132.410156 C 284.277344 132.410156 285.050781 130.59375 286.6875 132.359375 " fill-opacity="1" fill-rule="nonzero"/><path fill="#1f0e1e" d="M 289.0625 133.804688 L 289.160156 132.523438 C 289.160156 132.523438 291.386719 132.085938 292.644531 132.847656 C 293.90625 133.617188 294.417969 134.871094 294.417969 134.871094 L 294.265625 134.949219 C 294.265625 134.949219 292.070312 132.804688 289.0625 133.804688 " fill-opacity="1" fill-rule="nonzero"/><path fill="#b8a780" d="M 269.511719 190.667969 C 266.140625 187.585938 268.09375 183.335938 264.554688 180.402344 C 262.574219 178.761719 260.757812 177.203125 259.105469 175.761719 C 256.675781 173.1875 255.425781 168.84375 252.75 167.257812 C 251.488281 166.507812 248.46875 167.042969 248.46875 167.042969 C 245.375 167.816406 243.648438 170.59375 243.769531 173.265625 C 243.980469 177.820312 251.410156 183.84375 254.675781 185.460938 C 257.136719 188.78125 260.21875 191.90625 260.21875 191.90625 L 269.511719 190.667969 " fill-opacity="1" fill-rule="nonzero"/><g clip-path="url(#9efef936ee)"><path fill="#a47343" d="M 248.300781 165.835938 C 248.300781 165.835938 232.476562 134.855469 231.496094 132.792969 L 231.222656 132.945312 C 231.222656 132.945312 246.738281 165.144531 247.523438 166.617188 C 247.523438 166.617188 248.445312 166.625 248.300781 165.835938 " fill-opacity="1" fill-rule="nonzero"/></g><path fill="#793620" d="M 246.808594 164.574219 L 246.183594 161.882812 L 244.855469 160.078125 L 244.621094 157.492188 L 245.042969 157.375 L 246.6875 159.75 L 249.992188 161.625 L 250.019531 166.59375 L 248.542969 166.117188 L 246.808594 164.574219 " fill-opacity="1" fill-rule="nonzero"/><path fill="#1f0e1e" d="M 284.054688 140.328125 C 284.054688 140.328125 284.59375 139.191406 285.34375 139.207031 C 286.097656 139.222656 289.660156 139.03125 290.742188 139.667969 C 291.820312 140.300781 291.828125 141.339844 291.828125 141.339844 C 291.828125 141.339844 285.554688 141.492188 284.054688 140.328125 " fill-opacity="1" fill-rule="nonzero"/><path fill="#520e17" d="M 316.445312 226.382812 C 316.445312 226.382812 299.53125 211.945312 299.214844 211.433594 C 298.898438 210.921875 308.050781 195.867188 309.433594 194.820312 L 310.125 195.246094 L 311.578125 196.140625 C 311.578125 196.140625 311.90625 195.390625 312.566406 195.691406 C 313.496094 196.117188 328.367188 211.550781 328.367188 211.550781 L 316.445312 226.382812 " fill-opacity="1" fill-rule="nonzero"/><path fill="#f2f1e3" d="M 310.125 195.246094 C 310.125 195.246094 307.023438 199.449219 299.929688 210.726562 C 299.929688 210.726562 299.933594 211.996094 311.578125 196.140625 L 310.125 195.246094 " fill-opacity="1" fill-rule="nonzero"/><path fill="#9d4b36" d="M 308.515625 211.347656 C 308.515625 211.347656 306.691406 212.71875 305.621094 213.890625 C 304.550781 215.0625 304.453125 215.71875 303.898438 217.484375 C 303.347656 219.25 305.121094 218.828125 305.4375 218.855469 C 305.4375 218.855469 305.054688 219.90625 306.117188 220.765625 C 307.179688 221.625 308.101562 221.511719 308.101562 221.511719 C 308.101562 221.511719 309.660156 222.699219 311.257812 221.339844 C 311.257812 221.339844 312.484375 221.921875 313.277344 221.128906 C 314.0625 220.339844 316.386719 217.773438 316.222656 214.957031 C 316.058594 212.136719 309.691406 210.40625 308.515625 211.347656 " fill-opacity="1" fill-rule="nonzero"/><path fill="#9d4b36" d="M 308.21875 210.824219 C 308.21875 210.824219 305.164062 211.617188 304.632812 212.316406 C 304.097656 213.015625 304.1875 215.316406 304.757812 216.183594 C 305.328125 217.050781 308.847656 212.464844 308.898438 212.410156 C 308.957031 212.351562 309.65625 211.652344 309.65625 211.652344 C 309.65625 211.652344 309.949219 210.601562 308.21875 210.824219 " fill-opacity="1" fill-rule="nonzero"/><path fill="#f8dfa5" d="M 334.460938 185.433594 C 332.734375 179.8125 329.195312 173.804688 325.449219 168.492188 C 317.9375 154.214844 312.671875 152.925781 312.671875 152.925781 L 312.667969 152.996094 C 312.578125 152.902344 312.519531 152.84375 312.519531 152.84375 L 310.644531 174.03125 C 312.539062 177.867188 315.714844 177.800781 320.324219 185.496094 C 320.324219 185.496094 316.027344 193.96875 312.496094 201.382812 C 311.519531 203.433594 307.777344 207.433594 307.554688 210.992188 C 307.554688 210.992188 307.851562 214.96875 316.121094 216.292969 C 316.992188 216.433594 320.160156 215.824219 324.984375 209.710938 C 330.160156 203.15625 336.097656 190.757812 334.460938 185.433594 " fill-opacity="1" fill-rule="nonzero"/><path fill="#6d2e39" d="M 298.347656 138.261719 C 298.347656 138.261719 299.21875 135.03125 300.519531 134.988281 C 301.824219 134.945312 301.980469 136.324219 302.035156 136.558594 C 302.089844 136.789062 300.542969 134.988281 298.347656 138.261719 " fill-opacity="1" fill-rule="nonzero"/></svg>