<svg xmlns="http://www.w3.org/2000/svg" width="500" height="500" version="1.0" viewBox="0 0 375 375"><defs><clipPath id="a"><path d="M19.047 65.79h336.75v219.75H19.047Zm0 0"/></clipPath><clipPath id="b"><path d="M320 331h15v6.797h-15Zm0 0"/></clipPath><clipPath id="c"><path d="M231.07 132H249v35h-17.93Zm0 0"/></clipPath></defs><path fill="#fff" d="M-37.5-37.5h450v450h-450z"/><path fill="#fff" d="M-37.5-37.5h450v450h-450z"/><path fill="#ff7130" d="M352.945 283.11H21.953V68.2h330.992v214.91"/><g clip-path="url(#a)"><path fill="#171721" d="M352.945 283.11v-2.454H24.406V70.648h326.086l.004 212.461h2.45v-2.453 2.453h2.449V68.2c0-.648-.258-1.277-.72-1.734a2.472 2.472 0 0 0-1.73-.719H21.953c-.64 0-1.273.266-1.73.719a2.48 2.48 0 0 0-.72 1.734v214.91c0 .645.267 1.274.72 1.73.46.458 1.09.72 1.73.72h330.992a2.455 2.455 0 0 0 2.45-2.45h-2.45"/></g><path fill="#fff" d="M340.605 239.71H34.297V78.532h306.308v161.18"/><path fill="#171721" d="M340.605 239.71v-2.476H36.777V81.008H338.13V239.71h2.476v-2.477 2.477h2.48V78.53a2.477 2.477 0 0 0-2.48-2.48H34.297c-.656 0-1.297.261-1.758.726a2.51 2.51 0 0 0-.727 1.754v161.18c0 .656.27 1.293.727 1.754.461.465 1.102.726 1.758.726h306.308a2.477 2.477 0 0 0 2.48-2.48h-2.48"/><path fill="#ffa501" d="M140.648 166.871c0 25.848 20.954 46.805 46.805 46.805 25.848 0 46.8-20.957 46.8-46.805s-20.952-46.805-46.8-46.805c-25.851 0-46.805 20.957-46.805 46.805"/><path fill="#171721" d="M140.648 166.871h-2.48c.004 27.219 22.062 49.281 49.285 49.281 27.219 0 49.281-22.062 49.281-49.28 0-27.22-22.062-49.286-49.28-49.286-27.224 0-49.282 22.066-49.286 49.285h4.96c0-12.25 4.958-23.312 12.981-31.344 8.028-8.027 19.094-12.984 31.344-12.984s23.313 4.957 31.34 12.984c8.027 8.032 12.98 19.094 12.984 31.344-.004 12.25-4.957 23.313-12.984 31.344-8.027 8.023-19.09 12.976-31.34 12.98-12.25-.004-23.316-4.957-31.344-12.98-8.023-8.031-12.98-19.094-12.98-31.344h-2.48"/><path fill="#fff" d="M178.875 188.598v-43.453l25.828 21.726Zm0 0"/><path fill="#171721" d="M178.875 188.598h2.48v-38.125l19.497 16.398-23.575 19.832 1.598 1.895h2.48-2.48l1.598 1.894L206.3 168.77a2.47 2.47 0 0 0 .887-1.899c0-.734-.325-1.422-.887-1.898l-25.828-21.727a2.483 2.483 0 0 0-2.645-.351 2.483 2.483 0 0 0-1.43 2.25v43.453a2.478 2.478 0 0 0 4.075 1.894l-1.598-1.894M58.605 270.535v-15.89l11.739 7.945ZM37.484 256.39v12.403a2.479 2.479 0 0 0 2.485 2.477 2.477 2.477 0 0 0 2.476-2.477v-12.402a2.48 2.48 0 0 0-4.96 0M45.75 256.39v12.403a2.478 2.478 0 0 0 2.48 2.477c1.372 0 2.48-1.11 2.48-2.477v-12.402a2.481 2.481 0 0 0-4.96 0"/><path fill="#fff" d="M342.496 262.59c0 4.39-3.562 7.945-7.953 7.945H90.063a7.944 7.944 0 0 1-7.942-7.945 7.944 7.944 0 0 1 7.942-7.945h244.48c4.39 0 7.953 3.554 7.953 7.945"/><path fill="#171721" d="M342.496 262.59h-2.484c0 1.52-.606 2.867-1.602 3.863a5.42 5.42 0 0 1-3.867 1.602H90.063a5.415 5.415 0 0 1-3.86-1.598 5.443 5.443 0 0 1-1.601-3.867 5.42 5.42 0 0 1 1.601-3.863 5.421 5.421 0 0 1 3.86-1.606h244.48a5.44 5.44 0 0 1 3.867 1.606 5.404 5.404 0 0 1 1.602 3.863h4.96c0-2.875-1.171-5.492-3.054-7.371a10.4 10.4 0 0 0-7.375-3.055H90.063a10.39 10.39 0 0 0-7.368 3.055 10.401 10.401 0 0 0-3.054 7.37c0 2.872 1.171 5.493 3.054 7.372a10.406 10.406 0 0 0 7.368 3.055h244.48a10.41 10.41 0 0 0 7.375-3.055 10.408 10.408 0 0 0 3.055-7.371h-2.477"/><path fill="#ffa501" d="M337.21 262.59c0 2.015-2.065 3.644-4.616 3.644h-142.02c-2.55 0-4.617-1.629-4.617-3.644 0-2.012 2.066-3.645 4.617-3.645h142.02c2.55 0 4.617 1.633 4.617 3.645"/><path fill="#b8a780" d="M277.063 153.352s-6.512 16.55-13.852 28.203c0 0-3.441 2.367-2.992 10.351 0 0 4.094 3.262 6.25 3.84.648.172 3.504-1.09 6.172-4.742 2.992-4.086 9.695-18.043 11.648-22.363 1.961-4.32-1.465-17.02-1.465-17.02l-5.762 1.73"/><path fill="#6d2e39" d="M304.828 128.14s0 3.641-1.086 7.778c-.738 2.82-4.203 6.41-4.676 6.656-.464.25-8.011-9.191-8.203-9.445-.191-.258-3.629-3.645-3.797-3.707-.164-.063.223-3.516 1.946-3.578 1.722-.063 15.816 2.297 15.816 2.297"/><path fill="#18100e" d="m287.813 318.121 3.296 1 4.532-.238s1.41 1.836 2.476 9.426c.125.87.13 2.558.13 2.558s-3.75.485-10.345.258c0 0-13.683 1.297-17.859-.676l.035-1.644-.082.02s.043-2.028 1.52-2.384c7.238-1.73 11.914-3.488 14.074-5.878 0 0 2.16-2.59 2.223-2.442M320.746 316.293s-.719 16.305 1.086 17.453c0 0 7.184 2.149 10.734-.078 0 0-2.265-7.652-3.418-13.148l-8.402-4.227"/><path fill="#231511" d="M298.84 266.73s.52 10.274 1.797 15.852c.394 1.742 3.68 44.676-2.52 45.727 0 0-21.117-.942-20.488-3.543 2.113-8.73 5.496-58.82 5.496-58.82l15.715.784"/><path fill="#351f17" d="M332.566 331.316c4.887-.414.618-35.152-2.843-45.656-3.895-11.828-6.172-18.05-13.766-25.367-7.59-7.316-9.727 5.867-9.727 5.867 8.692 30.969 6.332 53.399 11.489 65.582 2.793 2.137 10.562 1.684 14.847-.426"/><path fill="#231511" d="M276.52 218.43c1.406 21.87 5.222 38.57 6.605 47.515 0 0 10.605 5.73 15.234 3.137 2.422-1.36 4.598-66.855 4.598-66.855L276.52 218.43"/><path fill="#351f17" d="M304.379 212.438s8.566-7.184 9.613-.356c0 0 2.059 16.457 2.547 20.578.645 5.5 3.64 23.613 6.719 37.14 0 0-12.945.321-15.399-1.683-2.457-2.012-9.863-19.449-16.671-31.234l-7.672-19.574 20.863-4.871"/><path fill="#351f17" d="M276.805 219.363s6.914 5.004 15.246 19.04c0 0 1.55-12.626 1.617-13.215.066-.594-5.371-8.137-5.57-8.204-.2-.066-11.293 2.38-11.293 2.38"/><path fill="#1f0e1e" d="M287.95 122.18c5.652.164 6.995-.39 11.866.675 2.032.442 5.032 1.688 5.032 6.02-.368.094-1.399.148-1.762.254-2.7.777-5.082.113-7.695.832a6.617 6.617 0 0 0-2.707 1.465 13.804 13.804 0 0 0-3.668-.692c-1.672-.074-3.196.61-4.375 1.688l2.394-4.086c-.25-.149-2.234-1.48-3.172-2.11-3.058-2.054-1.57-4.21 4.086-4.046"/><path fill="#fab43d" d="M294.219 149.758s6.703-.578 18.453 3.168c0 0 6.781 9.226 2.379 26.07-2.723 10.426-1.2 24.309-.406 37.793 0 0-24.844 11.145-37.84 2.574 0 0 3.757-39.648 2.789-67.226 0 0 2.23-2.207 14.625-2.38"/><path fill="#f8dfa5" d="m310.945 152.926.301-.438 1.426.438s6.512 4.976 3.793 22.262c0 0-5.227 15.246-7.067 17.457-1.843 2.21-11.652-15.696 1.547-39.72"/><path fill="#6d2e39" d="M288.55 139.266s1.7 7.996.11 13.023c0 0 7.473 3.824 10.875.555 0 0-1.781-12.348.996-14.356 2.781-2-11.98.778-11.98.778"/><path fill="#9d4b36" d="M294.98 126.82c-.746-.277-8.648-6.55-10.695 5.352 0 0-.457 3.926-.012 6.75.739 4.719 3.082 7.781 4.625 7.781 0 0 11.028-2.012 10.274-6.633-.703-4.27-.762-11.23-4.192-13.25"/><path fill="#9d4b36" d="M297.934 137.219c-.504 2.031.023 3.902 1.175 4.183 1.149.29 2.489-1.125 2.989-3.148.5-2.035-.024-3.91-1.176-4.195-1.149-.282-2.488 1.132-2.988 3.16"/><path fill="#fab43d" d="M276.805 219.363s-2.805-5.156-1.942-14.414c.883-9.46 2.645-19.402.547-28.738-.879-3.906-.262-11.777 1.652-22.86l3.418-1.73 8.07 20.535s-8.124 35.078-8.023 35.367c.094.29-3.722 11.84-3.722 11.84"/><path fill="#f8dfa5" d="M301.281 149.277c-.547-.652-1.527-1.347-1.527-1.347s1.851-2.22 1.129-3.73c-.723-1.509-3.223-.56-4.211.109-1.086.734-3.91 3.98-9.637 1.863 0 0-.98.312-.39 1.562.59 1.254.699.703 1.18.739.48.035-.79 1.218-.79 1.218s.117.008.328.028c-2.578.824-4.797 1.465-4.797 1.465-1.011 11.062 5.258 20.214 5.258 20.214 8.469-5.351 17.711-20.394 17.711-20.394-1.398-.395-2.851-1.05-4.254-1.727"/><path fill="#1f0e1e" d="M294.313 126.395s-2.692-.18-5.204.457c-2.507.632-4.53 1.804-5.988-.243-1.465-2.046 2.84-2.644 2.953-2.683.113-.035 6.969.152 7.45.265.492.11 2.062.336 2.062.336l-1.274 1.868"/><g clip-path="url(#b)"><path fill="#18100e" d="M334.965 336.625s-1.074-6.387-6.555-5.148c-5 1.132-7.187.886-7.187.886s-.453 3.903-.075 4.59c.38.692 11.54.828 13.817-.328"/></g><path fill="#793620" d="m250.39 167.305-2.886-6.098s-6.395-7.504-6.54-7.766l-.901.329.894 2.937-1.215 2.375.715 4.84 3.05 5.078 2.856 2.473s2.207-.227 4.028-4.168"/><path fill="#1f0e1e" d="M286.09 135.055s-.434-.895-1.559-.371l.07-.094s.645-.442.989-.27c.34.176.5.434.5.735M292.895 135.941l.007-.004c.047.125.09.254.141.38l-.008.007c-2.258-1.199-3.758-.39-3.758-.39 1.426-1.489 3.618.007 3.618.007"/><path fill="#f68c82" d="M287.137 135.355s-.356.079-1.559 2.168c0 0-.594 1.415-.445 1.457.148.04.98.31 1.476.16.286-.085.774-1.16.715-1.347-.058-.188-.05-2.188-.05-2.188l-.137-.25"/><path fill="#6d2e39" d="M287.137 135.355s-.356.079-1.559 2.168c0 0-.594 1.415-.445 1.457.148.04.98.31 1.476.16.286-.085.774-1.16.715-1.347-.058-.188-.05-2.188-.05-2.188l-.137-.25"/><path fill="#f2f1e3" d="M286.828 140.629s1.133.793 4.145.238c0 0-.528.903-2 .969-.551.023-1.86-.258-2.145-1.207"/><path fill="#1f0e1e" d="m286.688 132.36.042.984s-1.136-1.41-2.355-.813l-.098-.12s.774-1.817 2.41-.052M289.063 133.805l.097-1.282s2.227-.437 3.485.325c1.261.77 1.773 2.023 1.773 2.023l-.152.078s-2.196-2.144-5.204-1.144"/><path fill="#b8a780" d="M269.512 190.668c-3.371-3.082-1.418-7.332-4.957-10.266-1.98-1.64-3.797-3.199-5.45-4.64-2.43-2.575-3.68-6.918-6.355-8.504-1.262-.75-4.281-.215-4.281-.215a6.152 6.152 0 0 0-4.7 6.223c.211 4.554 7.641 10.578 10.907 12.195 2.46 3.32 5.543 6.445 5.543 6.445l9.293-1.238"/><g clip-path="url(#c)"><path fill="#a47343" d="M248.3 165.836s-15.823-30.98-16.804-33.043l-.273.152s15.515 32.2 16.3 33.672c0 0 .922.008.778-.781"/></g><path fill="#793620" d="m246.809 164.574-.625-2.691-1.329-1.805-.234-2.586.422-.117 1.644 2.375 3.305 1.875.028 4.969-1.477-.477-1.734-1.543"/><path fill="#1f0e1e" d="M284.055 140.328s.539-1.137 1.289-1.121c.754.016 4.316-.176 5.398.461 1.078.633 1.086 1.672 1.086 1.672s-6.273.152-7.773-1.012"/><path fill="#520e17" d="M316.445 226.383s-16.914-14.438-17.23-14.95c-.317-.511 8.836-15.566 10.219-16.613l.691.426 1.453.895s.328-.75.988-.45c.93.426 15.801 15.86 15.801 15.86l-11.922 14.832"/><path fill="#f2f1e3" d="M310.125 195.246s-3.102 4.203-10.195 15.48c0 0 .004 1.27 11.648-14.585l-1.453-.895"/><path fill="#9d4b36" d="M308.516 211.348s-1.825 1.37-2.895 2.543c-1.07 1.172-1.168 1.828-1.723 3.593-.55 1.766 1.223 1.344 1.54 1.371 0 0-.383 1.051.68 1.91 1.062.86 1.984.747 1.984.747s1.558 1.187 3.156-.172c0 0 1.226.582 2.02-.211.784-.79 3.109-3.356 2.945-6.172-.164-2.82-6.532-4.55-7.707-3.61"/><path fill="#9d4b36" d="M308.219 210.824s-3.055.793-3.586 1.492c-.535.7-.445 3 .125 3.868.57.867 4.09-3.72 4.14-3.774l.758-.758s.293-1.05-1.437-.828"/><path fill="#f8dfa5" d="M334.46 185.434c-1.726-5.621-5.265-11.63-9.01-16.942-7.512-14.277-12.778-15.566-12.778-15.566l-.004.07c-.09-.094-.148-.152-.148-.152l-1.875 21.187c1.894 3.836 5.07 3.77 9.68 11.465 0 0-4.298 8.473-7.829 15.887-.976 2.05-4.719 6.05-4.941 9.61 0 0 .297 3.976 8.566 5.3.871.14 4.04-.469 8.863-6.582 5.176-6.555 11.114-18.953 9.477-24.277"/><path fill="#6d2e39" d="M298.348 138.262s.87-3.23 2.172-3.274c1.304-.043 1.46 1.336 1.515 1.57.055.231-1.492-1.57-3.687 1.704"/></svg>