<svg clip-rule="evenodd" fill-rule="evenodd" height="128" image-rendering="optimizeQuality" shape-rendering="geometricPrecision" text-rendering="geometricPrecision" viewBox="0 0 25441 25441" width="128" xmlns="http://www.w3.org/2000/svg"><g id="Layer_x0020_1"><g id="_539385136"><circle cx="12721" cy="12721" fill="#ffc42e" r="12721"/><g><path d="m2798 4284h19845c401 0 728 328 728 728v12858c0 401-327 728-728 728h-19845c-401 0-728-327-728-728v-12858c0-400 327-728 728-728z" fill="#1c3b5c"/><path d="m1555 21157h22331c315 0 572-258 572-572v-930c0-314-257-572-572-572h-22331c-315 0-572 258-572 572v930c0 314 257 572 572 572z" fill="#fff"/><path d="m3103 5286h19235v12310h-19235z" fill="#fff"/><g fill="#205081"><path d="m5385 18139h1673v944h-1673z"/><path d="m18383 18139h1673v944h-1673z"/></g><g fill="#c5c7cb"><path d="m9946 19083h5549v657h-5549z"/><path d="m24174 20613h-22907c-103 0-200-27-284-75v47c0 314 257 572 572 572h22331c315 0 572-258 572-572v-47c-84 48-181 75-284 75z"/></g></g><g><path d="m17297 6270h2435v1565h-2435z" fill="#afb0b5"/><path d="m17335 8258h3006v335h-3006z" fill="#8e8e93"/><path d="m17335 8941h3988v224h-3988z" fill="#afb0b5"/></g><g><path d="m17297 9947h2435v1565h-2435z" fill="#afb0b5"/><path d="m17335 11935h3006v335h-3006z" fill="#8e8e93"/><path d="m17335 12618h3988v224h-3988z" fill="#afb0b5"/></g><g><path d="m17297 13624h2435v1565h-2435z" fill="#afb0b5"/><path d="m17335 15612h3006v335h-3006z" fill="#8e8e93"/><path d="m17335 16295h3988v224h-3988z" fill="#afb0b5"/></g><path d="m3103 15727h19235v1870h-19235z" fill="#afb0b5"/><path d="m4052 16293h252v736h-252zm562 0h252v736h-252z" fill="#fff"/><path d="m5800 16522h13528v279h-13528z" fill="#fff"/><path d="m5800 16522h8198v279h-8198z" fill="#ff576b"/><path d="m21322 16211v901l-445-283v-316zm-547 618h-179v-316h179z" fill="#fff"/><path d="m4328 6295h11627v6549h-11627z" fill="#ff576b"/><path d="m4328 13379h3006v335h-3006z" fill="#8e8e93"/><path d="m4328 14062h10203v224h-10203z" fill="#afb0b5"/><path d="m4328 14683h6154v224h-6154z" fill="#afb0b5"/><g fill="#fff"><path d="m10142 8261c361 0 689 147 925 383 237 237 384 564 384 926 0 361-147 688-384 925-237 237-564 383-925 383s-688-146-925-383c-237-237-384-564-384-925s147-688 384-925v-1c236-236 564-383 925-383zm785 524c-201-201-478-325-785-325s-584 124-785 325c-201 200-325 478-325 785s124 584 325 785c201 201 478 325 785 325s584-124 785-325c201-201 325-479 325-785 0-307-124-584-325-785z" fill-rule="nonzero"/><path d="m9899 8908 747 662-747 662z"/><path d="m18264 6609 501 444-501 444z"/><path d="m18264 10286 501 444-501 444z"/><path d="m18264 13963 501 444-501 444z"/></g></g></g></svg>