<svg id="Capa_1" enable-background="new 0 0 497 497" height="512" viewBox="0 0 497 497" width="512" xmlns="http://www.w3.org/2000/svg"><path d="m186.988 383.945h130v79.111h-130z" fill="#78909c"/><path d="m286.988 383.945h30v79.111h-30z" fill="#607d8b"/><path d="m489 400.5h-481c-4.418 0-8-3.582-8-8v-324c0-4.418 3.582-8 8-8h481c4.418 0 8 3.582 8 8v324c0 4.418-3.582 8-8 8z" fill="#90a4ae"/><path d="m489 60.5h-30c4.418 0 8 3.582 8 8v324c0 4.418-3.582 8-8 8h30c4.418 0 8-3.582 8-8v-324c0-4.418-3.582-8-8-8z" fill="#78909c"/><path d="m30 366.5v-272c0-2.209 1.791-4 4-4h429c2.209 0 4 1.791 4 4v272c0 2.209-1.791 4-4 4h-429c-2.209 0-4-1.791-4-4z" fill="#bdf9ff"/><path d="m367.12 476.5h-230.263c-8.284 0-15-6.716-15-15 0-8.284 6.716-15 15-15h230.263c8.284 0 15 6.716 15 15 0 8.284-6.716 15-15 15z" fill="#90a4ae"/><path d="m367.12 446.5h-30c8.284 0 15 6.716 15 15s-6.716 15-15 15h30c8.284 0 15-6.716 15-15s-6.716-15-15-15z" fill="#78909c"/><g fill="#e8916f"><path d="m275.191 136.135c0 12.168-7.055 22.238-15.758 22.238s-16.885-13.323-16.885-25.491 8.182-18.779 16.885-18.779 15.758 9.864 15.758 22.032z"/><path d="m393.96 136.135c0 12.168 7.055 22.238 15.758 22.238s16.885-13.323 16.885-25.491-8.182-18.779-16.885-18.779-15.758 9.864-15.758 22.032z"/><path d="m319.575 199.907h30v62.069h-30z" transform="matrix(-1 0 0 -1 669.15 461.883)"/></g><path d="m267.541 143.129v-49.788c0-34.916 28.305-63.221 63.221-63.221h7.627c34.916 0 63.221 28.305 63.221 63.221v49.788c0 36.998-29.993 66.99-66.99 66.99h-.088c-36.998.001-66.991-29.992-66.991-66.99z" fill="#ebad88"/><path d="m338.389 30.121h-7.627c-3.82 0-7.553.358-11.187 1.007 29.577 5.284 52.034 31.118 52.034 62.214v49.788c0 31.854-22.24 58.496-52.034 65.293 4.811 1.098 9.812 1.697 14.956 1.697h.087c36.998 0 66.99-29.993 66.99-66.991v-49.788c.001-34.915-28.304-63.22-63.219-63.22z" fill="#e8916f"/><path d="m410.448 114.118c-8.789 1.589-8.839 17.82-8.839 17.82s-7.215 3.039-8.752-1.161c-12.94-35.368-62.805-29.976-86.313-57.929-11.718-13.934-24.17 7.982-25.057 18.726-.894 10.738-2.861 35.392-5.195 39.203-2.34 3.811-8.752 1.161-8.752 1.161s-.05-16.231-8.839-17.82c0 0-7.585-19.601-3.377-41.425 5.145-26.702 19.98-52.194 79.249-52.194s74.104 25.492 79.249 52.194c4.211 21.824-3.374 41.425-3.374 41.425z" fill="#bf6724"/><path d="m413.824 72.694c-5.146-26.702-19.98-52.194-79.249-52.194-5.356 0-10.344.211-15 .609 46.866 4.01 59.569 27.295 64.249 51.584 3.756 19.478-1.878 37.172-3.134 40.754 5.255 4.477 9.498 10.035 12.167 17.33 1.537 4.2 8.752 1.161 8.752 1.161s.05-16.231 8.839-17.82c0 0 7.585-19.601 3.376-41.424z" fill="#a35418"/><path d="m165.961 159.881v86c0 16.569 13.431 30 30 30h45.53v53.1h186.21v-47.1c0-25.405-20.595-46-46-46h-171.74c-2.209 0-4-1.791-4-4v-72z" fill="#80deea"/><path d="m165.961 159.881v86c0 16.569 13.431 30 30 30h45.53v53.1h186.21v-47.1c0-25.405-20.595-46-46-46h-171.74c-2.209 0-4-1.791-4-4v-72z" fill="#ff9800"/><path d="m381.701 235.881h-30c25.405 0 46 20.595 46 46v47.1h30v-47.1c0-25.405-20.595-46-46-46z" fill="#fb8c00"/><path d="m186.23 27.528c-4.142 0-7.5 3.357-7.5 7.5v92c0 4.143 3.358 7.5 7.5 7.5s7.5-3.357 7.5-7.5v-92c0-4.142-3.358-7.5-7.5-7.5z" fill="#78909c"/><path d="m354.012 265.881h-38.874c-9.7 0-17.563-7.863-17.563-17.563v-12.437h74v12.437c0 9.7-7.863 17.563-17.563 17.563z" fill="#fbf2df"/><path d="m443.5 321.481h-390c-4.142 0-7.5 3.357-7.5 7.5s3.358 7.5 7.5 7.5h390c4.143 0 7.5-3.357 7.5-7.5s-3.357-7.5-7.5-7.5z" fill="#4dd0e1"/><path d="m119.973 191.233-36.399-36.205c-1.134-1.128-3.074-.329-3.074 1.267v72.41c0 1.596 1.94 2.395 3.074 1.267l36.399-36.205c.703-.7.703-1.834 0-2.534z" fill="#ff7043"/><circle cx="140.884" cy="328.981" fill="#ff7043" r="18"/><path d="m170.698 167.028h31.064c4.677 0 8.468-3.791 8.468-8.468v-23.064c0-4.677-3.791-8.468-8.468-8.468h-31.064c-4.677 0-8.468 3.791-8.468 8.468v23.064c0 4.677 3.791 8.468 8.468 8.468z" fill="#ebad88"/></svg>